G04 #@! TF.GenerationSoftware,KiCad,Pcbnew,(2017-07-16 revision e797af331)-makepkg*
G04 #@! TF.CreationDate,2018-05-04T01:25:42+02:00*
G04 #@! TF.ProjectId,BRNG,42524E472E6B696361645F7063620000,First release*
G04 #@! TF.SameCoordinates,Original
G04 #@! TF.FileFunction,Copper,L2,Bot,Signal*
G04 #@! TF.FilePolarity,Positive*
%FSLAX46Y46*%
G04 Gerber Fmt 4.6, Leading zero omitted, Abs format (unit mm)*
G04 Created by KiCad (PCBNEW (2017-07-16 revision e797af331)-makepkg) date 05/04/18 01:25:42*
%MOMM*%
%LPD*%
G01*
G04 APERTURE LIST*
%ADD10C,2.000000*%
%ADD11R,2.000000X2.000000*%
%ADD12O,1.700000X1.700000*%
%ADD13R,1.700000X1.700000*%
%ADD14C,6.400000*%
%ADD15C,0.800000*%
%ADD16C,3.000000*%
%ADD17O,1.900000X1.200000*%
%ADD18C,1.450000*%
%ADD19C,2.400000*%
%ADD20C,1.440000*%
%ADD21O,1.600000X1.600000*%
%ADD22R,1.600000X1.600000*%
%ADD23C,0.500000*%
%ADD24C,1.000000*%
%ADD25C,0.200000*%
%ADD26C,0.254000*%
G04 APERTURE END LIST*
D10*
X163500000Y-61400000D03*
D11*
X163500000Y-69000000D03*
D12*
X90900000Y-66390000D03*
X90900000Y-68930000D03*
X90900000Y-71470000D03*
X90900000Y-74010000D03*
X90900000Y-76550000D03*
D13*
X90900000Y-79090000D03*
D14*
X198000000Y-111500000D03*
D15*
X200400000Y-111500000D03*
X199697056Y-113197056D03*
X198000000Y-113900000D03*
X196302944Y-113197056D03*
X195600000Y-111500000D03*
X196302944Y-109802944D03*
X198000000Y-109100000D03*
X199697056Y-109802944D03*
D14*
X198000000Y-61500000D03*
D15*
X200400000Y-61500000D03*
X199697056Y-63197056D03*
X198000000Y-63900000D03*
X196302944Y-63197056D03*
X195600000Y-61500000D03*
X196302944Y-59802944D03*
X198000000Y-59100000D03*
X199697056Y-59802944D03*
D14*
X98000000Y-61500000D03*
D15*
X100400000Y-61500000D03*
X99697056Y-63197056D03*
X98000000Y-63900000D03*
X96302944Y-63197056D03*
X95600000Y-61500000D03*
X96302944Y-59802944D03*
X98000000Y-59100000D03*
X99697056Y-59802944D03*
D14*
X98000000Y-111500000D03*
D15*
X100400000Y-111500000D03*
X99697056Y-113197056D03*
X98000000Y-113900000D03*
X96302944Y-113197056D03*
X95600000Y-111500000D03*
X96302944Y-109802944D03*
X98000000Y-109100000D03*
X99697056Y-109802944D03*
D10*
X197000000Y-86500000D03*
D16*
X203000000Y-86500000D03*
D10*
X99000000Y-86500000D03*
D16*
X93000000Y-86500000D03*
D12*
X122260000Y-64860000D03*
X124800000Y-64860000D03*
X122260000Y-67400000D03*
X124800000Y-67400000D03*
X122260000Y-69940000D03*
D13*
X124800000Y-69940000D03*
D17*
X89450000Y-104750000D03*
X89450000Y-97750000D03*
D18*
X92150000Y-103750000D03*
X92150000Y-98750000D03*
D19*
X174500000Y-106000000D03*
X174500000Y-109000000D03*
D20*
X195960000Y-99000000D03*
X198500000Y-99000000D03*
X201040000Y-99000000D03*
D21*
X146210000Y-59000000D03*
X148750000Y-66620000D03*
X148750000Y-59000000D03*
D22*
X146210000Y-66620000D03*
D15*
X166250000Y-72500000D03*
X158500000Y-70050000D03*
X129250000Y-64000000D03*
X131000000Y-60000000D03*
X94500000Y-107250000D03*
X193500000Y-115250000D03*
X193500000Y-62500000D03*
X99500000Y-66000000D03*
X127750000Y-69250000D03*
X135500000Y-72000000D03*
X146500000Y-78750000D03*
X150750000Y-77500000D03*
X153250000Y-73500000D03*
X154750000Y-71500000D03*
X117500000Y-71750000D03*
X117500000Y-73250000D03*
X187000000Y-106800000D03*
X112250000Y-70500000D03*
X114500000Y-65000000D03*
X114000000Y-70500000D03*
X114300000Y-101950000D03*
X109500000Y-98500000D03*
X96500000Y-97500000D03*
X95500000Y-97500000D03*
X196500000Y-107000000D03*
X119800000Y-61200000D03*
X119800000Y-64800000D03*
X134000000Y-79000000D03*
X125750000Y-80500000D03*
X106250000Y-80750000D03*
X101800000Y-62700000D03*
X106700000Y-65200000D03*
X97000000Y-66400000D03*
X110000000Y-68000000D03*
X116800000Y-62600000D03*
X102250000Y-71250000D03*
X100999976Y-97500000D03*
X106500000Y-102500000D03*
X153500000Y-62000000D03*
X144500000Y-69000000D03*
X94900000Y-101900000D03*
X93800000Y-100550000D03*
X103679888Y-73141757D03*
X98000000Y-70500004D03*
X102800010Y-73500000D03*
X97750000Y-72500000D03*
X188800000Y-107000000D03*
X182500000Y-110250000D03*
X154250000Y-78500000D03*
X151500000Y-75750000D03*
X128000000Y-73750000D03*
X119000000Y-75000000D03*
X108000000Y-73000000D03*
X93500000Y-106500000D03*
X190500000Y-115500000D03*
X195750000Y-65750000D03*
X140750000Y-67750000D03*
X115449998Y-68000000D03*
X131750000Y-68000000D03*
D23*
X163500000Y-61400000D02*
X164914213Y-61400000D01*
X164914213Y-61400000D02*
X166250000Y-62735787D01*
X166250000Y-62735787D02*
X166250000Y-71934315D01*
X166250000Y-71934315D02*
X166250000Y-72500000D01*
X163500000Y-69000000D02*
X163500000Y-67500000D01*
X163500000Y-67500000D02*
X162620000Y-66620000D01*
X162620000Y-66620000D02*
X161280000Y-66620000D01*
X148750000Y-66620000D02*
X161280000Y-66620000D01*
D24*
X172802944Y-109000000D02*
X170500000Y-109000000D01*
X174500000Y-109000000D02*
X172802944Y-109000000D01*
X174500000Y-109000000D02*
X176197056Y-109000000D01*
X176197056Y-109000000D02*
X177000000Y-109802944D01*
X174500000Y-109000000D02*
X174500000Y-110697056D01*
X90900000Y-74010000D02*
X94240000Y-74010000D01*
D23*
X119800000Y-64800000D02*
X119800000Y-61200000D01*
X127250000Y-79000000D02*
X133434315Y-79000000D01*
X125750000Y-80500000D02*
X127250000Y-79000000D01*
X133434315Y-79000000D02*
X134000000Y-79000000D01*
X105850001Y-81149999D02*
X106250000Y-80750000D01*
X100500000Y-86500000D02*
X105850001Y-81149999D01*
X99000000Y-86500000D02*
X100500000Y-86500000D01*
X102199999Y-62300001D02*
X101800000Y-62700000D01*
X140750000Y-56750000D02*
X107750000Y-56750000D01*
X107750000Y-56750000D02*
X102199999Y-62300001D01*
X98299999Y-65100001D02*
X106600001Y-65100001D01*
X106600001Y-65100001D02*
X106700000Y-65200000D01*
X97000000Y-66400000D02*
X98299999Y-65100001D01*
X116400001Y-64799999D02*
X113200000Y-68000000D01*
X113200000Y-68000000D02*
X110000000Y-68000000D01*
X116800000Y-62600000D02*
X116400001Y-62999999D01*
X116400001Y-62999999D02*
X116400001Y-64799999D01*
X101500000Y-97500000D02*
X100999976Y-97500000D01*
X106500000Y-102500000D02*
X101500000Y-97500000D01*
X148509998Y-62000000D02*
X153500000Y-62000000D01*
X144500000Y-69000000D02*
X144500000Y-66009998D01*
X144500000Y-66009998D02*
X148509998Y-62000000D01*
D25*
X94900000Y-101650000D02*
X94900000Y-101900000D01*
X93800000Y-100550000D02*
X94900000Y-101650000D01*
D23*
X102788131Y-72250000D02*
X103279889Y-72741758D01*
X103279889Y-72741758D02*
X103679888Y-73141757D01*
X98000000Y-70500004D02*
X99749996Y-72250000D01*
X99749996Y-72250000D02*
X102788131Y-72250000D01*
X98750000Y-73500000D02*
X102234325Y-73500000D01*
X97750000Y-72500000D02*
X98750000Y-73500000D01*
X102234325Y-73500000D02*
X102800010Y-73500000D01*
X188400001Y-107399999D02*
X188800000Y-107000000D01*
X185550000Y-110250000D02*
X188400001Y-107399999D01*
X182500000Y-110250000D02*
X185550000Y-110250000D01*
X151500000Y-75750000D02*
X154250000Y-78500000D01*
X128000000Y-73750000D02*
X149500000Y-73750000D01*
X149500000Y-73750000D02*
X151500000Y-75750000D01*
X116149999Y-73399999D02*
X117750000Y-75000000D01*
X117750000Y-75000000D02*
X119000000Y-75000000D01*
X108000000Y-73000000D02*
X108399999Y-73399999D01*
X108399999Y-73399999D02*
X116149999Y-73399999D01*
X199500000Y-116500000D02*
X191500000Y-116500000D01*
X203000000Y-113000000D02*
X199500000Y-116500000D01*
X203000000Y-82500000D02*
X205750000Y-85250000D01*
X203000000Y-90500000D02*
X203000000Y-113000000D01*
X205750000Y-87750000D02*
X203000000Y-90500000D01*
X205750000Y-85250000D02*
X205750000Y-87750000D01*
X203000000Y-65250000D02*
X203000000Y-82500000D01*
X93000000Y-107250000D02*
X93000000Y-107000000D01*
X93000000Y-107000000D02*
X93500000Y-106500000D01*
X93000000Y-113000000D02*
X93000000Y-107250000D01*
X96500000Y-116500000D02*
X93000000Y-113000000D01*
X191500000Y-116500000D02*
X96500000Y-116500000D01*
X191500000Y-116500000D02*
X190500000Y-115500000D01*
X203000000Y-65250000D02*
X196250000Y-65250000D01*
X196250000Y-65250000D02*
X195750000Y-65750000D01*
X203000000Y-59750000D02*
X203000000Y-65250000D01*
X200000000Y-56750000D02*
X203000000Y-59750000D01*
X140750000Y-56750000D02*
X200000000Y-56750000D01*
X140750000Y-67750000D02*
X140750000Y-56750000D01*
X131750000Y-68000000D02*
X126050001Y-68000001D01*
X125400001Y-68650001D02*
X116099999Y-68650001D01*
X126050001Y-68000001D02*
X125400001Y-68650001D01*
X116099999Y-68650001D02*
X115449998Y-68000000D01*
D26*
G36*
X101835077Y-61413343D02*
X101835664Y-60740518D01*
X101253050Y-59330485D01*
X100175189Y-58250741D01*
X98766175Y-57665667D01*
X97240518Y-57664336D01*
X95830485Y-58246950D01*
X94750741Y-59324811D01*
X94165667Y-60733825D01*
X94164336Y-62259482D01*
X94746950Y-63669515D01*
X95824811Y-64749259D01*
X96937240Y-65211180D01*
X96775551Y-65372869D01*
X96414485Y-65522058D01*
X96123081Y-65812954D01*
X95965180Y-66193223D01*
X95964821Y-66604971D01*
X96122058Y-66985515D01*
X96412954Y-67276919D01*
X96793223Y-67434820D01*
X97204971Y-67435179D01*
X97585515Y-67277942D01*
X97876919Y-66987046D01*
X98027731Y-66623848D01*
X98666578Y-65985001D01*
X106021196Y-65985001D01*
X106112954Y-66076919D01*
X106493223Y-66234820D01*
X106904971Y-66235179D01*
X107285515Y-66077942D01*
X107576919Y-65787046D01*
X107734820Y-65406777D01*
X107735179Y-64995029D01*
X107577942Y-64614485D01*
X107287046Y-64323081D01*
X106906777Y-64165180D01*
X106495029Y-64164821D01*
X106373584Y-64215001D01*
X100708504Y-64215001D01*
X101249259Y-63675189D01*
X101278724Y-63604229D01*
X101593223Y-63734820D01*
X102004971Y-63735179D01*
X102385515Y-63577942D01*
X102676919Y-63287046D01*
X102827731Y-62923849D01*
X108116579Y-57635000D01*
X139865000Y-57635000D01*
X139865000Y-67182415D01*
X139715180Y-67543223D01*
X139714821Y-67954971D01*
X139872058Y-68335515D01*
X140162954Y-68626919D01*
X140543223Y-68784820D01*
X140954971Y-68785179D01*
X141335515Y-68627942D01*
X141626919Y-68337046D01*
X141784820Y-67956777D01*
X141785179Y-67545029D01*
X141635000Y-67181567D01*
X141635000Y-59349041D01*
X144818086Y-59349041D01*
X145057611Y-59855134D01*
X145472577Y-60231041D01*
X145860961Y-60391904D01*
X146083000Y-60269915D01*
X146083000Y-59127000D01*
X146337000Y-59127000D01*
X146337000Y-60269915D01*
X146559039Y-60391904D01*
X146947423Y-60231041D01*
X147362389Y-59855134D01*
X147480000Y-59606633D01*
X147597611Y-59855134D01*
X148012577Y-60231041D01*
X148400961Y-60391904D01*
X148623000Y-60269915D01*
X148623000Y-59127000D01*
X148877000Y-59127000D01*
X148877000Y-60269915D01*
X149099039Y-60391904D01*
X149487423Y-60231041D01*
X149902389Y-59855134D01*
X150141914Y-59349041D01*
X150020629Y-59127000D01*
X148877000Y-59127000D01*
X148623000Y-59127000D01*
X146337000Y-59127000D01*
X146083000Y-59127000D01*
X144939371Y-59127000D01*
X144818086Y-59349041D01*
X141635000Y-59349041D01*
X141635000Y-57635000D01*
X145796005Y-57635000D01*
X145472577Y-57768959D01*
X145057611Y-58144866D01*
X144818086Y-58650959D01*
X144939371Y-58873000D01*
X146083000Y-58873000D01*
X146083000Y-58853000D01*
X146337000Y-58853000D01*
X146337000Y-58873000D01*
X148623000Y-58873000D01*
X148623000Y-58853000D01*
X148877000Y-58853000D01*
X148877000Y-58873000D01*
X150020629Y-58873000D01*
X150141914Y-58650959D01*
X149902389Y-58144866D01*
X149487423Y-57768959D01*
X149163995Y-57635000D01*
X199633420Y-57635000D01*
X202115000Y-60116579D01*
X202115000Y-64365000D01*
X200558243Y-64365000D01*
X201249259Y-63675189D01*
X201834333Y-62266175D01*
X201835664Y-60740518D01*
X201253050Y-59330485D01*
X200175189Y-58250741D01*
X198766175Y-57665667D01*
X197240518Y-57664336D01*
X195830485Y-58246950D01*
X194750741Y-59324811D01*
X194165667Y-60733825D01*
X194164336Y-62259482D01*
X194746950Y-63669515D01*
X195669663Y-64593840D01*
X195624210Y-64624210D01*
X195624208Y-64624213D01*
X195525552Y-64722869D01*
X195164485Y-64872058D01*
X194873081Y-65162954D01*
X194715180Y-65543223D01*
X194714821Y-65954971D01*
X194872058Y-66335515D01*
X195162954Y-66626919D01*
X195543223Y-66784820D01*
X195954971Y-66785179D01*
X196335515Y-66627942D01*
X196626919Y-66337046D01*
X196710816Y-66135000D01*
X202115000Y-66135000D01*
X202115000Y-82499995D01*
X202114999Y-82500000D01*
X202120370Y-82526999D01*
X202182367Y-82838675D01*
X202374210Y-83125790D01*
X202873000Y-83624580D01*
X202873000Y-83872888D01*
X202479750Y-83872545D01*
X201513868Y-84271639D01*
X200774236Y-85009981D01*
X200373457Y-85975165D01*
X200372545Y-87020250D01*
X200771639Y-87986132D01*
X201509981Y-88725764D01*
X202475165Y-89126543D01*
X202873000Y-89126890D01*
X202873000Y-89375420D01*
X202374210Y-89874210D01*
X202182367Y-90161325D01*
X202182367Y-90161326D01*
X202114999Y-90500000D01*
X202115000Y-90500005D01*
X202115000Y-98158944D01*
X201808548Y-97851957D01*
X201310709Y-97645236D01*
X200771656Y-97644765D01*
X200273457Y-97850617D01*
X199891957Y-98231452D01*
X199769955Y-98525264D01*
X199649383Y-98233457D01*
X199268548Y-97851957D01*
X198770709Y-97645236D01*
X198231656Y-97644765D01*
X197733457Y-97850617D01*
X197351957Y-98231452D01*
X197229955Y-98525264D01*
X197109383Y-98233457D01*
X196728548Y-97851957D01*
X196230709Y-97645236D01*
X195691656Y-97644765D01*
X195193457Y-97850617D01*
X194811957Y-98231452D01*
X194605236Y-98729291D01*
X194604765Y-99268344D01*
X194810617Y-99766543D01*
X195191452Y-100148043D01*
X195689291Y-100354764D01*
X196228344Y-100355235D01*
X196726543Y-100149383D01*
X197108043Y-99768548D01*
X197230045Y-99474736D01*
X197350617Y-99766543D01*
X197731452Y-100148043D01*
X198229291Y-100354764D01*
X198768344Y-100355235D01*
X199266543Y-100149383D01*
X199648043Y-99768548D01*
X199770045Y-99474736D01*
X199890617Y-99766543D01*
X200271452Y-100148043D01*
X200769291Y-100354764D01*
X201308344Y-100355235D01*
X201806543Y-100149383D01*
X202115000Y-99841464D01*
X202115000Y-112633421D01*
X201374255Y-113374166D01*
X201834333Y-112266175D01*
X201835664Y-110740518D01*
X201253050Y-109330485D01*
X200175189Y-108250741D01*
X198766175Y-107665667D01*
X197240518Y-107664336D01*
X195830485Y-108246950D01*
X194750741Y-109324811D01*
X194165667Y-110733825D01*
X194164336Y-112259482D01*
X194746950Y-113669515D01*
X195824811Y-114749259D01*
X197233825Y-115334333D01*
X198759482Y-115335664D01*
X199872749Y-114875671D01*
X199133420Y-115615000D01*
X191866579Y-115615000D01*
X191527131Y-115275551D01*
X191377942Y-114914485D01*
X191087046Y-114623081D01*
X190706777Y-114465180D01*
X190295029Y-114464821D01*
X189914485Y-114622058D01*
X189623081Y-114912954D01*
X189465180Y-115293223D01*
X189464899Y-115615000D01*
X96866579Y-115615000D01*
X96125834Y-114874255D01*
X97233825Y-115334333D01*
X98759482Y-115335664D01*
X100169515Y-114753050D01*
X101249259Y-113675189D01*
X101834333Y-112266175D01*
X101835664Y-110740518D01*
X101652479Y-110297175D01*
X173382430Y-110297175D01*
X173505565Y-110584788D01*
X174187734Y-110844707D01*
X174917443Y-110823786D01*
X175494435Y-110584788D01*
X175550013Y-110454971D01*
X181464821Y-110454971D01*
X181622058Y-110835515D01*
X181912954Y-111126919D01*
X182293223Y-111284820D01*
X182704971Y-111285179D01*
X183068433Y-111135000D01*
X185549995Y-111135000D01*
X185550000Y-111135001D01*
X185832484Y-111078810D01*
X185888675Y-111067633D01*
X186175790Y-110875790D01*
X189024447Y-108027132D01*
X189385515Y-107877942D01*
X189676919Y-107587046D01*
X189834820Y-107206777D01*
X189835179Y-106795029D01*
X189677942Y-106414485D01*
X189387046Y-106123081D01*
X189006777Y-105965180D01*
X188595029Y-105964821D01*
X188214485Y-106122058D01*
X187923081Y-106412954D01*
X187772268Y-106776153D01*
X185183420Y-109365000D01*
X183067585Y-109365000D01*
X182706777Y-109215180D01*
X182295029Y-109214821D01*
X181914485Y-109372058D01*
X181623081Y-109662954D01*
X181465180Y-110043223D01*
X181464821Y-110454971D01*
X175550013Y-110454971D01*
X175617570Y-110297175D01*
X174500000Y-109179605D01*
X173382430Y-110297175D01*
X101652479Y-110297175D01*
X101253050Y-109330485D01*
X100175189Y-108250741D01*
X98766175Y-107665667D01*
X97240518Y-107664336D01*
X95830485Y-108246950D01*
X94750741Y-109324811D01*
X94165667Y-110733825D01*
X94164336Y-112259482D01*
X94624329Y-113372749D01*
X93885000Y-112633420D01*
X93885000Y-107460793D01*
X94085515Y-107377942D01*
X94376919Y-107087046D01*
X94534820Y-106706777D01*
X94535034Y-106460838D01*
X172172597Y-106460838D01*
X172526115Y-107316418D01*
X173124580Y-107915929D01*
X172915212Y-108005565D01*
X172655293Y-108687734D01*
X172676214Y-109417443D01*
X172915212Y-109994435D01*
X173202825Y-110117570D01*
X174320395Y-109000000D01*
X174306253Y-108985858D01*
X174485858Y-108806253D01*
X174500000Y-108820395D01*
X174514143Y-108806253D01*
X174693748Y-108985858D01*
X174679605Y-109000000D01*
X175797175Y-110117570D01*
X176084788Y-109994435D01*
X176344707Y-109312266D01*
X176323786Y-108582557D01*
X176084788Y-108005565D01*
X175874759Y-107915646D01*
X176471585Y-107319861D01*
X176826596Y-106464900D01*
X176827403Y-105539162D01*
X176473885Y-104683582D01*
X175819861Y-104028415D01*
X174964900Y-103673404D01*
X174039162Y-103672597D01*
X173183582Y-104026115D01*
X172528415Y-104680139D01*
X172173404Y-105535100D01*
X172172597Y-106460838D01*
X94535034Y-106460838D01*
X94535179Y-106295029D01*
X94377942Y-105914485D01*
X94087046Y-105623081D01*
X93706777Y-105465180D01*
X93295029Y-105464821D01*
X93127000Y-105534249D01*
X93127000Y-104696358D01*
X93302280Y-104521384D01*
X93509763Y-104021708D01*
X93510236Y-103480666D01*
X93303624Y-102980628D01*
X93127000Y-102803695D01*
X93127000Y-101340815D01*
X93212954Y-101426919D01*
X93593223Y-101584820D01*
X93795550Y-101584996D01*
X93876504Y-101665951D01*
X93865180Y-101693223D01*
X93864821Y-102104971D01*
X94022058Y-102485515D01*
X94312954Y-102776919D01*
X94693223Y-102934820D01*
X95104971Y-102935179D01*
X95485515Y-102777942D01*
X95776919Y-102487046D01*
X95934820Y-102106777D01*
X95935179Y-101695029D01*
X95777942Y-101314485D01*
X95487046Y-101023081D01*
X95188604Y-100899158D01*
X94835004Y-100545558D01*
X94835179Y-100345029D01*
X94677942Y-99964485D01*
X94387046Y-99673081D01*
X94006777Y-99515180D01*
X93595029Y-99514821D01*
X93214485Y-99672058D01*
X93127000Y-99759390D01*
X93127000Y-99696358D01*
X93302280Y-99521384D01*
X93509763Y-99021708D01*
X93510236Y-98480666D01*
X93303624Y-97980628D01*
X93127000Y-97803695D01*
X93127000Y-97704971D01*
X99964797Y-97704971D01*
X100122034Y-98085515D01*
X100412930Y-98376919D01*
X100793199Y-98534820D01*
X101204947Y-98535179D01*
X101260603Y-98512183D01*
X105472869Y-102724448D01*
X105622058Y-103085515D01*
X105912954Y-103376919D01*
X106293223Y-103534820D01*
X106704971Y-103535179D01*
X107085515Y-103377942D01*
X107376919Y-103087046D01*
X107534820Y-102706777D01*
X107535179Y-102295029D01*
X107377942Y-101914485D01*
X107087046Y-101623081D01*
X106723847Y-101472268D01*
X102125790Y-96874210D01*
X101838675Y-96682367D01*
X101782484Y-96671190D01*
X101598517Y-96634596D01*
X101587022Y-96623081D01*
X101206753Y-96465180D01*
X100795005Y-96464821D01*
X100414461Y-96622058D01*
X100123057Y-96912954D01*
X99965156Y-97293223D01*
X99964797Y-97704971D01*
X93127000Y-97704971D01*
X93127000Y-89127112D01*
X93520250Y-89127455D01*
X94486132Y-88728361D01*
X95225764Y-87990019D01*
X95626543Y-87024835D01*
X95626633Y-86921230D01*
X96872632Y-86921230D01*
X97195766Y-87703274D01*
X97793578Y-88302131D01*
X98575057Y-88626630D01*
X99421230Y-88627368D01*
X100203274Y-88304234D01*
X100663917Y-87844395D01*
X101026955Y-87772182D01*
X101473686Y-87473686D01*
X102026142Y-86921230D01*
X194872632Y-86921230D01*
X195195766Y-87703274D01*
X195793578Y-88302131D01*
X196575057Y-88626630D01*
X197421230Y-88627368D01*
X198203274Y-88304234D01*
X198802131Y-87706422D01*
X199126630Y-86924943D01*
X199127368Y-86078770D01*
X198804234Y-85296726D01*
X198206422Y-84697869D01*
X197424943Y-84373370D01*
X196578770Y-84372632D01*
X195796726Y-84695766D01*
X195197869Y-85293578D01*
X194873370Y-86075057D01*
X194872632Y-86921230D01*
X102026142Y-86921230D01*
X106752984Y-82194388D01*
X107113846Y-82045283D01*
X107543773Y-81616106D01*
X107776735Y-81055072D01*
X107776955Y-80802407D01*
X124222735Y-80802407D01*
X124454717Y-81363846D01*
X124883894Y-81793773D01*
X125444928Y-82026735D01*
X126052407Y-82027265D01*
X126613846Y-81795283D01*
X127043773Y-81366106D01*
X127194673Y-81002699D01*
X127820372Y-80377000D01*
X133334327Y-80377000D01*
X133694928Y-80526735D01*
X134302407Y-80527265D01*
X134863846Y-80295283D01*
X135293773Y-79866106D01*
X135526735Y-79305072D01*
X135527265Y-78697593D01*
X135295283Y-78136154D01*
X134866106Y-77706227D01*
X134305072Y-77473265D01*
X133697593Y-77472735D01*
X133333924Y-77623000D01*
X127250000Y-77623000D01*
X126723045Y-77727818D01*
X126276314Y-78026314D01*
X125247016Y-79055612D01*
X124886154Y-79204717D01*
X124456227Y-79633894D01*
X124223265Y-80194928D01*
X124222735Y-80802407D01*
X107776955Y-80802407D01*
X107777265Y-80447593D01*
X107545283Y-79886154D01*
X107116106Y-79456227D01*
X106555072Y-79223265D01*
X105947593Y-79222735D01*
X105386154Y-79454717D01*
X104956227Y-79883894D01*
X104805327Y-80247301D01*
X100280526Y-84772102D01*
X100206422Y-84697869D01*
X99424943Y-84373370D01*
X98578770Y-84372632D01*
X97796726Y-84695766D01*
X97197869Y-85293578D01*
X96873370Y-86075057D01*
X96872632Y-86921230D01*
X95626633Y-86921230D01*
X95627455Y-85979750D01*
X95228361Y-85013868D01*
X94490019Y-84274236D01*
X93524835Y-83873457D01*
X93127000Y-83873110D01*
X93127000Y-72704971D01*
X96714821Y-72704971D01*
X96872058Y-73085515D01*
X97162954Y-73376919D01*
X97526152Y-73527731D01*
X98124208Y-74125787D01*
X98124210Y-74125790D01*
X98261662Y-74217632D01*
X98411326Y-74317634D01*
X98750000Y-74385001D01*
X98750005Y-74385000D01*
X102232425Y-74385000D01*
X102593233Y-74534820D01*
X103004981Y-74535179D01*
X103385525Y-74377942D01*
X103587142Y-74176676D01*
X103884859Y-74176936D01*
X104265403Y-74019699D01*
X104556807Y-73728803D01*
X104714708Y-73348534D01*
X104714833Y-73204971D01*
X106964821Y-73204971D01*
X107122058Y-73585515D01*
X107412954Y-73876919D01*
X107778699Y-74028789D01*
X108061324Y-74217632D01*
X108117515Y-74228809D01*
X108399999Y-74285000D01*
X108400004Y-74284999D01*
X115783419Y-74284999D01*
X117124208Y-75625787D01*
X117124210Y-75625790D01*
X117411325Y-75817633D01*
X117750000Y-75885001D01*
X117750005Y-75885000D01*
X118432415Y-75885000D01*
X118793223Y-76034820D01*
X119204971Y-76035179D01*
X119585515Y-75877942D01*
X119876919Y-75587046D01*
X120034820Y-75206777D01*
X120035179Y-74795029D01*
X119877942Y-74414485D01*
X119587046Y-74123081D01*
X119206777Y-73965180D01*
X118795029Y-73964821D01*
X118431567Y-74115000D01*
X118116579Y-74115000D01*
X117956551Y-73954971D01*
X126964821Y-73954971D01*
X127122058Y-74335515D01*
X127412954Y-74626919D01*
X127793223Y-74784820D01*
X128204971Y-74785179D01*
X128568433Y-74635000D01*
X149133420Y-74635000D01*
X150472869Y-75974448D01*
X150622058Y-76335515D01*
X150912954Y-76626919D01*
X151276151Y-76777731D01*
X153222869Y-78724448D01*
X153372058Y-79085515D01*
X153662954Y-79376919D01*
X154043223Y-79534820D01*
X154454971Y-79535179D01*
X154835515Y-79377942D01*
X155126919Y-79087046D01*
X155284820Y-78706777D01*
X155285179Y-78295029D01*
X155127942Y-77914485D01*
X154837046Y-77623081D01*
X154473847Y-77472268D01*
X152527131Y-75525551D01*
X152377942Y-75164485D01*
X152087046Y-74873081D01*
X151723847Y-74722268D01*
X150125790Y-73124210D01*
X150070170Y-73087046D01*
X149838675Y-72932367D01*
X149748777Y-72914485D01*
X149500000Y-72864999D01*
X149499995Y-72865000D01*
X128567585Y-72865000D01*
X128206777Y-72715180D01*
X127795029Y-72714821D01*
X127414485Y-72872058D01*
X127123081Y-73162954D01*
X126965180Y-73543223D01*
X126964821Y-73954971D01*
X117956551Y-73954971D01*
X116775789Y-72774209D01*
X116672166Y-72704971D01*
X116488674Y-72582366D01*
X116419036Y-72568514D01*
X116149999Y-72514998D01*
X116149994Y-72514999D01*
X108919473Y-72514999D01*
X108877942Y-72414485D01*
X108587046Y-72123081D01*
X108206777Y-71965180D01*
X107795029Y-71964821D01*
X107414485Y-72122058D01*
X107123081Y-72412954D01*
X106965180Y-72793223D01*
X106964821Y-73204971D01*
X104714833Y-73204971D01*
X104715067Y-72936786D01*
X104557830Y-72556242D01*
X104266934Y-72264838D01*
X103903735Y-72114025D01*
X103413921Y-71624210D01*
X103371163Y-71595640D01*
X103258435Y-71520318D01*
X103284820Y-71456777D01*
X103285179Y-71045029D01*
X103127942Y-70664485D01*
X102837046Y-70373081D01*
X102653558Y-70296890D01*
X120818524Y-70296890D01*
X120988355Y-70706924D01*
X121378642Y-71135183D01*
X121903108Y-71381486D01*
X122133000Y-71260819D01*
X122133000Y-70067000D01*
X120939845Y-70067000D01*
X120818524Y-70296890D01*
X102653558Y-70296890D01*
X102456777Y-70215180D01*
X102045029Y-70214821D01*
X101664485Y-70372058D01*
X101373081Y-70662954D01*
X101215180Y-71043223D01*
X101214899Y-71365000D01*
X100116575Y-71365000D01*
X99027131Y-70275555D01*
X98877942Y-69914489D01*
X98587046Y-69623085D01*
X98206777Y-69465184D01*
X97795029Y-69464825D01*
X97414485Y-69622062D01*
X97123081Y-69912958D01*
X96965180Y-70293227D01*
X96964821Y-70704975D01*
X97122058Y-71085519D01*
X97412954Y-71376923D01*
X97624804Y-71464891D01*
X97545029Y-71464821D01*
X97164485Y-71622058D01*
X96873081Y-71912954D01*
X96715180Y-72293223D01*
X96714821Y-72704971D01*
X93127000Y-72704971D01*
X93127000Y-68204971D01*
X108964821Y-68204971D01*
X109122058Y-68585515D01*
X109412954Y-68876919D01*
X109793223Y-69034820D01*
X110204971Y-69035179D01*
X110568433Y-68885000D01*
X113199995Y-68885000D01*
X113200000Y-68885001D01*
X113482484Y-68828810D01*
X113538675Y-68817633D01*
X113825790Y-68625790D01*
X114414966Y-68036614D01*
X114414819Y-68204971D01*
X114572056Y-68585515D01*
X114862952Y-68876919D01*
X115226150Y-69027732D01*
X115474207Y-69275788D01*
X115474209Y-69275791D01*
X115757120Y-69464825D01*
X115761324Y-69467634D01*
X116099999Y-69535002D01*
X116100004Y-69535001D01*
X120838450Y-69535001D01*
X120818524Y-69583110D01*
X120939845Y-69813000D01*
X122133000Y-69813000D01*
X122133000Y-69793000D01*
X122387000Y-69793000D01*
X122387000Y-69813000D01*
X122407000Y-69813000D01*
X122407000Y-70067000D01*
X122387000Y-70067000D01*
X122387000Y-71260819D01*
X122616892Y-71381486D01*
X123141358Y-71135183D01*
X123330039Y-70928145D01*
X123351843Y-71037765D01*
X123492191Y-71247809D01*
X123702235Y-71388157D01*
X123950000Y-71437440D01*
X125650000Y-71437440D01*
X125897765Y-71388157D01*
X126107809Y-71247809D01*
X126248157Y-71037765D01*
X126297440Y-70790000D01*
X126297440Y-69204971D01*
X143464821Y-69204971D01*
X143622058Y-69585515D01*
X143912954Y-69876919D01*
X144293223Y-70034820D01*
X144704971Y-70035179D01*
X145085515Y-69877942D01*
X145376919Y-69587046D01*
X145534820Y-69206777D01*
X145535179Y-68795029D01*
X145385000Y-68431567D01*
X145385000Y-68062467D01*
X145410000Y-68067440D01*
X147010000Y-68067440D01*
X147257765Y-68018157D01*
X147467809Y-67877809D01*
X147608157Y-67667765D01*
X147638083Y-67517313D01*
X147735302Y-67662811D01*
X148200849Y-67973880D01*
X148750000Y-68083113D01*
X149299151Y-67973880D01*
X149764698Y-67662811D01*
X149870144Y-67505000D01*
X162097851Y-67505000D01*
X162042191Y-67542191D01*
X161901843Y-67752235D01*
X161852560Y-68000000D01*
X161852560Y-70000000D01*
X161901843Y-70247765D01*
X162042191Y-70457809D01*
X162252235Y-70598157D01*
X162500000Y-70647440D01*
X164500000Y-70647440D01*
X164747765Y-70598157D01*
X164957809Y-70457809D01*
X165098157Y-70247765D01*
X165147440Y-70000000D01*
X165147440Y-68000000D01*
X165098157Y-67752235D01*
X164957809Y-67542191D01*
X164747765Y-67401843D01*
X164500000Y-67352560D01*
X164355673Y-67352560D01*
X164321819Y-67182368D01*
X164317633Y-67161325D01*
X164125790Y-66874210D01*
X164125787Y-66874208D01*
X163245790Y-65994210D01*
X163127243Y-65915000D01*
X162958675Y-65802367D01*
X162873955Y-65785515D01*
X162620000Y-65734999D01*
X162619995Y-65735000D01*
X149870144Y-65735000D01*
X149764698Y-65577189D01*
X149299151Y-65266120D01*
X148750000Y-65156887D01*
X148200849Y-65266120D01*
X147735302Y-65577189D01*
X147638083Y-65722687D01*
X147608157Y-65572235D01*
X147467809Y-65362191D01*
X147257765Y-65221843D01*
X147010000Y-65172560D01*
X146589018Y-65172560D01*
X148876577Y-62885000D01*
X152932415Y-62885000D01*
X153293223Y-63034820D01*
X153704971Y-63035179D01*
X154085515Y-62877942D01*
X154376919Y-62587046D01*
X154534820Y-62206777D01*
X154535179Y-61795029D01*
X154505746Y-61723795D01*
X161864716Y-61723795D01*
X162113106Y-62324943D01*
X162572637Y-62785278D01*
X163173352Y-63034716D01*
X163823795Y-63035284D01*
X164424943Y-62786894D01*
X164737508Y-62474875D01*
X165365000Y-63102366D01*
X165365000Y-71932415D01*
X165215180Y-72293223D01*
X165214821Y-72704971D01*
X165372058Y-73085515D01*
X165662954Y-73376919D01*
X166043223Y-73534820D01*
X166454971Y-73535179D01*
X166835515Y-73377942D01*
X167126919Y-73087046D01*
X167284820Y-72706777D01*
X167285179Y-72295029D01*
X167135000Y-71931567D01*
X167135000Y-62735792D01*
X167135001Y-62735787D01*
X167067633Y-62397112D01*
X167054824Y-62377942D01*
X166875790Y-62109997D01*
X166875787Y-62109995D01*
X165540003Y-60774210D01*
X165479562Y-60733825D01*
X165252888Y-60582367D01*
X165178816Y-60567633D01*
X164914213Y-60514999D01*
X164914208Y-60515000D01*
X164903398Y-60515000D01*
X164886894Y-60475057D01*
X164427363Y-60014722D01*
X163826648Y-59765284D01*
X163176205Y-59764716D01*
X162575057Y-60013106D01*
X162114722Y-60472637D01*
X161865284Y-61073352D01*
X161864716Y-61723795D01*
X154505746Y-61723795D01*
X154377942Y-61414485D01*
X154087046Y-61123081D01*
X153706777Y-60965180D01*
X153295029Y-60964821D01*
X152931567Y-61115000D01*
X148510003Y-61115000D01*
X148509998Y-61114999D01*
X148171324Y-61182366D01*
X148171322Y-61182367D01*
X148171323Y-61182367D01*
X147884208Y-61374210D01*
X147884206Y-61374213D01*
X143874210Y-65384208D01*
X143682367Y-65671323D01*
X143671533Y-65725791D01*
X143614999Y-66009998D01*
X143615000Y-66010003D01*
X143615000Y-68432415D01*
X143465180Y-68793223D01*
X143464821Y-69204971D01*
X126297440Y-69204971D01*
X126297440Y-69090000D01*
X126283195Y-69018386D01*
X126416580Y-68885001D01*
X131182416Y-68885000D01*
X131543223Y-69034820D01*
X131954971Y-69035179D01*
X132335515Y-68877942D01*
X132626919Y-68587046D01*
X132784820Y-68206777D01*
X132785179Y-67795029D01*
X132627942Y-67414485D01*
X132337046Y-67123081D01*
X131956777Y-66965180D01*
X131545029Y-66964821D01*
X131181566Y-67115000D01*
X126257403Y-67115001D01*
X126201054Y-66831715D01*
X125879147Y-66349946D01*
X125549974Y-66130000D01*
X125879147Y-65910054D01*
X126201054Y-65428285D01*
X126314093Y-64860000D01*
X126201054Y-64291715D01*
X125879147Y-63809946D01*
X125397378Y-63488039D01*
X124829093Y-63375000D01*
X124770907Y-63375000D01*
X124202622Y-63488039D01*
X123720853Y-63809946D01*
X123530000Y-64095578D01*
X123339147Y-63809946D01*
X122857378Y-63488039D01*
X122289093Y-63375000D01*
X122230907Y-63375000D01*
X121662622Y-63488039D01*
X121180853Y-63809946D01*
X120858946Y-64291715D01*
X120810496Y-64535291D01*
X120685000Y-64231567D01*
X120685000Y-61767585D01*
X120834820Y-61406777D01*
X120835179Y-60995029D01*
X120677942Y-60614485D01*
X120387046Y-60323081D01*
X120006777Y-60165180D01*
X119595029Y-60164821D01*
X119214485Y-60322058D01*
X118923081Y-60612954D01*
X118765180Y-60993223D01*
X118764821Y-61404971D01*
X118915000Y-61768433D01*
X118915000Y-64232415D01*
X118765180Y-64593223D01*
X118764821Y-65004971D01*
X118922058Y-65385515D01*
X119212954Y-65676919D01*
X119593223Y-65834820D01*
X120004971Y-65835179D01*
X120385515Y-65677942D01*
X120676919Y-65387046D01*
X120794444Y-65104013D01*
X120858946Y-65428285D01*
X121180853Y-65910054D01*
X121510026Y-66130000D01*
X121180853Y-66349946D01*
X120858946Y-66831715D01*
X120745907Y-67400000D01*
X120818510Y-67765001D01*
X116472770Y-67765001D01*
X116327940Y-67414485D01*
X116037044Y-67123081D01*
X115656775Y-66965180D01*
X115486548Y-66965032D01*
X117025788Y-65425791D01*
X117025791Y-65425789D01*
X117217634Y-65138674D01*
X117243870Y-65006777D01*
X117285002Y-64799999D01*
X117285001Y-64799994D01*
X117285001Y-63519473D01*
X117385515Y-63477942D01*
X117676919Y-63187046D01*
X117834820Y-62806777D01*
X117835179Y-62395029D01*
X117677942Y-62014485D01*
X117387046Y-61723081D01*
X117006777Y-61565180D01*
X116595029Y-61564821D01*
X116214485Y-61722058D01*
X115923081Y-62012954D01*
X115771211Y-62378699D01*
X115582368Y-62661324D01*
X115582368Y-62661325D01*
X115515000Y-62999999D01*
X115515001Y-63000004D01*
X115515001Y-64433420D01*
X112833420Y-67115000D01*
X110567585Y-67115000D01*
X110206777Y-66965180D01*
X109795029Y-66964821D01*
X109414485Y-67122058D01*
X109123081Y-67412954D01*
X108965180Y-67793223D01*
X108964821Y-68204971D01*
X93127000Y-68204971D01*
X93127000Y-61512509D01*
X93500234Y-59636136D01*
X94556028Y-58056028D01*
X96136136Y-57000234D01*
X98012509Y-56627000D01*
X106621421Y-56627000D01*
X101835077Y-61413343D01*
X101835077Y-61413343D01*
G37*
X101835077Y-61413343D02*
X101835664Y-60740518D01*
X101253050Y-59330485D01*
X100175189Y-58250741D01*
X98766175Y-57665667D01*
X97240518Y-57664336D01*
X95830485Y-58246950D01*
X94750741Y-59324811D01*
X94165667Y-60733825D01*
X94164336Y-62259482D01*
X94746950Y-63669515D01*
X95824811Y-64749259D01*
X96937240Y-65211180D01*
X96775551Y-65372869D01*
X96414485Y-65522058D01*
X96123081Y-65812954D01*
X95965180Y-66193223D01*
X95964821Y-66604971D01*
X96122058Y-66985515D01*
X96412954Y-67276919D01*
X96793223Y-67434820D01*
X97204971Y-67435179D01*
X97585515Y-67277942D01*
X97876919Y-66987046D01*
X98027731Y-66623848D01*
X98666578Y-65985001D01*
X106021196Y-65985001D01*
X106112954Y-66076919D01*
X106493223Y-66234820D01*
X106904971Y-66235179D01*
X107285515Y-66077942D01*
X107576919Y-65787046D01*
X107734820Y-65406777D01*
X107735179Y-64995029D01*
X107577942Y-64614485D01*
X107287046Y-64323081D01*
X106906777Y-64165180D01*
X106495029Y-64164821D01*
X106373584Y-64215001D01*
X100708504Y-64215001D01*
X101249259Y-63675189D01*
X101278724Y-63604229D01*
X101593223Y-63734820D01*
X102004971Y-63735179D01*
X102385515Y-63577942D01*
X102676919Y-63287046D01*
X102827731Y-62923849D01*
X108116579Y-57635000D01*
X139865000Y-57635000D01*
X139865000Y-67182415D01*
X139715180Y-67543223D01*
X139714821Y-67954971D01*
X139872058Y-68335515D01*
X140162954Y-68626919D01*
X140543223Y-68784820D01*
X140954971Y-68785179D01*
X141335515Y-68627942D01*
X141626919Y-68337046D01*
X141784820Y-67956777D01*
X141785179Y-67545029D01*
X141635000Y-67181567D01*
X141635000Y-59349041D01*
X144818086Y-59349041D01*
X145057611Y-59855134D01*
X145472577Y-60231041D01*
X145860961Y-60391904D01*
X146083000Y-60269915D01*
X146083000Y-59127000D01*
X146337000Y-59127000D01*
X146337000Y-60269915D01*
X146559039Y-60391904D01*
X146947423Y-60231041D01*
X147362389Y-59855134D01*
X147480000Y-59606633D01*
X147597611Y-59855134D01*
X148012577Y-60231041D01*
X148400961Y-60391904D01*
X148623000Y-60269915D01*
X148623000Y-59127000D01*
X148877000Y-59127000D01*
X148877000Y-60269915D01*
X149099039Y-60391904D01*
X149487423Y-60231041D01*
X149902389Y-59855134D01*
X150141914Y-59349041D01*
X150020629Y-59127000D01*
X148877000Y-59127000D01*
X148623000Y-59127000D01*
X146337000Y-59127000D01*
X146083000Y-59127000D01*
X144939371Y-59127000D01*
X144818086Y-59349041D01*
X141635000Y-59349041D01*
X141635000Y-57635000D01*
X145796005Y-57635000D01*
X145472577Y-57768959D01*
X145057611Y-58144866D01*
X144818086Y-58650959D01*
X144939371Y-58873000D01*
X146083000Y-58873000D01*
X146083000Y-58853000D01*
X146337000Y-58853000D01*
X146337000Y-58873000D01*
X148623000Y-58873000D01*
X148623000Y-58853000D01*
X148877000Y-58853000D01*
X148877000Y-58873000D01*
X150020629Y-58873000D01*
X150141914Y-58650959D01*
X149902389Y-58144866D01*
X149487423Y-57768959D01*
X149163995Y-57635000D01*
X199633420Y-57635000D01*
X202115000Y-60116579D01*
X202115000Y-64365000D01*
X200558243Y-64365000D01*
X201249259Y-63675189D01*
X201834333Y-62266175D01*
X201835664Y-60740518D01*
X201253050Y-59330485D01*
X200175189Y-58250741D01*
X198766175Y-57665667D01*
X197240518Y-57664336D01*
X195830485Y-58246950D01*
X194750741Y-59324811D01*
X194165667Y-60733825D01*
X194164336Y-62259482D01*
X194746950Y-63669515D01*
X195669663Y-64593840D01*
X195624210Y-64624210D01*
X195624208Y-64624213D01*
X195525552Y-64722869D01*
X195164485Y-64872058D01*
X194873081Y-65162954D01*
X194715180Y-65543223D01*
X194714821Y-65954971D01*
X194872058Y-66335515D01*
X195162954Y-66626919D01*
X195543223Y-66784820D01*
X195954971Y-66785179D01*
X196335515Y-66627942D01*
X196626919Y-66337046D01*
X196710816Y-66135000D01*
X202115000Y-66135000D01*
X202115000Y-82499995D01*
X202114999Y-82500000D01*
X202120370Y-82526999D01*
X202182367Y-82838675D01*
X202374210Y-83125790D01*
X202873000Y-83624580D01*
X202873000Y-83872888D01*
X202479750Y-83872545D01*
X201513868Y-84271639D01*
X200774236Y-85009981D01*
X200373457Y-85975165D01*
X200372545Y-87020250D01*
X200771639Y-87986132D01*
X201509981Y-88725764D01*
X202475165Y-89126543D01*
X202873000Y-89126890D01*
X202873000Y-89375420D01*
X202374210Y-89874210D01*
X202182367Y-90161325D01*
X202182367Y-90161326D01*
X202114999Y-90500000D01*
X202115000Y-90500005D01*
X202115000Y-98158944D01*
X201808548Y-97851957D01*
X201310709Y-97645236D01*
X200771656Y-97644765D01*
X200273457Y-97850617D01*
X199891957Y-98231452D01*
X199769955Y-98525264D01*
X199649383Y-98233457D01*
X199268548Y-97851957D01*
X198770709Y-97645236D01*
X198231656Y-97644765D01*
X197733457Y-97850617D01*
X197351957Y-98231452D01*
X197229955Y-98525264D01*
X197109383Y-98233457D01*
X196728548Y-97851957D01*
X196230709Y-97645236D01*
X195691656Y-97644765D01*
X195193457Y-97850617D01*
X194811957Y-98231452D01*
X194605236Y-98729291D01*
X194604765Y-99268344D01*
X194810617Y-99766543D01*
X195191452Y-100148043D01*
X195689291Y-100354764D01*
X196228344Y-100355235D01*
X196726543Y-100149383D01*
X197108043Y-99768548D01*
X197230045Y-99474736D01*
X197350617Y-99766543D01*
X197731452Y-100148043D01*
X198229291Y-100354764D01*
X198768344Y-100355235D01*
X199266543Y-100149383D01*
X199648043Y-99768548D01*
X199770045Y-99474736D01*
X199890617Y-99766543D01*
X200271452Y-100148043D01*
X200769291Y-100354764D01*
X201308344Y-100355235D01*
X201806543Y-100149383D01*
X202115000Y-99841464D01*
X202115000Y-112633421D01*
X201374255Y-113374166D01*
X201834333Y-112266175D01*
X201835664Y-110740518D01*
X201253050Y-109330485D01*
X200175189Y-108250741D01*
X198766175Y-107665667D01*
X197240518Y-107664336D01*
X195830485Y-108246950D01*
X194750741Y-109324811D01*
X194165667Y-110733825D01*
X194164336Y-112259482D01*
X194746950Y-113669515D01*
X195824811Y-114749259D01*
X197233825Y-115334333D01*
X198759482Y-115335664D01*
X199872749Y-114875671D01*
X199133420Y-115615000D01*
X191866579Y-115615000D01*
X191527131Y-115275551D01*
X191377942Y-114914485D01*
X191087046Y-114623081D01*
X190706777Y-114465180D01*
X190295029Y-114464821D01*
X189914485Y-114622058D01*
X189623081Y-114912954D01*
X189465180Y-115293223D01*
X189464899Y-115615000D01*
X96866579Y-115615000D01*
X96125834Y-114874255D01*
X97233825Y-115334333D01*
X98759482Y-115335664D01*
X100169515Y-114753050D01*
X101249259Y-113675189D01*
X101834333Y-112266175D01*
X101835664Y-110740518D01*
X101652479Y-110297175D01*
X173382430Y-110297175D01*
X173505565Y-110584788D01*
X174187734Y-110844707D01*
X174917443Y-110823786D01*
X175494435Y-110584788D01*
X175550013Y-110454971D01*
X181464821Y-110454971D01*
X181622058Y-110835515D01*
X181912954Y-111126919D01*
X182293223Y-111284820D01*
X182704971Y-111285179D01*
X183068433Y-111135000D01*
X185549995Y-111135000D01*
X185550000Y-111135001D01*
X185832484Y-111078810D01*
X185888675Y-111067633D01*
X186175790Y-110875790D01*
X189024447Y-108027132D01*
X189385515Y-107877942D01*
X189676919Y-107587046D01*
X189834820Y-107206777D01*
X189835179Y-106795029D01*
X189677942Y-106414485D01*
X189387046Y-106123081D01*
X189006777Y-105965180D01*
X188595029Y-105964821D01*
X188214485Y-106122058D01*
X187923081Y-106412954D01*
X187772268Y-106776153D01*
X185183420Y-109365000D01*
X183067585Y-109365000D01*
X182706777Y-109215180D01*
X182295029Y-109214821D01*
X181914485Y-109372058D01*
X181623081Y-109662954D01*
X181465180Y-110043223D01*
X181464821Y-110454971D01*
X175550013Y-110454971D01*
X175617570Y-110297175D01*
X174500000Y-109179605D01*
X173382430Y-110297175D01*
X101652479Y-110297175D01*
X101253050Y-109330485D01*
X100175189Y-108250741D01*
X98766175Y-107665667D01*
X97240518Y-107664336D01*
X95830485Y-108246950D01*
X94750741Y-109324811D01*
X94165667Y-110733825D01*
X94164336Y-112259482D01*
X94624329Y-113372749D01*
X93885000Y-112633420D01*
X93885000Y-107460793D01*
X94085515Y-107377942D01*
X94376919Y-107087046D01*
X94534820Y-106706777D01*
X94535034Y-106460838D01*
X172172597Y-106460838D01*
X172526115Y-107316418D01*
X173124580Y-107915929D01*
X172915212Y-108005565D01*
X172655293Y-108687734D01*
X172676214Y-109417443D01*
X172915212Y-109994435D01*
X173202825Y-110117570D01*
X174320395Y-109000000D01*
X174306253Y-108985858D01*
X174485858Y-108806253D01*
X174500000Y-108820395D01*
X174514143Y-108806253D01*
X174693748Y-108985858D01*
X174679605Y-109000000D01*
X175797175Y-110117570D01*
X176084788Y-109994435D01*
X176344707Y-109312266D01*
X176323786Y-108582557D01*
X176084788Y-108005565D01*
X175874759Y-107915646D01*
X176471585Y-107319861D01*
X176826596Y-106464900D01*
X176827403Y-105539162D01*
X176473885Y-104683582D01*
X175819861Y-104028415D01*
X174964900Y-103673404D01*
X174039162Y-103672597D01*
X173183582Y-104026115D01*
X172528415Y-104680139D01*
X172173404Y-105535100D01*
X172172597Y-106460838D01*
X94535034Y-106460838D01*
X94535179Y-106295029D01*
X94377942Y-105914485D01*
X94087046Y-105623081D01*
X93706777Y-105465180D01*
X93295029Y-105464821D01*
X93127000Y-105534249D01*
X93127000Y-104696358D01*
X93302280Y-104521384D01*
X93509763Y-104021708D01*
X93510236Y-103480666D01*
X93303624Y-102980628D01*
X93127000Y-102803695D01*
X93127000Y-101340815D01*
X93212954Y-101426919D01*
X93593223Y-101584820D01*
X93795550Y-101584996D01*
X93876504Y-101665951D01*
X93865180Y-101693223D01*
X93864821Y-102104971D01*
X94022058Y-102485515D01*
X94312954Y-102776919D01*
X94693223Y-102934820D01*
X95104971Y-102935179D01*
X95485515Y-102777942D01*
X95776919Y-102487046D01*
X95934820Y-102106777D01*
X95935179Y-101695029D01*
X95777942Y-101314485D01*
X95487046Y-101023081D01*
X95188604Y-100899158D01*
X94835004Y-100545558D01*
X94835179Y-100345029D01*
X94677942Y-99964485D01*
X94387046Y-99673081D01*
X94006777Y-99515180D01*
X93595029Y-99514821D01*
X93214485Y-99672058D01*
X93127000Y-99759390D01*
X93127000Y-99696358D01*
X93302280Y-99521384D01*
X93509763Y-99021708D01*
X93510236Y-98480666D01*
X93303624Y-97980628D01*
X93127000Y-97803695D01*
X93127000Y-97704971D01*
X99964797Y-97704971D01*
X100122034Y-98085515D01*
X100412930Y-98376919D01*
X100793199Y-98534820D01*
X101204947Y-98535179D01*
X101260603Y-98512183D01*
X105472869Y-102724448D01*
X105622058Y-103085515D01*
X105912954Y-103376919D01*
X106293223Y-103534820D01*
X106704971Y-103535179D01*
X107085515Y-103377942D01*
X107376919Y-103087046D01*
X107534820Y-102706777D01*
X107535179Y-102295029D01*
X107377942Y-101914485D01*
X107087046Y-101623081D01*
X106723847Y-101472268D01*
X102125790Y-96874210D01*
X101838675Y-96682367D01*
X101782484Y-96671190D01*
X101598517Y-96634596D01*
X101587022Y-96623081D01*
X101206753Y-96465180D01*
X100795005Y-96464821D01*
X100414461Y-96622058D01*
X100123057Y-96912954D01*
X99965156Y-97293223D01*
X99964797Y-97704971D01*
X93127000Y-97704971D01*
X93127000Y-89127112D01*
X93520250Y-89127455D01*
X94486132Y-88728361D01*
X95225764Y-87990019D01*
X95626543Y-87024835D01*
X95626633Y-86921230D01*
X96872632Y-86921230D01*
X97195766Y-87703274D01*
X97793578Y-88302131D01*
X98575057Y-88626630D01*
X99421230Y-88627368D01*
X100203274Y-88304234D01*
X100663917Y-87844395D01*
X101026955Y-87772182D01*
X101473686Y-87473686D01*
X102026142Y-86921230D01*
X194872632Y-86921230D01*
X195195766Y-87703274D01*
X195793578Y-88302131D01*
X196575057Y-88626630D01*
X197421230Y-88627368D01*
X198203274Y-88304234D01*
X198802131Y-87706422D01*
X199126630Y-86924943D01*
X199127368Y-86078770D01*
X198804234Y-85296726D01*
X198206422Y-84697869D01*
X197424943Y-84373370D01*
X196578770Y-84372632D01*
X195796726Y-84695766D01*
X195197869Y-85293578D01*
X194873370Y-86075057D01*
X194872632Y-86921230D01*
X102026142Y-86921230D01*
X106752984Y-82194388D01*
X107113846Y-82045283D01*
X107543773Y-81616106D01*
X107776735Y-81055072D01*
X107776955Y-80802407D01*
X124222735Y-80802407D01*
X124454717Y-81363846D01*
X124883894Y-81793773D01*
X125444928Y-82026735D01*
X126052407Y-82027265D01*
X126613846Y-81795283D01*
X127043773Y-81366106D01*
X127194673Y-81002699D01*
X127820372Y-80377000D01*
X133334327Y-80377000D01*
X133694928Y-80526735D01*
X134302407Y-80527265D01*
X134863846Y-80295283D01*
X135293773Y-79866106D01*
X135526735Y-79305072D01*
X135527265Y-78697593D01*
X135295283Y-78136154D01*
X134866106Y-77706227D01*
X134305072Y-77473265D01*
X133697593Y-77472735D01*
X133333924Y-77623000D01*
X127250000Y-77623000D01*
X126723045Y-77727818D01*
X126276314Y-78026314D01*
X125247016Y-79055612D01*
X124886154Y-79204717D01*
X124456227Y-79633894D01*
X124223265Y-80194928D01*
X124222735Y-80802407D01*
X107776955Y-80802407D01*
X107777265Y-80447593D01*
X107545283Y-79886154D01*
X107116106Y-79456227D01*
X106555072Y-79223265D01*
X105947593Y-79222735D01*
X105386154Y-79454717D01*
X104956227Y-79883894D01*
X104805327Y-80247301D01*
X100280526Y-84772102D01*
X100206422Y-84697869D01*
X99424943Y-84373370D01*
X98578770Y-84372632D01*
X97796726Y-84695766D01*
X97197869Y-85293578D01*
X96873370Y-86075057D01*
X96872632Y-86921230D01*
X95626633Y-86921230D01*
X95627455Y-85979750D01*
X95228361Y-85013868D01*
X94490019Y-84274236D01*
X93524835Y-83873457D01*
X93127000Y-83873110D01*
X93127000Y-72704971D01*
X96714821Y-72704971D01*
X96872058Y-73085515D01*
X97162954Y-73376919D01*
X97526152Y-73527731D01*
X98124208Y-74125787D01*
X98124210Y-74125790D01*
X98261662Y-74217632D01*
X98411326Y-74317634D01*
X98750000Y-74385001D01*
X98750005Y-74385000D01*
X102232425Y-74385000D01*
X102593233Y-74534820D01*
X103004981Y-74535179D01*
X103385525Y-74377942D01*
X103587142Y-74176676D01*
X103884859Y-74176936D01*
X104265403Y-74019699D01*
X104556807Y-73728803D01*
X104714708Y-73348534D01*
X104714833Y-73204971D01*
X106964821Y-73204971D01*
X107122058Y-73585515D01*
X107412954Y-73876919D01*
X107778699Y-74028789D01*
X108061324Y-74217632D01*
X108117515Y-74228809D01*
X108399999Y-74285000D01*
X108400004Y-74284999D01*
X115783419Y-74284999D01*
X117124208Y-75625787D01*
X117124210Y-75625790D01*
X117411325Y-75817633D01*
X117750000Y-75885001D01*
X117750005Y-75885000D01*
X118432415Y-75885000D01*
X118793223Y-76034820D01*
X119204971Y-76035179D01*
X119585515Y-75877942D01*
X119876919Y-75587046D01*
X120034820Y-75206777D01*
X120035179Y-74795029D01*
X119877942Y-74414485D01*
X119587046Y-74123081D01*
X119206777Y-73965180D01*
X118795029Y-73964821D01*
X118431567Y-74115000D01*
X118116579Y-74115000D01*
X117956551Y-73954971D01*
X126964821Y-73954971D01*
X127122058Y-74335515D01*
X127412954Y-74626919D01*
X127793223Y-74784820D01*
X128204971Y-74785179D01*
X128568433Y-74635000D01*
X149133420Y-74635000D01*
X150472869Y-75974448D01*
X150622058Y-76335515D01*
X150912954Y-76626919D01*
X151276151Y-76777731D01*
X153222869Y-78724448D01*
X153372058Y-79085515D01*
X153662954Y-79376919D01*
X154043223Y-79534820D01*
X154454971Y-79535179D01*
X154835515Y-79377942D01*
X155126919Y-79087046D01*
X155284820Y-78706777D01*
X155285179Y-78295029D01*
X155127942Y-77914485D01*
X154837046Y-77623081D01*
X154473847Y-77472268D01*
X152527131Y-75525551D01*
X152377942Y-75164485D01*
X152087046Y-74873081D01*
X151723847Y-74722268D01*
X150125790Y-73124210D01*
X150070170Y-73087046D01*
X149838675Y-72932367D01*
X149748777Y-72914485D01*
X149500000Y-72864999D01*
X149499995Y-72865000D01*
X128567585Y-72865000D01*
X128206777Y-72715180D01*
X127795029Y-72714821D01*
X127414485Y-72872058D01*
X127123081Y-73162954D01*
X126965180Y-73543223D01*
X126964821Y-73954971D01*
X117956551Y-73954971D01*
X116775789Y-72774209D01*
X116672166Y-72704971D01*
X116488674Y-72582366D01*
X116419036Y-72568514D01*
X116149999Y-72514998D01*
X116149994Y-72514999D01*
X108919473Y-72514999D01*
X108877942Y-72414485D01*
X108587046Y-72123081D01*
X108206777Y-71965180D01*
X107795029Y-71964821D01*
X107414485Y-72122058D01*
X107123081Y-72412954D01*
X106965180Y-72793223D01*
X106964821Y-73204971D01*
X104714833Y-73204971D01*
X104715067Y-72936786D01*
X104557830Y-72556242D01*
X104266934Y-72264838D01*
X103903735Y-72114025D01*
X103413921Y-71624210D01*
X103371163Y-71595640D01*
X103258435Y-71520318D01*
X103284820Y-71456777D01*
X103285179Y-71045029D01*
X103127942Y-70664485D01*
X102837046Y-70373081D01*
X102653558Y-70296890D01*
X120818524Y-70296890D01*
X120988355Y-70706924D01*
X121378642Y-71135183D01*
X121903108Y-71381486D01*
X122133000Y-71260819D01*
X122133000Y-70067000D01*
X120939845Y-70067000D01*
X120818524Y-70296890D01*
X102653558Y-70296890D01*
X102456777Y-70215180D01*
X102045029Y-70214821D01*
X101664485Y-70372058D01*
X101373081Y-70662954D01*
X101215180Y-71043223D01*
X101214899Y-71365000D01*
X100116575Y-71365000D01*
X99027131Y-70275555D01*
X98877942Y-69914489D01*
X98587046Y-69623085D01*
X98206777Y-69465184D01*
X97795029Y-69464825D01*
X97414485Y-69622062D01*
X97123081Y-69912958D01*
X96965180Y-70293227D01*
X96964821Y-70704975D01*
X97122058Y-71085519D01*
X97412954Y-71376923D01*
X97624804Y-71464891D01*
X97545029Y-71464821D01*
X97164485Y-71622058D01*
X96873081Y-71912954D01*
X96715180Y-72293223D01*
X96714821Y-72704971D01*
X93127000Y-72704971D01*
X93127000Y-68204971D01*
X108964821Y-68204971D01*
X109122058Y-68585515D01*
X109412954Y-68876919D01*
X109793223Y-69034820D01*
X110204971Y-69035179D01*
X110568433Y-68885000D01*
X113199995Y-68885000D01*
X113200000Y-68885001D01*
X113482484Y-68828810D01*
X113538675Y-68817633D01*
X113825790Y-68625790D01*
X114414966Y-68036614D01*
X114414819Y-68204971D01*
X114572056Y-68585515D01*
X114862952Y-68876919D01*
X115226150Y-69027732D01*
X115474207Y-69275788D01*
X115474209Y-69275791D01*
X115757120Y-69464825D01*
X115761324Y-69467634D01*
X116099999Y-69535002D01*
X116100004Y-69535001D01*
X120838450Y-69535001D01*
X120818524Y-69583110D01*
X120939845Y-69813000D01*
X122133000Y-69813000D01*
X122133000Y-69793000D01*
X122387000Y-69793000D01*
X122387000Y-69813000D01*
X122407000Y-69813000D01*
X122407000Y-70067000D01*
X122387000Y-70067000D01*
X122387000Y-71260819D01*
X122616892Y-71381486D01*
X123141358Y-71135183D01*
X123330039Y-70928145D01*
X123351843Y-71037765D01*
X123492191Y-71247809D01*
X123702235Y-71388157D01*
X123950000Y-71437440D01*
X125650000Y-71437440D01*
X125897765Y-71388157D01*
X126107809Y-71247809D01*
X126248157Y-71037765D01*
X126297440Y-70790000D01*
X126297440Y-69204971D01*
X143464821Y-69204971D01*
X143622058Y-69585515D01*
X143912954Y-69876919D01*
X144293223Y-70034820D01*
X144704971Y-70035179D01*
X145085515Y-69877942D01*
X145376919Y-69587046D01*
X145534820Y-69206777D01*
X145535179Y-68795029D01*
X145385000Y-68431567D01*
X145385000Y-68062467D01*
X145410000Y-68067440D01*
X147010000Y-68067440D01*
X147257765Y-68018157D01*
X147467809Y-67877809D01*
X147608157Y-67667765D01*
X147638083Y-67517313D01*
X147735302Y-67662811D01*
X148200849Y-67973880D01*
X148750000Y-68083113D01*
X149299151Y-67973880D01*
X149764698Y-67662811D01*
X149870144Y-67505000D01*
X162097851Y-67505000D01*
X162042191Y-67542191D01*
X161901843Y-67752235D01*
X161852560Y-68000000D01*
X161852560Y-70000000D01*
X161901843Y-70247765D01*
X162042191Y-70457809D01*
X162252235Y-70598157D01*
X162500000Y-70647440D01*
X164500000Y-70647440D01*
X164747765Y-70598157D01*
X164957809Y-70457809D01*
X165098157Y-70247765D01*
X165147440Y-70000000D01*
X165147440Y-68000000D01*
X165098157Y-67752235D01*
X164957809Y-67542191D01*
X164747765Y-67401843D01*
X164500000Y-67352560D01*
X164355673Y-67352560D01*
X164321819Y-67182368D01*
X164317633Y-67161325D01*
X164125790Y-66874210D01*
X164125787Y-66874208D01*
X163245790Y-65994210D01*
X163127243Y-65915000D01*
X162958675Y-65802367D01*
X162873955Y-65785515D01*
X162620000Y-65734999D01*
X162619995Y-65735000D01*
X149870144Y-65735000D01*
X149764698Y-65577189D01*
X149299151Y-65266120D01*
X148750000Y-65156887D01*
X148200849Y-65266120D01*
X147735302Y-65577189D01*
X147638083Y-65722687D01*
X147608157Y-65572235D01*
X147467809Y-65362191D01*
X147257765Y-65221843D01*
X147010000Y-65172560D01*
X146589018Y-65172560D01*
X148876577Y-62885000D01*
X152932415Y-62885000D01*
X153293223Y-63034820D01*
X153704971Y-63035179D01*
X154085515Y-62877942D01*
X154376919Y-62587046D01*
X154534820Y-62206777D01*
X154535179Y-61795029D01*
X154505746Y-61723795D01*
X161864716Y-61723795D01*
X162113106Y-62324943D01*
X162572637Y-62785278D01*
X163173352Y-63034716D01*
X163823795Y-63035284D01*
X164424943Y-62786894D01*
X164737508Y-62474875D01*
X165365000Y-63102366D01*
X165365000Y-71932415D01*
X165215180Y-72293223D01*
X165214821Y-72704971D01*
X165372058Y-73085515D01*
X165662954Y-73376919D01*
X166043223Y-73534820D01*
X166454971Y-73535179D01*
X166835515Y-73377942D01*
X167126919Y-73087046D01*
X167284820Y-72706777D01*
X167285179Y-72295029D01*
X167135000Y-71931567D01*
X167135000Y-62735792D01*
X167135001Y-62735787D01*
X167067633Y-62397112D01*
X167054824Y-62377942D01*
X166875790Y-62109997D01*
X166875787Y-62109995D01*
X165540003Y-60774210D01*
X165479562Y-60733825D01*
X165252888Y-60582367D01*
X165178816Y-60567633D01*
X164914213Y-60514999D01*
X164914208Y-60515000D01*
X164903398Y-60515000D01*
X164886894Y-60475057D01*
X164427363Y-60014722D01*
X163826648Y-59765284D01*
X163176205Y-59764716D01*
X162575057Y-60013106D01*
X162114722Y-60472637D01*
X161865284Y-61073352D01*
X161864716Y-61723795D01*
X154505746Y-61723795D01*
X154377942Y-61414485D01*
X154087046Y-61123081D01*
X153706777Y-60965180D01*
X153295029Y-60964821D01*
X152931567Y-61115000D01*
X148510003Y-61115000D01*
X148509998Y-61114999D01*
X148171324Y-61182366D01*
X148171322Y-61182367D01*
X148171323Y-61182367D01*
X147884208Y-61374210D01*
X147884206Y-61374213D01*
X143874210Y-65384208D01*
X143682367Y-65671323D01*
X143671533Y-65725791D01*
X143614999Y-66009998D01*
X143615000Y-66010003D01*
X143615000Y-68432415D01*
X143465180Y-68793223D01*
X143464821Y-69204971D01*
X126297440Y-69204971D01*
X126297440Y-69090000D01*
X126283195Y-69018386D01*
X126416580Y-68885001D01*
X131182416Y-68885000D01*
X131543223Y-69034820D01*
X131954971Y-69035179D01*
X132335515Y-68877942D01*
X132626919Y-68587046D01*
X132784820Y-68206777D01*
X132785179Y-67795029D01*
X132627942Y-67414485D01*
X132337046Y-67123081D01*
X131956777Y-66965180D01*
X131545029Y-66964821D01*
X131181566Y-67115000D01*
X126257403Y-67115001D01*
X126201054Y-66831715D01*
X125879147Y-66349946D01*
X125549974Y-66130000D01*
X125879147Y-65910054D01*
X126201054Y-65428285D01*
X126314093Y-64860000D01*
X126201054Y-64291715D01*
X125879147Y-63809946D01*
X125397378Y-63488039D01*
X124829093Y-63375000D01*
X124770907Y-63375000D01*
X124202622Y-63488039D01*
X123720853Y-63809946D01*
X123530000Y-64095578D01*
X123339147Y-63809946D01*
X122857378Y-63488039D01*
X122289093Y-63375000D01*
X122230907Y-63375000D01*
X121662622Y-63488039D01*
X121180853Y-63809946D01*
X120858946Y-64291715D01*
X120810496Y-64535291D01*
X120685000Y-64231567D01*
X120685000Y-61767585D01*
X120834820Y-61406777D01*
X120835179Y-60995029D01*
X120677942Y-60614485D01*
X120387046Y-60323081D01*
X120006777Y-60165180D01*
X119595029Y-60164821D01*
X119214485Y-60322058D01*
X118923081Y-60612954D01*
X118765180Y-60993223D01*
X118764821Y-61404971D01*
X118915000Y-61768433D01*
X118915000Y-64232415D01*
X118765180Y-64593223D01*
X118764821Y-65004971D01*
X118922058Y-65385515D01*
X119212954Y-65676919D01*
X119593223Y-65834820D01*
X120004971Y-65835179D01*
X120385515Y-65677942D01*
X120676919Y-65387046D01*
X120794444Y-65104013D01*
X120858946Y-65428285D01*
X121180853Y-65910054D01*
X121510026Y-66130000D01*
X121180853Y-66349946D01*
X120858946Y-66831715D01*
X120745907Y-67400000D01*
X120818510Y-67765001D01*
X116472770Y-67765001D01*
X116327940Y-67414485D01*
X116037044Y-67123081D01*
X115656775Y-66965180D01*
X115486548Y-66965032D01*
X117025788Y-65425791D01*
X117025791Y-65425789D01*
X117217634Y-65138674D01*
X117243870Y-65006777D01*
X117285002Y-64799999D01*
X117285001Y-64799994D01*
X117285001Y-63519473D01*
X117385515Y-63477942D01*
X117676919Y-63187046D01*
X117834820Y-62806777D01*
X117835179Y-62395029D01*
X117677942Y-62014485D01*
X117387046Y-61723081D01*
X117006777Y-61565180D01*
X116595029Y-61564821D01*
X116214485Y-61722058D01*
X115923081Y-62012954D01*
X115771211Y-62378699D01*
X115582368Y-62661324D01*
X115582368Y-62661325D01*
X115515000Y-62999999D01*
X115515001Y-63000004D01*
X115515001Y-64433420D01*
X112833420Y-67115000D01*
X110567585Y-67115000D01*
X110206777Y-66965180D01*
X109795029Y-66964821D01*
X109414485Y-67122058D01*
X109123081Y-67412954D01*
X108965180Y-67793223D01*
X108964821Y-68204971D01*
X93127000Y-68204971D01*
X93127000Y-61512509D01*
X93500234Y-59636136D01*
X94556028Y-58056028D01*
X96136136Y-57000234D01*
X98012509Y-56627000D01*
X106621421Y-56627000D01*
X101835077Y-61413343D01*
M02*
