G04 #@! TF.GenerationSoftware,KiCad,Pcbnew,(2017-07-16 revision e797af331)-makepkg*
G04 #@! TF.CreationDate,2018-05-04T01:25:42+02:00*
G04 #@! TF.ProjectId,BRNG,42524E472E6B696361645F7063620000,First release*
G04 #@! TF.SameCoordinates,Original
G04 #@! TF.FileFunction,Legend,Bot*
G04 #@! TF.FilePolarity,Positive*
%FSLAX46Y46*%
G04 Gerber Fmt 4.6, Leading zero omitted, Abs format (unit mm)*
G04 Created by KiCad (PCBNEW (2017-07-16 revision e797af331)-makepkg) date 05/04/18 01:25:42*
%MOMM*%
%LPD*%
G01*
G04 APERTURE LIST*
%ADD10C,0.300000*%
%ADD11C,0.010000*%
G04 APERTURE END LIST*
D10*
X153250000Y-112678571D02*
X152464285Y-111678571D01*
X153250000Y-111678571D02*
X152464285Y-112678571D01*
X151892857Y-112678571D02*
X151892857Y-111178571D01*
X151750000Y-112107142D02*
X151321428Y-112678571D01*
X151321428Y-111678571D02*
X151892857Y-112250000D01*
X150035714Y-112607142D02*
X150178571Y-112678571D01*
X150464285Y-112678571D01*
X150607142Y-112607142D01*
X150678571Y-112535714D01*
X150750000Y-112392857D01*
X150750000Y-111964285D01*
X150678571Y-111821428D01*
X150607142Y-111750000D01*
X150464285Y-111678571D01*
X150178571Y-111678571D01*
X150035714Y-111750000D01*
X148750000Y-112678571D02*
X148750000Y-111178571D01*
X148750000Y-112607142D02*
X148892857Y-112678571D01*
X149178571Y-112678571D01*
X149321428Y-112607142D01*
X149392857Y-112535714D01*
X149464285Y-112392857D01*
X149464285Y-111964285D01*
X149392857Y-111821428D01*
X149321428Y-111750000D01*
X149178571Y-111678571D01*
X148892857Y-111678571D01*
X148750000Y-111750000D01*
X146964285Y-111107142D02*
X148250000Y-113035714D01*
X146535714Y-111321428D02*
X146464285Y-111250000D01*
X146321428Y-111178571D01*
X145964285Y-111178571D01*
X145821428Y-111250000D01*
X145750000Y-111321428D01*
X145678571Y-111464285D01*
X145678571Y-111607142D01*
X145750000Y-111821428D01*
X146607142Y-112678571D01*
X145678571Y-112678571D01*
X145107142Y-111321428D02*
X145035714Y-111250000D01*
X144892857Y-111178571D01*
X144535714Y-111178571D01*
X144392857Y-111250000D01*
X144321428Y-111321428D01*
X144250000Y-111464285D01*
X144250000Y-111607142D01*
X144321428Y-111821428D01*
X145178571Y-112678571D01*
X144250000Y-112678571D01*
X142821428Y-112678571D02*
X143678571Y-112678571D01*
X143250000Y-112678571D02*
X143250000Y-111178571D01*
X143392857Y-111392857D01*
X143535714Y-111535714D01*
X143678571Y-111607142D01*
D11*
G36*
X181954880Y-77974902D02*
X181855091Y-78067885D01*
X181861992Y-78188904D01*
X181875567Y-78207571D01*
X181985031Y-78305159D01*
X182029200Y-78318845D01*
X182148554Y-78291161D01*
X182230500Y-78270304D01*
X182364232Y-78191954D01*
X182334465Y-78071071D01*
X182257079Y-77994492D01*
X182106996Y-77940317D01*
X181954880Y-77974902D01*
X181954880Y-77974902D01*
G37*
X181954880Y-77974902D02*
X181855091Y-78067885D01*
X181861992Y-78188904D01*
X181875567Y-78207571D01*
X181985031Y-78305159D01*
X182029200Y-78318845D01*
X182148554Y-78291161D01*
X182230500Y-78270304D01*
X182364232Y-78191954D01*
X182334465Y-78071071D01*
X182257079Y-77994492D01*
X182106996Y-77940317D01*
X181954880Y-77974902D01*
G36*
X151117244Y-78585494D02*
X151035827Y-78711352D01*
X150930180Y-78861994D01*
X150762434Y-78908598D01*
X150656990Y-78905737D01*
X150438119Y-78916819D01*
X150292837Y-78969597D01*
X150288673Y-78973460D01*
X150245351Y-79094607D01*
X150208641Y-79337546D01*
X150185214Y-79654732D01*
X150182492Y-79730191D01*
X150178278Y-80076006D01*
X150193839Y-80285739D01*
X150234412Y-80392016D01*
X150294129Y-80425710D01*
X150444604Y-80415490D01*
X150484629Y-80391816D01*
X150521160Y-80277099D01*
X150542079Y-80059935D01*
X150544000Y-79965556D01*
X150561423Y-79743279D01*
X150605330Y-79612929D01*
X150628667Y-79598667D01*
X150693794Y-79670701D01*
X150713333Y-79797211D01*
X150774223Y-80005131D01*
X150880902Y-80147403D01*
X150988051Y-80229423D01*
X151058163Y-80223464D01*
X151105986Y-80106029D01*
X151146269Y-79853620D01*
X151165348Y-79694248D01*
X151230706Y-79369786D01*
X151335695Y-79206113D01*
X151484110Y-79198523D01*
X151541164Y-79228145D01*
X151653013Y-79382143D01*
X151713674Y-79641027D01*
X151714419Y-79649575D01*
X151764858Y-79890721D01*
X151857806Y-80093853D01*
X151967145Y-80218127D01*
X152066756Y-80222695D01*
X152075651Y-80214501D01*
X152136949Y-80052246D01*
X152164103Y-79738558D01*
X152162039Y-79440539D01*
X152110321Y-79203764D01*
X151952711Y-78964663D01*
X151823961Y-78826706D01*
X151532591Y-78587269D01*
X151296772Y-78506829D01*
X151117244Y-78585494D01*
X151117244Y-78585494D01*
G37*
X151117244Y-78585494D02*
X151035827Y-78711352D01*
X150930180Y-78861994D01*
X150762434Y-78908598D01*
X150656990Y-78905737D01*
X150438119Y-78916819D01*
X150292837Y-78969597D01*
X150288673Y-78973460D01*
X150245351Y-79094607D01*
X150208641Y-79337546D01*
X150185214Y-79654732D01*
X150182492Y-79730191D01*
X150178278Y-80076006D01*
X150193839Y-80285739D01*
X150234412Y-80392016D01*
X150294129Y-80425710D01*
X150444604Y-80415490D01*
X150484629Y-80391816D01*
X150521160Y-80277099D01*
X150542079Y-80059935D01*
X150544000Y-79965556D01*
X150561423Y-79743279D01*
X150605330Y-79612929D01*
X150628667Y-79598667D01*
X150693794Y-79670701D01*
X150713333Y-79797211D01*
X150774223Y-80005131D01*
X150880902Y-80147403D01*
X150988051Y-80229423D01*
X151058163Y-80223464D01*
X151105986Y-80106029D01*
X151146269Y-79853620D01*
X151165348Y-79694248D01*
X151230706Y-79369786D01*
X151335695Y-79206113D01*
X151484110Y-79198523D01*
X151541164Y-79228145D01*
X151653013Y-79382143D01*
X151713674Y-79641027D01*
X151714419Y-79649575D01*
X151764858Y-79890721D01*
X151857806Y-80093853D01*
X151967145Y-80218127D01*
X152066756Y-80222695D01*
X152075651Y-80214501D01*
X152136949Y-80052246D01*
X152164103Y-79738558D01*
X152162039Y-79440539D01*
X152110321Y-79203764D01*
X151952711Y-78964663D01*
X151823961Y-78826706D01*
X151532591Y-78587269D01*
X151296772Y-78506829D01*
X151117244Y-78585494D01*
G36*
X163060711Y-78724971D02*
X162822387Y-78868051D01*
X162601702Y-79051827D01*
X162458174Y-79231551D01*
X162437588Y-79283525D01*
X162419131Y-79479160D01*
X162422572Y-79783005D01*
X162445968Y-80135624D01*
X162473472Y-80381834D01*
X162551985Y-80434703D01*
X162641470Y-80445334D01*
X162729450Y-80422248D01*
X162783944Y-80329042D01*
X162817460Y-80129788D01*
X162836635Y-79884764D01*
X162890333Y-79487125D01*
X162995406Y-79242335D01*
X163159058Y-79139773D01*
X163333528Y-79152073D01*
X163444333Y-79210803D01*
X163525260Y-79337544D01*
X163583791Y-79558728D01*
X163627412Y-79900787D01*
X163657768Y-80297167D01*
X163691734Y-80434763D01*
X163757959Y-80421544D01*
X163845011Y-80270293D01*
X163941459Y-79993797D01*
X163947353Y-79973300D01*
X164026961Y-79590910D01*
X164015791Y-79330525D01*
X164008773Y-79309626D01*
X163886495Y-79116177D01*
X163687975Y-78913800D01*
X163467896Y-78749222D01*
X163280942Y-78669176D01*
X163257158Y-78667334D01*
X163060711Y-78724971D01*
X163060711Y-78724971D01*
G37*
X163060711Y-78724971D02*
X162822387Y-78868051D01*
X162601702Y-79051827D01*
X162458174Y-79231551D01*
X162437588Y-79283525D01*
X162419131Y-79479160D01*
X162422572Y-79783005D01*
X162445968Y-80135624D01*
X162473472Y-80381834D01*
X162551985Y-80434703D01*
X162641470Y-80445334D01*
X162729450Y-80422248D01*
X162783944Y-80329042D01*
X162817460Y-80129788D01*
X162836635Y-79884764D01*
X162890333Y-79487125D01*
X162995406Y-79242335D01*
X163159058Y-79139773D01*
X163333528Y-79152073D01*
X163444333Y-79210803D01*
X163525260Y-79337544D01*
X163583791Y-79558728D01*
X163627412Y-79900787D01*
X163657768Y-80297167D01*
X163691734Y-80434763D01*
X163757959Y-80421544D01*
X163845011Y-80270293D01*
X163941459Y-79993797D01*
X163947353Y-79973300D01*
X164026961Y-79590910D01*
X164015791Y-79330525D01*
X164008773Y-79309626D01*
X163886495Y-79116177D01*
X163687975Y-78913800D01*
X163467896Y-78749222D01*
X163280942Y-78669176D01*
X163257158Y-78667334D01*
X163060711Y-78724971D01*
G36*
X182065458Y-78954253D02*
X182008698Y-79111834D01*
X181974871Y-79334082D01*
X181959219Y-79635670D01*
X181961855Y-79948853D01*
X181982890Y-80205892D01*
X182006725Y-80311409D01*
X182082368Y-80443685D01*
X182142391Y-80414141D01*
X182184543Y-80229761D01*
X182206570Y-79897530D01*
X182209333Y-79683334D01*
X182198511Y-79297271D01*
X182168484Y-79040119D01*
X182122912Y-78922303D01*
X182065458Y-78954253D01*
X182065458Y-78954253D01*
G37*
X182065458Y-78954253D02*
X182008698Y-79111834D01*
X181974871Y-79334082D01*
X181959219Y-79635670D01*
X181961855Y-79948853D01*
X181982890Y-80205892D01*
X182006725Y-80311409D01*
X182082368Y-80443685D01*
X182142391Y-80414141D01*
X182184543Y-80229761D01*
X182206570Y-79897530D01*
X182209333Y-79683334D01*
X182198511Y-79297271D01*
X182168484Y-79040119D01*
X182122912Y-78922303D01*
X182065458Y-78954253D01*
G36*
X145320069Y-78882701D02*
X145122590Y-78900362D01*
X145021548Y-78941825D01*
X144980521Y-79016930D01*
X144972231Y-79062228D01*
X145016765Y-79229866D01*
X145189272Y-79319675D01*
X145461585Y-79319359D01*
X145531050Y-79306203D01*
X145808565Y-79311960D01*
X146002155Y-79459722D01*
X146098591Y-79737620D01*
X146105778Y-79821677D01*
X146122336Y-80135997D01*
X146142458Y-80320807D01*
X146175673Y-80415829D01*
X146231507Y-80460781D01*
X146262143Y-80473576D01*
X146415431Y-80458890D01*
X146463617Y-80419134D01*
X146505720Y-80276818D01*
X146524275Y-80022975D01*
X146521610Y-79712366D01*
X146500055Y-79399754D01*
X146461937Y-79139902D01*
X146409586Y-78987571D01*
X146402372Y-78979030D01*
X146263567Y-78925787D01*
X145993324Y-78890800D01*
X145650408Y-78879000D01*
X145320069Y-78882701D01*
X145320069Y-78882701D01*
G37*
X145320069Y-78882701D02*
X145122590Y-78900362D01*
X145021548Y-78941825D01*
X144980521Y-79016930D01*
X144972231Y-79062228D01*
X145016765Y-79229866D01*
X145189272Y-79319675D01*
X145461585Y-79319359D01*
X145531050Y-79306203D01*
X145808565Y-79311960D01*
X146002155Y-79459722D01*
X146098591Y-79737620D01*
X146105778Y-79821677D01*
X146122336Y-80135997D01*
X146142458Y-80320807D01*
X146175673Y-80415829D01*
X146231507Y-80460781D01*
X146262143Y-80473576D01*
X146415431Y-80458890D01*
X146463617Y-80419134D01*
X146505720Y-80276818D01*
X146524275Y-80022975D01*
X146521610Y-79712366D01*
X146500055Y-79399754D01*
X146461937Y-79139902D01*
X146409586Y-78987571D01*
X146402372Y-78979030D01*
X146263567Y-78925787D01*
X145993324Y-78890800D01*
X145650408Y-78879000D01*
X145320069Y-78882701D01*
G36*
X165247509Y-78732750D02*
X164975091Y-78922781D01*
X164703602Y-79229107D01*
X164458337Y-79628404D01*
X164320799Y-79952490D01*
X164301387Y-80156283D01*
X164400289Y-80241003D01*
X164550930Y-80227458D01*
X164807637Y-80242766D01*
X165010359Y-80352378D01*
X165336071Y-80506111D01*
X165642131Y-80495195D01*
X165914849Y-80322182D01*
X166073012Y-80063940D01*
X166129772Y-79743026D01*
X166112628Y-79569456D01*
X165868667Y-79569456D01*
X165805297Y-79805010D01*
X165646399Y-79985853D01*
X165438787Y-80084614D01*
X165229274Y-80073924D01*
X165123600Y-80005067D01*
X165035498Y-79817996D01*
X165040978Y-79576548D01*
X165121582Y-79337230D01*
X165258849Y-79156549D01*
X165422301Y-79090667D01*
X165628817Y-79164246D01*
X165797119Y-79343094D01*
X165868626Y-79564375D01*
X165868667Y-79569456D01*
X166112628Y-79569456D01*
X166096141Y-79402547D01*
X165983132Y-79085611D01*
X165801760Y-78835326D01*
X165563035Y-78694799D01*
X165495791Y-78681882D01*
X165247509Y-78732750D01*
X165247509Y-78732750D01*
G37*
X165247509Y-78732750D02*
X164975091Y-78922781D01*
X164703602Y-79229107D01*
X164458337Y-79628404D01*
X164320799Y-79952490D01*
X164301387Y-80156283D01*
X164400289Y-80241003D01*
X164550930Y-80227458D01*
X164807637Y-80242766D01*
X165010359Y-80352378D01*
X165336071Y-80506111D01*
X165642131Y-80495195D01*
X165914849Y-80322182D01*
X166073012Y-80063940D01*
X166129772Y-79743026D01*
X166112628Y-79569456D01*
X165868667Y-79569456D01*
X165805297Y-79805010D01*
X165646399Y-79985853D01*
X165438787Y-80084614D01*
X165229274Y-80073924D01*
X165123600Y-80005067D01*
X165035498Y-79817996D01*
X165040978Y-79576548D01*
X165121582Y-79337230D01*
X165258849Y-79156549D01*
X165422301Y-79090667D01*
X165628817Y-79164246D01*
X165797119Y-79343094D01*
X165868626Y-79564375D01*
X165868667Y-79569456D01*
X166112628Y-79569456D01*
X166096141Y-79402547D01*
X165983132Y-79085611D01*
X165801760Y-78835326D01*
X165563035Y-78694799D01*
X165495791Y-78681882D01*
X165247509Y-78732750D01*
G36*
X178043239Y-77296228D02*
X177987599Y-77403462D01*
X177996950Y-77582009D01*
X178043239Y-77780043D01*
X178115595Y-78070486D01*
X178128994Y-78244370D01*
X178070179Y-78348190D01*
X177925889Y-78428438D01*
X177849000Y-78461123D01*
X177657560Y-78561691D01*
X177557082Y-78654625D01*
X177552667Y-78671325D01*
X177619211Y-78764978D01*
X177785198Y-78892878D01*
X177849000Y-78932552D01*
X178073562Y-79127397D01*
X178145280Y-79366325D01*
X178066255Y-79664918D01*
X177971421Y-79840556D01*
X177827610Y-80031072D01*
X177686411Y-80093573D01*
X177596211Y-80086176D01*
X177393720Y-80084240D01*
X177282974Y-80121174D01*
X177232741Y-80198780D01*
X177312067Y-80309928D01*
X177371547Y-80362387D01*
X177633041Y-80496374D01*
X177924325Y-80522175D01*
X178136344Y-80452681D01*
X178271497Y-80291198D01*
X178390534Y-80018689D01*
X178473857Y-79693426D01*
X178501866Y-79373681D01*
X178501693Y-79366447D01*
X178508249Y-79133818D01*
X178561781Y-79015567D01*
X178688097Y-78958066D01*
X178699651Y-78955101D01*
X178870931Y-78865650D01*
X178886452Y-78740167D01*
X178747911Y-78604926D01*
X178674500Y-78565392D01*
X178543250Y-78485231D01*
X178466502Y-78370489D01*
X178423266Y-78172690D01*
X178399333Y-77929940D01*
X178346302Y-77554468D01*
X178262287Y-77321428D01*
X178152448Y-77239997D01*
X178043239Y-77296228D01*
X178043239Y-77296228D01*
G37*
X178043239Y-77296228D02*
X177987599Y-77403462D01*
X177996950Y-77582009D01*
X178043239Y-77780043D01*
X178115595Y-78070486D01*
X178128994Y-78244370D01*
X178070179Y-78348190D01*
X177925889Y-78428438D01*
X177849000Y-78461123D01*
X177657560Y-78561691D01*
X177557082Y-78654625D01*
X177552667Y-78671325D01*
X177619211Y-78764978D01*
X177785198Y-78892878D01*
X177849000Y-78932552D01*
X178073562Y-79127397D01*
X178145280Y-79366325D01*
X178066255Y-79664918D01*
X177971421Y-79840556D01*
X177827610Y-80031072D01*
X177686411Y-80093573D01*
X177596211Y-80086176D01*
X177393720Y-80084240D01*
X177282974Y-80121174D01*
X177232741Y-80198780D01*
X177312067Y-80309928D01*
X177371547Y-80362387D01*
X177633041Y-80496374D01*
X177924325Y-80522175D01*
X178136344Y-80452681D01*
X178271497Y-80291198D01*
X178390534Y-80018689D01*
X178473857Y-79693426D01*
X178501866Y-79373681D01*
X178501693Y-79366447D01*
X178508249Y-79133818D01*
X178561781Y-79015567D01*
X178688097Y-78958066D01*
X178699651Y-78955101D01*
X178870931Y-78865650D01*
X178886452Y-78740167D01*
X178747911Y-78604926D01*
X178674500Y-78565392D01*
X178543250Y-78485231D01*
X178466502Y-78370489D01*
X178423266Y-78172690D01*
X178399333Y-77929940D01*
X178346302Y-77554468D01*
X178262287Y-77321428D01*
X178152448Y-77239997D01*
X178043239Y-77296228D01*
G36*
X149427858Y-77503882D02*
X149379323Y-77595304D01*
X149360718Y-77794934D01*
X149358667Y-77973067D01*
X149337935Y-78321918D01*
X149262010Y-78534348D01*
X149110294Y-78639699D01*
X148871306Y-78667334D01*
X148694723Y-78683438D01*
X148577037Y-78758697D01*
X148471476Y-78933526D01*
X148411312Y-79064832D01*
X148322625Y-79264918D01*
X148255139Y-79368170D01*
X148180771Y-79365941D01*
X148071437Y-79249582D01*
X148021588Y-79180429D01*
X147527951Y-79180429D01*
X147523394Y-79310736D01*
X147446999Y-79389031D01*
X147390535Y-79357735D01*
X147349140Y-79225830D01*
X147365294Y-79181330D01*
X147457220Y-79120770D01*
X147527951Y-79180429D01*
X148021588Y-79180429D01*
X147899053Y-79010444D01*
X147806146Y-78878461D01*
X147673226Y-78733949D01*
X147507409Y-78680491D01*
X147304099Y-78683991D01*
X147103446Y-78706121D01*
X146989331Y-78763234D01*
X146920964Y-78898658D01*
X146857557Y-79155719D01*
X146856793Y-79159126D01*
X146809500Y-79498294D01*
X146859946Y-79712402D01*
X147021523Y-79823220D01*
X147283456Y-79852667D01*
X147570250Y-79874185D01*
X147749999Y-79931991D01*
X147794115Y-80015965D01*
X147786850Y-80030872D01*
X147674301Y-80090558D01*
X147543704Y-80106667D01*
X147328479Y-80164591D01*
X147205299Y-80308664D01*
X147207264Y-80476935D01*
X147276690Y-80570727D01*
X147412390Y-80599972D01*
X147651902Y-80567997D01*
X147818220Y-80531062D01*
X148099618Y-80404888D01*
X148288068Y-80202761D01*
X148342656Y-80022000D01*
X148384935Y-79986323D01*
X148496017Y-80094750D01*
X148526560Y-80134445D01*
X148788457Y-80389444D01*
X149061604Y-80489124D01*
X149321563Y-80433882D01*
X149543899Y-80224111D01*
X149606937Y-80116958D01*
X149664135Y-79973954D01*
X149440835Y-79973954D01*
X149377068Y-80062433D01*
X149213766Y-80055345D01*
X149210500Y-80054575D01*
X148978913Y-79965959D01*
X148829500Y-79870506D01*
X148709678Y-79686805D01*
X148678418Y-79462839D01*
X148727242Y-79254153D01*
X148847671Y-79116292D01*
X148948531Y-79090667D01*
X149102953Y-79168835D01*
X149256474Y-79408123D01*
X149276280Y-79450500D01*
X149406697Y-79774958D01*
X149440835Y-79973954D01*
X149664135Y-79973954D01*
X149679294Y-79936057D01*
X149728142Y-79705990D01*
X149758126Y-79390439D01*
X149773892Y-78953085D01*
X149776568Y-78790842D01*
X149779031Y-78287472D01*
X149767655Y-77929638D01*
X149737805Y-77693796D01*
X149684847Y-77556399D01*
X149604146Y-77493901D01*
X149518942Y-77482000D01*
X149427858Y-77503882D01*
X149427858Y-77503882D01*
G37*
X149427858Y-77503882D02*
X149379323Y-77595304D01*
X149360718Y-77794934D01*
X149358667Y-77973067D01*
X149337935Y-78321918D01*
X149262010Y-78534348D01*
X149110294Y-78639699D01*
X148871306Y-78667334D01*
X148694723Y-78683438D01*
X148577037Y-78758697D01*
X148471476Y-78933526D01*
X148411312Y-79064832D01*
X148322625Y-79264918D01*
X148255139Y-79368170D01*
X148180771Y-79365941D01*
X148071437Y-79249582D01*
X148021588Y-79180429D01*
X147527951Y-79180429D01*
X147523394Y-79310736D01*
X147446999Y-79389031D01*
X147390535Y-79357735D01*
X147349140Y-79225830D01*
X147365294Y-79181330D01*
X147457220Y-79120770D01*
X147527951Y-79180429D01*
X148021588Y-79180429D01*
X147899053Y-79010444D01*
X147806146Y-78878461D01*
X147673226Y-78733949D01*
X147507409Y-78680491D01*
X147304099Y-78683991D01*
X147103446Y-78706121D01*
X146989331Y-78763234D01*
X146920964Y-78898658D01*
X146857557Y-79155719D01*
X146856793Y-79159126D01*
X146809500Y-79498294D01*
X146859946Y-79712402D01*
X147021523Y-79823220D01*
X147283456Y-79852667D01*
X147570250Y-79874185D01*
X147749999Y-79931991D01*
X147794115Y-80015965D01*
X147786850Y-80030872D01*
X147674301Y-80090558D01*
X147543704Y-80106667D01*
X147328479Y-80164591D01*
X147205299Y-80308664D01*
X147207264Y-80476935D01*
X147276690Y-80570727D01*
X147412390Y-80599972D01*
X147651902Y-80567997D01*
X147818220Y-80531062D01*
X148099618Y-80404888D01*
X148288068Y-80202761D01*
X148342656Y-80022000D01*
X148384935Y-79986323D01*
X148496017Y-80094750D01*
X148526560Y-80134445D01*
X148788457Y-80389444D01*
X149061604Y-80489124D01*
X149321563Y-80433882D01*
X149543899Y-80224111D01*
X149606937Y-80116958D01*
X149664135Y-79973954D01*
X149440835Y-79973954D01*
X149377068Y-80062433D01*
X149213766Y-80055345D01*
X149210500Y-80054575D01*
X148978913Y-79965959D01*
X148829500Y-79870506D01*
X148709678Y-79686805D01*
X148678418Y-79462839D01*
X148727242Y-79254153D01*
X148847671Y-79116292D01*
X148948531Y-79090667D01*
X149102953Y-79168835D01*
X149256474Y-79408123D01*
X149276280Y-79450500D01*
X149406697Y-79774958D01*
X149440835Y-79973954D01*
X149664135Y-79973954D01*
X149679294Y-79936057D01*
X149728142Y-79705990D01*
X149758126Y-79390439D01*
X149773892Y-78953085D01*
X149776568Y-78790842D01*
X149779031Y-78287472D01*
X149767655Y-77929638D01*
X149737805Y-77693796D01*
X149684847Y-77556399D01*
X149604146Y-77493901D01*
X149518942Y-77482000D01*
X149427858Y-77503882D01*
G36*
X153586037Y-78754308D02*
X153568304Y-78934764D01*
X153552578Y-79255417D01*
X153550310Y-79305061D01*
X153510033Y-79610320D01*
X153428486Y-79896693D01*
X153323161Y-80122709D01*
X153211554Y-80246897D01*
X153149404Y-80255468D01*
X153053479Y-80150062D01*
X152952436Y-79924188D01*
X152862410Y-79625370D01*
X152799535Y-79301135D01*
X152786607Y-79186809D01*
X152746571Y-78896754D01*
X152687196Y-78765970D01*
X152601395Y-78784836D01*
X152541424Y-78854073D01*
X152479441Y-79036021D01*
X152485908Y-79336392D01*
X152499832Y-79446607D01*
X152537541Y-79731839D01*
X152563494Y-79965911D01*
X152569819Y-80049680D01*
X152649160Y-80255176D01*
X152835569Y-80463262D01*
X153074225Y-80626869D01*
X153310309Y-80698932D01*
X153326491Y-80699334D01*
X153524077Y-80674372D01*
X153633349Y-80616260D01*
X153687133Y-80495652D01*
X153773207Y-80269494D01*
X153848256Y-80057777D01*
X153959273Y-79579860D01*
X153944958Y-79172669D01*
X153806859Y-78857094D01*
X153754860Y-78796685D01*
X153668957Y-78711011D01*
X153616135Y-78688304D01*
X153586037Y-78754308D01*
X153586037Y-78754308D01*
G37*
X153586037Y-78754308D02*
X153568304Y-78934764D01*
X153552578Y-79255417D01*
X153550310Y-79305061D01*
X153510033Y-79610320D01*
X153428486Y-79896693D01*
X153323161Y-80122709D01*
X153211554Y-80246897D01*
X153149404Y-80255468D01*
X153053479Y-80150062D01*
X152952436Y-79924188D01*
X152862410Y-79625370D01*
X152799535Y-79301135D01*
X152786607Y-79186809D01*
X152746571Y-78896754D01*
X152687196Y-78765970D01*
X152601395Y-78784836D01*
X152541424Y-78854073D01*
X152479441Y-79036021D01*
X152485908Y-79336392D01*
X152499832Y-79446607D01*
X152537541Y-79731839D01*
X152563494Y-79965911D01*
X152569819Y-80049680D01*
X152649160Y-80255176D01*
X152835569Y-80463262D01*
X153074225Y-80626869D01*
X153310309Y-80698932D01*
X153326491Y-80699334D01*
X153524077Y-80674372D01*
X153633349Y-80616260D01*
X153687133Y-80495652D01*
X153773207Y-80269494D01*
X153848256Y-80057777D01*
X153959273Y-79579860D01*
X153944958Y-79172669D01*
X153806859Y-78857094D01*
X153754860Y-78796685D01*
X153668957Y-78711011D01*
X153616135Y-78688304D01*
X153586037Y-78754308D01*
G36*
X180228448Y-78724899D02*
X180008106Y-78794298D01*
X179801500Y-78865991D01*
X179670972Y-78939486D01*
X179600437Y-79051525D01*
X179573807Y-79238852D01*
X179574996Y-79538210D01*
X179581803Y-79768000D01*
X179615485Y-80121862D01*
X179685777Y-80410508D01*
X179780611Y-80602947D01*
X179887919Y-80668183D01*
X179927053Y-80654701D01*
X179990798Y-80528870D01*
X180003384Y-80302482D01*
X179965405Y-80036210D01*
X179919510Y-79884944D01*
X179877799Y-79598274D01*
X179927262Y-79419849D01*
X180061873Y-79201139D01*
X180224660Y-79145665D01*
X180427956Y-79251737D01*
X180522627Y-79338268D01*
X180679946Y-79527112D01*
X180752701Y-79727606D01*
X180770000Y-80008563D01*
X180779917Y-80283400D01*
X180805088Y-80500978D01*
X180821392Y-80565409D01*
X180927321Y-80678286D01*
X181067962Y-80690893D01*
X181138098Y-80635543D01*
X181173754Y-80494152D01*
X181195918Y-80240058D01*
X181204937Y-79921987D01*
X181201160Y-79588664D01*
X181184935Y-79288815D01*
X181156610Y-79071166D01*
X181126331Y-78989798D01*
X181040650Y-78934220D01*
X181024000Y-78953639D01*
X180961246Y-78955463D01*
X180803626Y-78881399D01*
X180727773Y-78836733D01*
X180545514Y-78732886D01*
X180402446Y-78696986D01*
X180228448Y-78724899D01*
X180228448Y-78724899D01*
G37*
X180228448Y-78724899D02*
X180008106Y-78794298D01*
X179801500Y-78865991D01*
X179670972Y-78939486D01*
X179600437Y-79051525D01*
X179573807Y-79238852D01*
X179574996Y-79538210D01*
X179581803Y-79768000D01*
X179615485Y-80121862D01*
X179685777Y-80410508D01*
X179780611Y-80602947D01*
X179887919Y-80668183D01*
X179927053Y-80654701D01*
X179990798Y-80528870D01*
X180003384Y-80302482D01*
X179965405Y-80036210D01*
X179919510Y-79884944D01*
X179877799Y-79598274D01*
X179927262Y-79419849D01*
X180061873Y-79201139D01*
X180224660Y-79145665D01*
X180427956Y-79251737D01*
X180522627Y-79338268D01*
X180679946Y-79527112D01*
X180752701Y-79727606D01*
X180770000Y-80008563D01*
X180779917Y-80283400D01*
X180805088Y-80500978D01*
X180821392Y-80565409D01*
X180927321Y-80678286D01*
X181067962Y-80690893D01*
X181138098Y-80635543D01*
X181173754Y-80494152D01*
X181195918Y-80240058D01*
X181204937Y-79921987D01*
X181201160Y-79588664D01*
X181184935Y-79288815D01*
X181156610Y-79071166D01*
X181126331Y-78989798D01*
X181040650Y-78934220D01*
X181024000Y-78953639D01*
X180961246Y-78955463D01*
X180803626Y-78881399D01*
X180727773Y-78836733D01*
X180545514Y-78732886D01*
X180402446Y-78696986D01*
X180228448Y-78724899D01*
G36*
X170023087Y-77690111D02*
X169957090Y-77824429D01*
X169942560Y-78103508D01*
X169946743Y-78185785D01*
X169956422Y-78442173D01*
X169929614Y-78578389D01*
X169847954Y-78642625D01*
X169763333Y-78667057D01*
X169585940Y-78763046D01*
X169546435Y-78899999D01*
X169639825Y-79028002D01*
X169805667Y-79090216D01*
X169975538Y-79140674D01*
X170055230Y-79251119D01*
X170086330Y-79457353D01*
X170053726Y-79820490D01*
X169890402Y-80078535D01*
X169600384Y-80225812D01*
X169531141Y-80240830D01*
X169263470Y-80297980D01*
X169144789Y-80359924D01*
X169155898Y-80451103D01*
X169263725Y-80581266D01*
X169516935Y-80757042D01*
X169783809Y-80765509D01*
X170057055Y-80607388D01*
X170172173Y-80491239D01*
X170403102Y-80116288D01*
X170484394Y-79792739D01*
X170536767Y-79448837D01*
X170589045Y-79236450D01*
X170656134Y-79118427D01*
X170752945Y-79057616D01*
X170783664Y-79046959D01*
X170928351Y-78962885D01*
X170905684Y-78855392D01*
X170715549Y-78724174D01*
X170649695Y-78691358D01*
X170401377Y-78506767D01*
X170280161Y-78269912D01*
X170298721Y-78040752D01*
X170295274Y-77887037D01*
X170209165Y-77745422D01*
X170087614Y-77675979D01*
X170023087Y-77690111D01*
X170023087Y-77690111D01*
G37*
X170023087Y-77690111D02*
X169957090Y-77824429D01*
X169942560Y-78103508D01*
X169946743Y-78185785D01*
X169956422Y-78442173D01*
X169929614Y-78578389D01*
X169847954Y-78642625D01*
X169763333Y-78667057D01*
X169585940Y-78763046D01*
X169546435Y-78899999D01*
X169639825Y-79028002D01*
X169805667Y-79090216D01*
X169975538Y-79140674D01*
X170055230Y-79251119D01*
X170086330Y-79457353D01*
X170053726Y-79820490D01*
X169890402Y-80078535D01*
X169600384Y-80225812D01*
X169531141Y-80240830D01*
X169263470Y-80297980D01*
X169144789Y-80359924D01*
X169155898Y-80451103D01*
X169263725Y-80581266D01*
X169516935Y-80757042D01*
X169783809Y-80765509D01*
X170057055Y-80607388D01*
X170172173Y-80491239D01*
X170403102Y-80116288D01*
X170484394Y-79792739D01*
X170536767Y-79448837D01*
X170589045Y-79236450D01*
X170656134Y-79118427D01*
X170752945Y-79057616D01*
X170783664Y-79046959D01*
X170928351Y-78962885D01*
X170905684Y-78855392D01*
X170715549Y-78724174D01*
X170649695Y-78691358D01*
X170401377Y-78506767D01*
X170280161Y-78269912D01*
X170298721Y-78040752D01*
X170295274Y-77887037D01*
X170209165Y-77745422D01*
X170087614Y-77675979D01*
X170023087Y-77690111D01*
G36*
X154315318Y-76918550D02*
X154266763Y-77018586D01*
X154227928Y-77257734D01*
X154198795Y-77606054D01*
X154179345Y-78033604D01*
X154169559Y-78510444D01*
X154169418Y-79006633D01*
X154178903Y-79492230D01*
X154197996Y-79937293D01*
X154226678Y-80311884D01*
X154264929Y-80586059D01*
X154312732Y-80729879D01*
X154317714Y-80735619D01*
X154463023Y-80847156D01*
X154579218Y-80830960D01*
X154699285Y-80673404D01*
X154764166Y-80551167D01*
X154887315Y-80248319D01*
X154976838Y-79928794D01*
X154983246Y-79895000D01*
X155070839Y-79607881D01*
X155217360Y-79302336D01*
X155269860Y-79217667D01*
X155497000Y-78879000D01*
X155539333Y-79700659D01*
X155567405Y-80066997D01*
X155607820Y-80370736D01*
X155654184Y-80570117D01*
X155680123Y-80620382D01*
X155771150Y-80688703D01*
X155840905Y-80679149D01*
X155892019Y-80576337D01*
X155927121Y-80364886D01*
X155948842Y-80029411D01*
X155959810Y-79554529D01*
X155962667Y-78967728D01*
X155961058Y-78393598D01*
X155955073Y-77966773D01*
X155942973Y-77665245D01*
X155923022Y-77467009D01*
X155893480Y-77350056D01*
X155852611Y-77292380D01*
X155829359Y-77279628D01*
X155758619Y-77292340D01*
X155666139Y-77391280D01*
X155540669Y-77594414D01*
X155370956Y-77919706D01*
X155173192Y-78327341D01*
X154921104Y-78837106D01*
X154725383Y-79187922D01*
X154585482Y-79380325D01*
X154500852Y-79414848D01*
X154470948Y-79292024D01*
X154495220Y-79012389D01*
X154499251Y-78984834D01*
X154526072Y-78721844D01*
X154543737Y-78380605D01*
X154552334Y-78001699D01*
X154551950Y-77625708D01*
X154542674Y-77293213D01*
X154524593Y-77044796D01*
X154497794Y-76921041D01*
X154494785Y-76917230D01*
X154384332Y-76900476D01*
X154315318Y-76918550D01*
X154315318Y-76918550D01*
G37*
X154315318Y-76918550D02*
X154266763Y-77018586D01*
X154227928Y-77257734D01*
X154198795Y-77606054D01*
X154179345Y-78033604D01*
X154169559Y-78510444D01*
X154169418Y-79006633D01*
X154178903Y-79492230D01*
X154197996Y-79937293D01*
X154226678Y-80311884D01*
X154264929Y-80586059D01*
X154312732Y-80729879D01*
X154317714Y-80735619D01*
X154463023Y-80847156D01*
X154579218Y-80830960D01*
X154699285Y-80673404D01*
X154764166Y-80551167D01*
X154887315Y-80248319D01*
X154976838Y-79928794D01*
X154983246Y-79895000D01*
X155070839Y-79607881D01*
X155217360Y-79302336D01*
X155269860Y-79217667D01*
X155497000Y-78879000D01*
X155539333Y-79700659D01*
X155567405Y-80066997D01*
X155607820Y-80370736D01*
X155654184Y-80570117D01*
X155680123Y-80620382D01*
X155771150Y-80688703D01*
X155840905Y-80679149D01*
X155892019Y-80576337D01*
X155927121Y-80364886D01*
X155948842Y-80029411D01*
X155959810Y-79554529D01*
X155962667Y-78967728D01*
X155961058Y-78393598D01*
X155955073Y-77966773D01*
X155942973Y-77665245D01*
X155923022Y-77467009D01*
X155893480Y-77350056D01*
X155852611Y-77292380D01*
X155829359Y-77279628D01*
X155758619Y-77292340D01*
X155666139Y-77391280D01*
X155540669Y-77594414D01*
X155370956Y-77919706D01*
X155173192Y-78327341D01*
X154921104Y-78837106D01*
X154725383Y-79187922D01*
X154585482Y-79380325D01*
X154500852Y-79414848D01*
X154470948Y-79292024D01*
X154495220Y-79012389D01*
X154499251Y-78984834D01*
X154526072Y-78721844D01*
X154543737Y-78380605D01*
X154552334Y-78001699D01*
X154551950Y-77625708D01*
X154542674Y-77293213D01*
X154524593Y-77044796D01*
X154497794Y-76921041D01*
X154494785Y-76917230D01*
X154384332Y-76900476D01*
X154315318Y-76918550D01*
G36*
X167401083Y-77081896D02*
X167046219Y-77160136D01*
X166774522Y-77306213D01*
X166605490Y-77463042D01*
X166518374Y-77584676D01*
X166495260Y-77723493D01*
X166530788Y-77941160D01*
X166555058Y-78043210D01*
X166648471Y-78338856D01*
X166765421Y-78601719D01*
X166812868Y-78680404D01*
X166926638Y-78857531D01*
X166951878Y-78983821D01*
X166880206Y-79120563D01*
X166727988Y-79300856D01*
X166525098Y-79627004D01*
X166428458Y-79939603D01*
X166418268Y-80246965D01*
X166487048Y-80418119D01*
X166604757Y-80446437D01*
X166741359Y-80325292D01*
X166866815Y-80048056D01*
X166870154Y-80037053D01*
X167008245Y-79741446D01*
X167210225Y-79502672D01*
X167443507Y-79338699D01*
X167675505Y-79267496D01*
X167873633Y-79307030D01*
X167982355Y-79423767D01*
X168030111Y-79595513D01*
X168061944Y-79868066D01*
X168070000Y-80095053D01*
X168104907Y-80484533D01*
X168205284Y-80745483D01*
X168364620Y-80863288D01*
X168414714Y-80868667D01*
X168442510Y-80788040D01*
X168465550Y-80562254D01*
X168482460Y-80215448D01*
X168491861Y-79771761D01*
X168493333Y-79490118D01*
X168502316Y-78823269D01*
X168528469Y-78274388D01*
X168570601Y-77862517D01*
X168594045Y-77740690D01*
X168180480Y-77740690D01*
X168157523Y-77993024D01*
X168143297Y-78112948D01*
X168093495Y-78473334D01*
X168040476Y-78692423D01*
X167969817Y-78797883D01*
X167867094Y-78817380D01*
X167785278Y-78799671D01*
X167560849Y-78741277D01*
X167367915Y-78696328D01*
X167169570Y-78577145D01*
X167001908Y-78345911D01*
X166900014Y-78059849D01*
X166884667Y-77908116D01*
X166961180Y-77719111D01*
X167159402Y-77563220D01*
X167432359Y-77458736D01*
X167733078Y-77423951D01*
X168002988Y-77472617D01*
X168112629Y-77523460D01*
X168168654Y-77598493D01*
X168180480Y-77740690D01*
X168594045Y-77740690D01*
X168606998Y-77673382D01*
X168668934Y-77362399D01*
X168656353Y-77183861D01*
X168632398Y-77146931D01*
X168510352Y-77105038D01*
X168266955Y-77073908D01*
X167950112Y-77059158D01*
X167879529Y-77058667D01*
X167401083Y-77081896D01*
X167401083Y-77081896D01*
G37*
X167401083Y-77081896D02*
X167046219Y-77160136D01*
X166774522Y-77306213D01*
X166605490Y-77463042D01*
X166518374Y-77584676D01*
X166495260Y-77723493D01*
X166530788Y-77941160D01*
X166555058Y-78043210D01*
X166648471Y-78338856D01*
X166765421Y-78601719D01*
X166812868Y-78680404D01*
X166926638Y-78857531D01*
X166951878Y-78983821D01*
X166880206Y-79120563D01*
X166727988Y-79300856D01*
X166525098Y-79627004D01*
X166428458Y-79939603D01*
X166418268Y-80246965D01*
X166487048Y-80418119D01*
X166604757Y-80446437D01*
X166741359Y-80325292D01*
X166866815Y-80048056D01*
X166870154Y-80037053D01*
X167008245Y-79741446D01*
X167210225Y-79502672D01*
X167443507Y-79338699D01*
X167675505Y-79267496D01*
X167873633Y-79307030D01*
X167982355Y-79423767D01*
X168030111Y-79595513D01*
X168061944Y-79868066D01*
X168070000Y-80095053D01*
X168104907Y-80484533D01*
X168205284Y-80745483D01*
X168364620Y-80863288D01*
X168414714Y-80868667D01*
X168442510Y-80788040D01*
X168465550Y-80562254D01*
X168482460Y-80215448D01*
X168491861Y-79771761D01*
X168493333Y-79490118D01*
X168502316Y-78823269D01*
X168528469Y-78274388D01*
X168570601Y-77862517D01*
X168594045Y-77740690D01*
X168180480Y-77740690D01*
X168157523Y-77993024D01*
X168143297Y-78112948D01*
X168093495Y-78473334D01*
X168040476Y-78692423D01*
X167969817Y-78797883D01*
X167867094Y-78817380D01*
X167785278Y-78799671D01*
X167560849Y-78741277D01*
X167367915Y-78696328D01*
X167169570Y-78577145D01*
X167001908Y-78345911D01*
X166900014Y-78059849D01*
X166884667Y-77908116D01*
X166961180Y-77719111D01*
X167159402Y-77563220D01*
X167432359Y-77458736D01*
X167733078Y-77423951D01*
X168002988Y-77472617D01*
X168112629Y-77523460D01*
X168168654Y-77598493D01*
X168180480Y-77740690D01*
X168594045Y-77740690D01*
X168606998Y-77673382D01*
X168668934Y-77362399D01*
X168656353Y-77183861D01*
X168632398Y-77146931D01*
X168510352Y-77105038D01*
X168266955Y-77073908D01*
X167950112Y-77059158D01*
X167879529Y-77058667D01*
X167401083Y-77081896D01*
G36*
X143182223Y-76748621D02*
X143223450Y-76968172D01*
X143353165Y-77254324D01*
X143696734Y-77991620D01*
X143896621Y-78666800D01*
X143951278Y-79178766D01*
X143930130Y-79557579D01*
X143844458Y-79855793D01*
X143667270Y-80143668D01*
X143504250Y-80342446D01*
X143317318Y-80598784D01*
X143273523Y-80778050D01*
X143370968Y-80890570D01*
X143401122Y-80903680D01*
X143557558Y-80876980D01*
X143781435Y-80700126D01*
X143848785Y-80631767D01*
X144093911Y-80321005D01*
X144246855Y-79981634D01*
X144318523Y-79573168D01*
X144319818Y-79055118D01*
X144311208Y-78914780D01*
X144232369Y-78251996D01*
X144092070Y-77712074D01*
X143879057Y-77256156D01*
X143790610Y-77117106D01*
X143559404Y-76826412D01*
X143368642Y-76671956D01*
X143236767Y-76647954D01*
X143182223Y-76748621D01*
X143182223Y-76748621D01*
G37*
X143182223Y-76748621D02*
X143223450Y-76968172D01*
X143353165Y-77254324D01*
X143696734Y-77991620D01*
X143896621Y-78666800D01*
X143951278Y-79178766D01*
X143930130Y-79557579D01*
X143844458Y-79855793D01*
X143667270Y-80143668D01*
X143504250Y-80342446D01*
X143317318Y-80598784D01*
X143273523Y-80778050D01*
X143370968Y-80890570D01*
X143401122Y-80903680D01*
X143557558Y-80876980D01*
X143781435Y-80700126D01*
X143848785Y-80631767D01*
X144093911Y-80321005D01*
X144246855Y-79981634D01*
X144318523Y-79573168D01*
X144319818Y-79055118D01*
X144311208Y-78914780D01*
X144232369Y-78251996D01*
X144092070Y-77712074D01*
X143879057Y-77256156D01*
X143790610Y-77117106D01*
X143559404Y-76826412D01*
X143368642Y-76671956D01*
X143236767Y-76647954D01*
X143182223Y-76748621D01*
G36*
X160579579Y-77677901D02*
X160575115Y-77684661D01*
X160513549Y-77818594D01*
X160472457Y-78018198D01*
X160448464Y-78314088D01*
X160438197Y-78736876D01*
X160437194Y-78936193D01*
X160435597Y-79979667D01*
X160424383Y-79955107D01*
X159853467Y-79955107D01*
X159816035Y-80229502D01*
X159724286Y-80396953D01*
X159594980Y-80508202D01*
X159484364Y-80510904D01*
X159355379Y-80448569D01*
X159186940Y-80278655D01*
X159069441Y-80016670D01*
X159031907Y-79738450D01*
X159045774Y-79639649D01*
X159174655Y-79433146D01*
X159329487Y-79336117D01*
X159515977Y-79293690D01*
X159649224Y-79366154D01*
X159708122Y-79433158D01*
X159817087Y-79665276D01*
X159853467Y-79955107D01*
X160424383Y-79955107D01*
X160236550Y-79543763D01*
X160005808Y-79149202D01*
X159744887Y-78916192D01*
X159446758Y-78838537D01*
X159436328Y-78838549D01*
X159162475Y-78915731D01*
X158907832Y-79114061D01*
X158773650Y-79302334D01*
X158705385Y-79409931D01*
X158655078Y-79382023D01*
X158597340Y-79243981D01*
X158431573Y-78998418D01*
X158191980Y-78862847D01*
X157927429Y-78850767D01*
X157686788Y-78975679D01*
X157673281Y-78988719D01*
X157488311Y-79096031D01*
X157212627Y-79111086D01*
X157181727Y-79108394D01*
X156965430Y-79101831D01*
X156814615Y-79151440D01*
X156698119Y-79286948D01*
X156584781Y-79538082D01*
X156506911Y-79752134D01*
X156419940Y-80022087D01*
X156394789Y-80195989D01*
X156428415Y-80334207D01*
X156473202Y-80421020D01*
X156603236Y-80601747D01*
X156702511Y-80622593D01*
X156777244Y-80480383D01*
X156824292Y-80241852D01*
X156881666Y-79974510D01*
X156959621Y-79768806D01*
X156998738Y-79711643D01*
X157073956Y-79668282D01*
X157142566Y-79726893D01*
X157226493Y-79913030D01*
X157268043Y-80025517D01*
X157372094Y-80279679D01*
X157465389Y-80403541D01*
X157576480Y-80431511D01*
X157602643Y-80428726D01*
X157703282Y-80394739D01*
X157761890Y-80302171D01*
X157793314Y-80110941D01*
X157808207Y-79873834D01*
X157830547Y-79599645D01*
X157863858Y-79408404D01*
X157897107Y-79344667D01*
X158041860Y-79424213D01*
X158131356Y-79659752D01*
X158163896Y-80046637D01*
X158164000Y-80074342D01*
X158174770Y-80457176D01*
X158213096Y-80698939D01*
X158288000Y-80826875D01*
X158408506Y-80868229D01*
X158427059Y-80868667D01*
X158555405Y-80792483D01*
X158610599Y-80565134D01*
X158601760Y-80276000D01*
X158611284Y-80096928D01*
X158640102Y-79937334D01*
X158675411Y-79823653D01*
X158712047Y-79833230D01*
X158767783Y-79982774D01*
X158800074Y-80087737D01*
X158977783Y-80525568D01*
X159196796Y-80800293D01*
X159456497Y-80911362D01*
X159691196Y-80882652D01*
X159837100Y-80807107D01*
X160038454Y-80672422D01*
X160079122Y-80642203D01*
X160224515Y-80540375D01*
X160354514Y-80489344D01*
X160521099Y-80483425D01*
X160776250Y-80516932D01*
X160952922Y-80546633D01*
X161400176Y-80596304D01*
X161717271Y-80561781D01*
X161925330Y-80434948D01*
X162045476Y-80207690D01*
X162067615Y-80118318D01*
X162077161Y-79727486D01*
X162057203Y-79666192D01*
X161774294Y-79666192D01*
X161772201Y-79872163D01*
X161601763Y-80073839D01*
X161571833Y-80096923D01*
X161374790Y-80229980D01*
X161235935Y-80264763D01*
X161084973Y-80213292D01*
X161037101Y-80188355D01*
X160904493Y-80031447D01*
X160883714Y-79793965D01*
X160976572Y-79524057D01*
X161010071Y-79468688D01*
X161181390Y-79295688D01*
X161372684Y-79284994D01*
X161599970Y-79435949D01*
X161608710Y-79444092D01*
X161774294Y-79666192D01*
X162057203Y-79666192D01*
X161960495Y-79369192D01*
X161742294Y-79078404D01*
X161447235Y-78890091D01*
X161163171Y-78836667D01*
X161010722Y-78830958D01*
X160916855Y-78792310D01*
X160869212Y-78688443D01*
X160855437Y-78487076D01*
X160863175Y-78155930D01*
X160866562Y-78061774D01*
X160857820Y-77733188D01*
X160804701Y-77556608D01*
X160710766Y-77536643D01*
X160579579Y-77677901D01*
X160579579Y-77677901D01*
G37*
X160579579Y-77677901D02*
X160575115Y-77684661D01*
X160513549Y-77818594D01*
X160472457Y-78018198D01*
X160448464Y-78314088D01*
X160438197Y-78736876D01*
X160437194Y-78936193D01*
X160435597Y-79979667D01*
X160424383Y-79955107D01*
X159853467Y-79955107D01*
X159816035Y-80229502D01*
X159724286Y-80396953D01*
X159594980Y-80508202D01*
X159484364Y-80510904D01*
X159355379Y-80448569D01*
X159186940Y-80278655D01*
X159069441Y-80016670D01*
X159031907Y-79738450D01*
X159045774Y-79639649D01*
X159174655Y-79433146D01*
X159329487Y-79336117D01*
X159515977Y-79293690D01*
X159649224Y-79366154D01*
X159708122Y-79433158D01*
X159817087Y-79665276D01*
X159853467Y-79955107D01*
X160424383Y-79955107D01*
X160236550Y-79543763D01*
X160005808Y-79149202D01*
X159744887Y-78916192D01*
X159446758Y-78838537D01*
X159436328Y-78838549D01*
X159162475Y-78915731D01*
X158907832Y-79114061D01*
X158773650Y-79302334D01*
X158705385Y-79409931D01*
X158655078Y-79382023D01*
X158597340Y-79243981D01*
X158431573Y-78998418D01*
X158191980Y-78862847D01*
X157927429Y-78850767D01*
X157686788Y-78975679D01*
X157673281Y-78988719D01*
X157488311Y-79096031D01*
X157212627Y-79111086D01*
X157181727Y-79108394D01*
X156965430Y-79101831D01*
X156814615Y-79151440D01*
X156698119Y-79286948D01*
X156584781Y-79538082D01*
X156506911Y-79752134D01*
X156419940Y-80022087D01*
X156394789Y-80195989D01*
X156428415Y-80334207D01*
X156473202Y-80421020D01*
X156603236Y-80601747D01*
X156702511Y-80622593D01*
X156777244Y-80480383D01*
X156824292Y-80241852D01*
X156881666Y-79974510D01*
X156959621Y-79768806D01*
X156998738Y-79711643D01*
X157073956Y-79668282D01*
X157142566Y-79726893D01*
X157226493Y-79913030D01*
X157268043Y-80025517D01*
X157372094Y-80279679D01*
X157465389Y-80403541D01*
X157576480Y-80431511D01*
X157602643Y-80428726D01*
X157703282Y-80394739D01*
X157761890Y-80302171D01*
X157793314Y-80110941D01*
X157808207Y-79873834D01*
X157830547Y-79599645D01*
X157863858Y-79408404D01*
X157897107Y-79344667D01*
X158041860Y-79424213D01*
X158131356Y-79659752D01*
X158163896Y-80046637D01*
X158164000Y-80074342D01*
X158174770Y-80457176D01*
X158213096Y-80698939D01*
X158288000Y-80826875D01*
X158408506Y-80868229D01*
X158427059Y-80868667D01*
X158555405Y-80792483D01*
X158610599Y-80565134D01*
X158601760Y-80276000D01*
X158611284Y-80096928D01*
X158640102Y-79937334D01*
X158675411Y-79823653D01*
X158712047Y-79833230D01*
X158767783Y-79982774D01*
X158800074Y-80087737D01*
X158977783Y-80525568D01*
X159196796Y-80800293D01*
X159456497Y-80911362D01*
X159691196Y-80882652D01*
X159837100Y-80807107D01*
X160038454Y-80672422D01*
X160079122Y-80642203D01*
X160224515Y-80540375D01*
X160354514Y-80489344D01*
X160521099Y-80483425D01*
X160776250Y-80516932D01*
X160952922Y-80546633D01*
X161400176Y-80596304D01*
X161717271Y-80561781D01*
X161925330Y-80434948D01*
X162045476Y-80207690D01*
X162067615Y-80118318D01*
X162077161Y-79727486D01*
X162057203Y-79666192D01*
X161774294Y-79666192D01*
X161772201Y-79872163D01*
X161601763Y-80073839D01*
X161571833Y-80096923D01*
X161374790Y-80229980D01*
X161235935Y-80264763D01*
X161084973Y-80213292D01*
X161037101Y-80188355D01*
X160904493Y-80031447D01*
X160883714Y-79793965D01*
X160976572Y-79524057D01*
X161010071Y-79468688D01*
X161181390Y-79295688D01*
X161372684Y-79284994D01*
X161599970Y-79435949D01*
X161608710Y-79444092D01*
X161774294Y-79666192D01*
X162057203Y-79666192D01*
X161960495Y-79369192D01*
X161742294Y-79078404D01*
X161447235Y-78890091D01*
X161163171Y-78836667D01*
X161010722Y-78830958D01*
X160916855Y-78792310D01*
X160869212Y-78688443D01*
X160855437Y-78487076D01*
X160863175Y-78155930D01*
X160866562Y-78061774D01*
X160857820Y-77733188D01*
X160804701Y-77556608D01*
X160710766Y-77536643D01*
X160579579Y-77677901D01*
G36*
X142080235Y-76801447D02*
X141897136Y-77015635D01*
X141878530Y-77046498D01*
X141777362Y-77270313D01*
X141666401Y-77593484D01*
X141568391Y-77949188D01*
X141561672Y-77977555D01*
X141491302Y-78294332D01*
X141456888Y-78530788D01*
X141459072Y-78748148D01*
X141498495Y-79007641D01*
X141575798Y-79370491D01*
X141576284Y-79372681D01*
X141726235Y-79976854D01*
X141876230Y-80429546D01*
X142032824Y-80748482D01*
X142136018Y-80886735D01*
X142302098Y-81021440D01*
X142419678Y-80997923D01*
X142471101Y-80908259D01*
X142461730Y-80773469D01*
X142391988Y-80533432D01*
X142276066Y-80234936D01*
X142246385Y-80167426D01*
X142006087Y-79464451D01*
X141927749Y-78773272D01*
X142011741Y-78075658D01*
X142258433Y-77353375D01*
X142305691Y-77249853D01*
X142389247Y-76972387D01*
X142358230Y-76795028D01*
X142244580Y-76732980D01*
X142080235Y-76801447D01*
X142080235Y-76801447D01*
G37*
X142080235Y-76801447D02*
X141897136Y-77015635D01*
X141878530Y-77046498D01*
X141777362Y-77270313D01*
X141666401Y-77593484D01*
X141568391Y-77949188D01*
X141561672Y-77977555D01*
X141491302Y-78294332D01*
X141456888Y-78530788D01*
X141459072Y-78748148D01*
X141498495Y-79007641D01*
X141575798Y-79370491D01*
X141576284Y-79372681D01*
X141726235Y-79976854D01*
X141876230Y-80429546D01*
X142032824Y-80748482D01*
X142136018Y-80886735D01*
X142302098Y-81021440D01*
X142419678Y-80997923D01*
X142471101Y-80908259D01*
X142461730Y-80773469D01*
X142391988Y-80533432D01*
X142276066Y-80234936D01*
X142246385Y-80167426D01*
X142006087Y-79464451D01*
X141927749Y-78773272D01*
X142011741Y-78075658D01*
X142258433Y-77353375D01*
X142305691Y-77249853D01*
X142389247Y-76972387D01*
X142358230Y-76795028D01*
X142244580Y-76732980D01*
X142080235Y-76801447D01*
G36*
X173054252Y-78701406D02*
X172785251Y-78876615D01*
X172613257Y-79113426D01*
X172465477Y-79370916D01*
X172189875Y-79103792D01*
X171950677Y-78908908D01*
X171740090Y-78845515D01*
X171498478Y-78900585D01*
X171417866Y-78935129D01*
X171233417Y-79100795D01*
X171107556Y-79365084D01*
X171061364Y-79661494D01*
X171109086Y-79909246D01*
X171219818Y-80051800D01*
X171412210Y-80104012D01*
X171499842Y-80106667D01*
X171745984Y-80144598D01*
X171850784Y-80237318D01*
X171862509Y-80386998D01*
X171740731Y-80468569D01*
X171559334Y-80494026D01*
X171301592Y-80513782D01*
X171170511Y-80542414D01*
X171123571Y-80595890D01*
X171118000Y-80659728D01*
X171189443Y-80803825D01*
X171375133Y-80883764D01*
X171632109Y-80898313D01*
X171917411Y-80846245D01*
X172188081Y-80726328D01*
X172239833Y-80691844D01*
X172472667Y-80524931D01*
X172472667Y-80828003D01*
X172540084Y-81247923D01*
X172724881Y-81581391D01*
X173000881Y-81808995D01*
X173341905Y-81911320D01*
X173721774Y-81868955D01*
X173825389Y-81831124D01*
X174019653Y-81717372D01*
X174050063Y-81614633D01*
X173922052Y-81530015D01*
X173641054Y-81470623D01*
X173541594Y-81460007D01*
X173208423Y-81409427D01*
X173013182Y-81309963D01*
X172925196Y-81128455D01*
X172913792Y-80831745D01*
X172916276Y-80784000D01*
X172938333Y-80403000D01*
X173383252Y-80430261D01*
X173661240Y-80435593D01*
X173843870Y-80393131D01*
X174003353Y-80279480D01*
X174081752Y-80203941D01*
X174278161Y-79927339D01*
X174329266Y-79628103D01*
X173912000Y-79628103D01*
X173840213Y-79837678D01*
X173667737Y-80018341D01*
X173458905Y-80105547D01*
X173435021Y-80106667D01*
X173320628Y-80046791D01*
X173160696Y-79897867D01*
X173115193Y-79846171D01*
X172976106Y-79664491D01*
X172923626Y-79573797D01*
X172047344Y-79573797D01*
X171922020Y-79657764D01*
X171710667Y-79683334D01*
X171465898Y-79658505D01*
X171373373Y-79581725D01*
X171372000Y-79566700D01*
X171441132Y-79385361D01*
X171612918Y-79296683D01*
X171833947Y-79327622D01*
X171840174Y-79330404D01*
X172023219Y-79456075D01*
X172047344Y-79573797D01*
X172923626Y-79573797D01*
X172900546Y-79533913D01*
X172896000Y-79514000D01*
X172952837Y-79387111D01*
X173089686Y-79212312D01*
X173256058Y-79043805D01*
X173401463Y-78935789D01*
X173448095Y-78921334D01*
X173586288Y-78992989D01*
X173734679Y-79169713D01*
X173855616Y-79394142D01*
X173911447Y-79608912D01*
X173912000Y-79628103D01*
X174329266Y-79628103D01*
X174331369Y-79615791D01*
X174245004Y-79239031D01*
X174208473Y-79146394D01*
X174035019Y-78862479D01*
X173786882Y-78705393D01*
X173427535Y-78652411D01*
X173414047Y-78652184D01*
X173054252Y-78701406D01*
X173054252Y-78701406D01*
G37*
X173054252Y-78701406D02*
X172785251Y-78876615D01*
X172613257Y-79113426D01*
X172465477Y-79370916D01*
X172189875Y-79103792D01*
X171950677Y-78908908D01*
X171740090Y-78845515D01*
X171498478Y-78900585D01*
X171417866Y-78935129D01*
X171233417Y-79100795D01*
X171107556Y-79365084D01*
X171061364Y-79661494D01*
X171109086Y-79909246D01*
X171219818Y-80051800D01*
X171412210Y-80104012D01*
X171499842Y-80106667D01*
X171745984Y-80144598D01*
X171850784Y-80237318D01*
X171862509Y-80386998D01*
X171740731Y-80468569D01*
X171559334Y-80494026D01*
X171301592Y-80513782D01*
X171170511Y-80542414D01*
X171123571Y-80595890D01*
X171118000Y-80659728D01*
X171189443Y-80803825D01*
X171375133Y-80883764D01*
X171632109Y-80898313D01*
X171917411Y-80846245D01*
X172188081Y-80726328D01*
X172239833Y-80691844D01*
X172472667Y-80524931D01*
X172472667Y-80828003D01*
X172540084Y-81247923D01*
X172724881Y-81581391D01*
X173000881Y-81808995D01*
X173341905Y-81911320D01*
X173721774Y-81868955D01*
X173825389Y-81831124D01*
X174019653Y-81717372D01*
X174050063Y-81614633D01*
X173922052Y-81530015D01*
X173641054Y-81470623D01*
X173541594Y-81460007D01*
X173208423Y-81409427D01*
X173013182Y-81309963D01*
X172925196Y-81128455D01*
X172913792Y-80831745D01*
X172916276Y-80784000D01*
X172938333Y-80403000D01*
X173383252Y-80430261D01*
X173661240Y-80435593D01*
X173843870Y-80393131D01*
X174003353Y-80279480D01*
X174081752Y-80203941D01*
X174278161Y-79927339D01*
X174329266Y-79628103D01*
X173912000Y-79628103D01*
X173840213Y-79837678D01*
X173667737Y-80018341D01*
X173458905Y-80105547D01*
X173435021Y-80106667D01*
X173320628Y-80046791D01*
X173160696Y-79897867D01*
X173115193Y-79846171D01*
X172976106Y-79664491D01*
X172923626Y-79573797D01*
X172047344Y-79573797D01*
X171922020Y-79657764D01*
X171710667Y-79683334D01*
X171465898Y-79658505D01*
X171373373Y-79581725D01*
X171372000Y-79566700D01*
X171441132Y-79385361D01*
X171612918Y-79296683D01*
X171833947Y-79327622D01*
X171840174Y-79330404D01*
X172023219Y-79456075D01*
X172047344Y-79573797D01*
X172923626Y-79573797D01*
X172900546Y-79533913D01*
X172896000Y-79514000D01*
X172952837Y-79387111D01*
X173089686Y-79212312D01*
X173256058Y-79043805D01*
X173401463Y-78935789D01*
X173448095Y-78921334D01*
X173586288Y-78992989D01*
X173734679Y-79169713D01*
X173855616Y-79394142D01*
X173911447Y-79608912D01*
X173912000Y-79628103D01*
X174329266Y-79628103D01*
X174331369Y-79615791D01*
X174245004Y-79239031D01*
X174208473Y-79146394D01*
X174035019Y-78862479D01*
X173786882Y-78705393D01*
X173427535Y-78652411D01*
X173414047Y-78652184D01*
X173054252Y-78701406D01*
G36*
X181918129Y-81740894D02*
X181907874Y-81820768D01*
X182050458Y-81959748D01*
X182209333Y-82072989D01*
X182449795Y-82285978D01*
X182523424Y-82501712D01*
X182432095Y-82737442D01*
X182298855Y-82895700D01*
X182141348Y-83065731D01*
X182049580Y-83182020D01*
X182040000Y-83203348D01*
X182085435Y-83293333D01*
X182196892Y-83458102D01*
X182217747Y-83486606D01*
X182331756Y-83676334D01*
X182335558Y-83823814D01*
X182299242Y-83906873D01*
X182249702Y-84074642D01*
X182272340Y-84299841D01*
X182322009Y-84488529D01*
X182393744Y-84852297D01*
X182352418Y-85101320D01*
X182192295Y-85251829D01*
X182034441Y-85302079D01*
X181853951Y-85345912D01*
X181817076Y-85401710D01*
X181900862Y-85511893D01*
X181913389Y-85525763D01*
X182133242Y-85661098D01*
X182398496Y-85684554D01*
X182633757Y-85592555D01*
X182668953Y-85561619D01*
X182750812Y-85410337D01*
X182793041Y-85143923D01*
X182802000Y-84848449D01*
X182811612Y-84514584D01*
X182850075Y-84291990D01*
X182931835Y-84123219D01*
X183010016Y-84021112D01*
X183133507Y-83809660D01*
X183118005Y-83654664D01*
X182968747Y-83580880D01*
X182916274Y-83578000D01*
X182765294Y-83510771D01*
X182710416Y-83323643D01*
X182755091Y-83038457D01*
X182807164Y-82887565D01*
X182900809Y-82604558D01*
X182915741Y-82394233D01*
X182874570Y-82225027D01*
X182702232Y-81966592D01*
X182420520Y-81785004D01*
X182084165Y-81715347D01*
X182079482Y-81715334D01*
X181918129Y-81740894D01*
X181918129Y-81740894D01*
G37*
X181918129Y-81740894D02*
X181907874Y-81820768D01*
X182050458Y-81959748D01*
X182209333Y-82072989D01*
X182449795Y-82285978D01*
X182523424Y-82501712D01*
X182432095Y-82737442D01*
X182298855Y-82895700D01*
X182141348Y-83065731D01*
X182049580Y-83182020D01*
X182040000Y-83203348D01*
X182085435Y-83293333D01*
X182196892Y-83458102D01*
X182217747Y-83486606D01*
X182331756Y-83676334D01*
X182335558Y-83823814D01*
X182299242Y-83906873D01*
X182249702Y-84074642D01*
X182272340Y-84299841D01*
X182322009Y-84488529D01*
X182393744Y-84852297D01*
X182352418Y-85101320D01*
X182192295Y-85251829D01*
X182034441Y-85302079D01*
X181853951Y-85345912D01*
X181817076Y-85401710D01*
X181900862Y-85511893D01*
X181913389Y-85525763D01*
X182133242Y-85661098D01*
X182398496Y-85684554D01*
X182633757Y-85592555D01*
X182668953Y-85561619D01*
X182750812Y-85410337D01*
X182793041Y-85143923D01*
X182802000Y-84848449D01*
X182811612Y-84514584D01*
X182850075Y-84291990D01*
X182931835Y-84123219D01*
X183010016Y-84021112D01*
X183133507Y-83809660D01*
X183118005Y-83654664D01*
X182968747Y-83580880D01*
X182916274Y-83578000D01*
X182765294Y-83510771D01*
X182710416Y-83323643D01*
X182755091Y-83038457D01*
X182807164Y-82887565D01*
X182900809Y-82604558D01*
X182915741Y-82394233D01*
X182874570Y-82225027D01*
X182702232Y-81966592D01*
X182420520Y-81785004D01*
X182084165Y-81715347D01*
X182079482Y-81715334D01*
X181918129Y-81740894D01*
G36*
X124019171Y-86285546D02*
X123958667Y-86454010D01*
X124011296Y-86597171D01*
X124154314Y-86610249D01*
X124331130Y-86515712D01*
X124433077Y-86419035D01*
X124394564Y-86334974D01*
X124348390Y-86294573D01*
X124168264Y-86223023D01*
X124019171Y-86285546D01*
X124019171Y-86285546D01*
G37*
X124019171Y-86285546D02*
X123958667Y-86454010D01*
X124011296Y-86597171D01*
X124154314Y-86610249D01*
X124331130Y-86515712D01*
X124433077Y-86419035D01*
X124394564Y-86334974D01*
X124348390Y-86294573D01*
X124168264Y-86223023D01*
X124019171Y-86285546D01*
G36*
X130086683Y-86345341D02*
X129982826Y-86450413D01*
X129979042Y-86593557D01*
X130066096Y-86697382D01*
X130130275Y-86710667D01*
X130286006Y-86656670D01*
X130335326Y-86593984D01*
X130324210Y-86438198D01*
X130206822Y-86341327D01*
X130086683Y-86345341D01*
X130086683Y-86345341D01*
G37*
X130086683Y-86345341D02*
X129982826Y-86450413D01*
X129979042Y-86593557D01*
X130066096Y-86697382D01*
X130130275Y-86710667D01*
X130286006Y-86656670D01*
X130335326Y-86593984D01*
X130324210Y-86438198D01*
X130206822Y-86341327D01*
X130086683Y-86345341D01*
G36*
X159687852Y-86419294D02*
X159670088Y-86580851D01*
X159691720Y-86632950D01*
X159818035Y-86787859D01*
X159978948Y-86896195D01*
X160113957Y-86921413D01*
X160142535Y-86905243D01*
X160182042Y-86788928D01*
X160196000Y-86617595D01*
X160143253Y-86410141D01*
X160022604Y-86328377D01*
X159819586Y-86322039D01*
X159687852Y-86419294D01*
X159687852Y-86419294D01*
G37*
X159687852Y-86419294D02*
X159670088Y-86580851D01*
X159691720Y-86632950D01*
X159818035Y-86787859D01*
X159978948Y-86896195D01*
X160113957Y-86921413D01*
X160142535Y-86905243D01*
X160182042Y-86788928D01*
X160196000Y-86617595D01*
X160143253Y-86410141D01*
X160022604Y-86328377D01*
X159819586Y-86322039D01*
X159687852Y-86419294D01*
G36*
X116244261Y-87040952D02*
X115963695Y-87249831D01*
X115729270Y-87552902D01*
X115651995Y-87859434D01*
X115733685Y-88149280D01*
X115867728Y-88314381D01*
X116144036Y-88474429D01*
X116494078Y-88546249D01*
X116841952Y-88520873D01*
X117025478Y-88451146D01*
X117274174Y-88229791D01*
X117387341Y-87945851D01*
X117359035Y-87708392D01*
X117046879Y-87708392D01*
X117041878Y-87833603D01*
X116987845Y-87927692D01*
X116770745Y-88112812D01*
X116431810Y-88222921D01*
X116411547Y-88226227D01*
X116313476Y-88184608D01*
X116167958Y-88081245D01*
X116044913Y-87909138D01*
X116035766Y-87727530D01*
X116130464Y-87593104D01*
X116260854Y-87557334D01*
X116465668Y-87513665D01*
X116599330Y-87451500D01*
X116738109Y-87395429D01*
X116853142Y-87452440D01*
X116939100Y-87548328D01*
X117046879Y-87708392D01*
X117359035Y-87708392D01*
X117350990Y-87640913D01*
X117320695Y-87573504D01*
X117101017Y-87270281D01*
X116821234Y-87055571D01*
X116529808Y-86965440D01*
X116502611Y-86964667D01*
X116244261Y-87040952D01*
X116244261Y-87040952D01*
G37*
X116244261Y-87040952D02*
X115963695Y-87249831D01*
X115729270Y-87552902D01*
X115651995Y-87859434D01*
X115733685Y-88149280D01*
X115867728Y-88314381D01*
X116144036Y-88474429D01*
X116494078Y-88546249D01*
X116841952Y-88520873D01*
X117025478Y-88451146D01*
X117274174Y-88229791D01*
X117387341Y-87945851D01*
X117359035Y-87708392D01*
X117046879Y-87708392D01*
X117041878Y-87833603D01*
X116987845Y-87927692D01*
X116770745Y-88112812D01*
X116431810Y-88222921D01*
X116411547Y-88226227D01*
X116313476Y-88184608D01*
X116167958Y-88081245D01*
X116044913Y-87909138D01*
X116035766Y-87727530D01*
X116130464Y-87593104D01*
X116260854Y-87557334D01*
X116465668Y-87513665D01*
X116599330Y-87451500D01*
X116738109Y-87395429D01*
X116853142Y-87452440D01*
X116939100Y-87548328D01*
X117046879Y-87708392D01*
X117359035Y-87708392D01*
X117350990Y-87640913D01*
X117320695Y-87573504D01*
X117101017Y-87270281D01*
X116821234Y-87055571D01*
X116529808Y-86965440D01*
X116502611Y-86964667D01*
X116244261Y-87040952D01*
G36*
X117996711Y-86672240D02*
X117775739Y-86785670D01*
X117598633Y-86928358D01*
X117524044Y-87062371D01*
X117524000Y-87065092D01*
X117601055Y-87113963D01*
X117817218Y-87110000D01*
X117883833Y-87101436D01*
X118127775Y-87083058D01*
X118304603Y-87099493D01*
X118336825Y-87112989D01*
X118503641Y-87319321D01*
X118603176Y-87644272D01*
X118624667Y-87916585D01*
X118654775Y-88210033D01*
X118733663Y-88423508D01*
X118844171Y-88524183D01*
X118933905Y-88508254D01*
X119009998Y-88368267D01*
X119051914Y-88073552D01*
X119058147Y-87635532D01*
X119056578Y-87578744D01*
X118985644Y-87315854D01*
X118815867Y-87043506D01*
X118589080Y-86808384D01*
X118347115Y-86657176D01*
X118202900Y-86626000D01*
X117996711Y-86672240D01*
X117996711Y-86672240D01*
G37*
X117996711Y-86672240D02*
X117775739Y-86785670D01*
X117598633Y-86928358D01*
X117524044Y-87062371D01*
X117524000Y-87065092D01*
X117601055Y-87113963D01*
X117817218Y-87110000D01*
X117883833Y-87101436D01*
X118127775Y-87083058D01*
X118304603Y-87099493D01*
X118336825Y-87112989D01*
X118503641Y-87319321D01*
X118603176Y-87644272D01*
X118624667Y-87916585D01*
X118654775Y-88210033D01*
X118733663Y-88423508D01*
X118844171Y-88524183D01*
X118933905Y-88508254D01*
X119009998Y-88368267D01*
X119051914Y-88073552D01*
X119058147Y-87635532D01*
X119056578Y-87578744D01*
X118985644Y-87315854D01*
X118815867Y-87043506D01*
X118589080Y-86808384D01*
X118347115Y-86657176D01*
X118202900Y-86626000D01*
X117996711Y-86672240D01*
G36*
X124150675Y-87039788D02*
X124135866Y-87234172D01*
X124147905Y-87501347D01*
X124182854Y-87794841D01*
X124236772Y-88068184D01*
X124305718Y-88274904D01*
X124307719Y-88279059D01*
X124441351Y-88481424D01*
X124572153Y-88561310D01*
X124664988Y-88510260D01*
X124664322Y-88385606D01*
X124631710Y-88315291D01*
X124585928Y-88162205D01*
X124557299Y-87911810D01*
X124552630Y-87766672D01*
X124517350Y-87439788D01*
X124425866Y-87171007D01*
X124296588Y-87001760D01*
X124196274Y-86964667D01*
X124150675Y-87039788D01*
X124150675Y-87039788D01*
G37*
X124150675Y-87039788D02*
X124135866Y-87234172D01*
X124147905Y-87501347D01*
X124182854Y-87794841D01*
X124236772Y-88068184D01*
X124305718Y-88274904D01*
X124307719Y-88279059D01*
X124441351Y-88481424D01*
X124572153Y-88561310D01*
X124664988Y-88510260D01*
X124664322Y-88385606D01*
X124631710Y-88315291D01*
X124585928Y-88162205D01*
X124557299Y-87911810D01*
X124552630Y-87766672D01*
X124517350Y-87439788D01*
X124425866Y-87171007D01*
X124296588Y-87001760D01*
X124196274Y-86964667D01*
X124150675Y-87039788D01*
G36*
X124950124Y-85371721D02*
X124876146Y-85388596D01*
X124824802Y-85432381D01*
X124791981Y-85529789D01*
X124773569Y-85707534D01*
X124765455Y-85992332D01*
X124763525Y-86410895D01*
X124763545Y-86583667D01*
X124767546Y-87086181D01*
X124781196Y-87451376D01*
X124807764Y-87711146D01*
X124850521Y-87897383D01*
X124912736Y-88041983D01*
X124913145Y-88042734D01*
X125161244Y-88334426D01*
X125501428Y-88516036D01*
X125886223Y-88573380D01*
X126268155Y-88492278D01*
X126326774Y-88465027D01*
X126576792Y-88260090D01*
X126716489Y-87981430D01*
X126717091Y-87930523D01*
X126314614Y-87930523D01*
X126194912Y-88143871D01*
X126141161Y-88187533D01*
X125872034Y-88307732D01*
X125629982Y-88263557D01*
X125482667Y-88150000D01*
X125361720Y-87941412D01*
X125314698Y-87677402D01*
X125347727Y-87432993D01*
X125414933Y-87320267D01*
X125617838Y-87225473D01*
X125867263Y-87259898D01*
X126110417Y-87415606D01*
X126121515Y-87426485D01*
X126289821Y-87678706D01*
X126314614Y-87930523D01*
X126717091Y-87930523D01*
X126719909Y-87692342D01*
X126587208Y-87416450D01*
X126365075Y-87176431D01*
X126110984Y-87031097D01*
X126061458Y-87018581D01*
X125847634Y-86976110D01*
X125575166Y-86919873D01*
X125525000Y-86909304D01*
X125186333Y-86837667D01*
X125161791Y-86091387D01*
X125147749Y-85735387D01*
X125128068Y-85517108D01*
X125093463Y-85404974D01*
X125034645Y-85367411D01*
X124950124Y-85371721D01*
X124950124Y-85371721D01*
G37*
X124950124Y-85371721D02*
X124876146Y-85388596D01*
X124824802Y-85432381D01*
X124791981Y-85529789D01*
X124773569Y-85707534D01*
X124765455Y-85992332D01*
X124763525Y-86410895D01*
X124763545Y-86583667D01*
X124767546Y-87086181D01*
X124781196Y-87451376D01*
X124807764Y-87711146D01*
X124850521Y-87897383D01*
X124912736Y-88041983D01*
X124913145Y-88042734D01*
X125161244Y-88334426D01*
X125501428Y-88516036D01*
X125886223Y-88573380D01*
X126268155Y-88492278D01*
X126326774Y-88465027D01*
X126576792Y-88260090D01*
X126716489Y-87981430D01*
X126717091Y-87930523D01*
X126314614Y-87930523D01*
X126194912Y-88143871D01*
X126141161Y-88187533D01*
X125872034Y-88307732D01*
X125629982Y-88263557D01*
X125482667Y-88150000D01*
X125361720Y-87941412D01*
X125314698Y-87677402D01*
X125347727Y-87432993D01*
X125414933Y-87320267D01*
X125617838Y-87225473D01*
X125867263Y-87259898D01*
X126110417Y-87415606D01*
X126121515Y-87426485D01*
X126289821Y-87678706D01*
X126314614Y-87930523D01*
X126717091Y-87930523D01*
X126719909Y-87692342D01*
X126587208Y-87416450D01*
X126365075Y-87176431D01*
X126110984Y-87031097D01*
X126061458Y-87018581D01*
X125847634Y-86976110D01*
X125575166Y-86919873D01*
X125525000Y-86909304D01*
X125186333Y-86837667D01*
X125161791Y-86091387D01*
X125147749Y-85735387D01*
X125128068Y-85517108D01*
X125093463Y-85404974D01*
X125034645Y-85367411D01*
X124950124Y-85371721D01*
G36*
X130051580Y-87380092D02*
X130023469Y-87572233D01*
X130012323Y-87832010D01*
X130017799Y-88109037D01*
X130039554Y-88352928D01*
X130077246Y-88513296D01*
X130105460Y-88547931D01*
X130232958Y-88518581D01*
X130286642Y-88470320D01*
X130318852Y-88339100D01*
X130314208Y-88112553D01*
X130281285Y-87843328D01*
X130228659Y-87584075D01*
X130164905Y-87387442D01*
X130098598Y-87306077D01*
X130097000Y-87305976D01*
X130051580Y-87380092D01*
X130051580Y-87380092D01*
G37*
X130051580Y-87380092D02*
X130023469Y-87572233D01*
X130012323Y-87832010D01*
X130017799Y-88109037D01*
X130039554Y-88352928D01*
X130077246Y-88513296D01*
X130105460Y-88547931D01*
X130232958Y-88518581D01*
X130286642Y-88470320D01*
X130318852Y-88339100D01*
X130314208Y-88112553D01*
X130281285Y-87843328D01*
X130228659Y-87584075D01*
X130164905Y-87387442D01*
X130098598Y-87306077D01*
X130097000Y-87305976D01*
X130051580Y-87380092D01*
G36*
X131446646Y-87204969D02*
X131229382Y-87392640D01*
X131009928Y-87659158D01*
X130821777Y-87966666D01*
X130747972Y-88128834D01*
X130572051Y-88573334D01*
X131272267Y-88573334D01*
X131628110Y-88568192D01*
X131858901Y-88546247D01*
X132008777Y-88497719D01*
X132121874Y-88412828D01*
X132156575Y-88377377D01*
X132313628Y-88114351D01*
X131988783Y-88114351D01*
X131899434Y-88263798D01*
X131696964Y-88317441D01*
X131626636Y-88319334D01*
X131378177Y-88279343D01*
X131237897Y-88146060D01*
X131236962Y-88144323D01*
X131196855Y-87921263D01*
X131290785Y-87724184D01*
X131484353Y-87596454D01*
X131689712Y-87573525D01*
X131884541Y-87618348D01*
X131968461Y-87734764D01*
X131987147Y-87839652D01*
X131988783Y-88114351D01*
X132313628Y-88114351D01*
X132318718Y-88105827D01*
X132313198Y-87817776D01*
X132140445Y-87517181D01*
X132052800Y-87421867D01*
X131855176Y-87251081D01*
X131684003Y-87147899D01*
X131628223Y-87134000D01*
X131446646Y-87204969D01*
X131446646Y-87204969D01*
G37*
X131446646Y-87204969D02*
X131229382Y-87392640D01*
X131009928Y-87659158D01*
X130821777Y-87966666D01*
X130747972Y-88128834D01*
X130572051Y-88573334D01*
X131272267Y-88573334D01*
X131628110Y-88568192D01*
X131858901Y-88546247D01*
X132008777Y-88497719D01*
X132121874Y-88412828D01*
X132156575Y-88377377D01*
X132313628Y-88114351D01*
X131988783Y-88114351D01*
X131899434Y-88263798D01*
X131696964Y-88317441D01*
X131626636Y-88319334D01*
X131378177Y-88279343D01*
X131237897Y-88146060D01*
X131236962Y-88144323D01*
X131196855Y-87921263D01*
X131290785Y-87724184D01*
X131484353Y-87596454D01*
X131689712Y-87573525D01*
X131884541Y-87618348D01*
X131968461Y-87734764D01*
X131987147Y-87839652D01*
X131988783Y-88114351D01*
X132313628Y-88114351D01*
X132318718Y-88105827D01*
X132313198Y-87817776D01*
X132140445Y-87517181D01*
X132052800Y-87421867D01*
X131855176Y-87251081D01*
X131684003Y-87147899D01*
X131628223Y-87134000D01*
X131446646Y-87204969D01*
G36*
X113681815Y-85854881D02*
X113638868Y-86049432D01*
X113625937Y-86314852D01*
X113644445Y-86603004D01*
X113695816Y-86865755D01*
X113719154Y-86935888D01*
X113762719Y-87135227D01*
X113794194Y-87441504D01*
X113807444Y-87792433D01*
X113807521Y-87833120D01*
X113812680Y-88164699D01*
X113827649Y-88438865D01*
X113849402Y-88604251D01*
X113853760Y-88618387D01*
X113954205Y-88715192D01*
X114100972Y-88738731D01*
X114214333Y-88685125D01*
X114233012Y-88636834D01*
X114252836Y-88332478D01*
X114243808Y-88018401D01*
X114202244Y-87641037D01*
X114134672Y-87207183D01*
X114077637Y-86839689D01*
X114037189Y-86523476D01*
X114018674Y-86303594D01*
X114019876Y-86239329D01*
X113997625Y-86027036D01*
X113895405Y-85851503D01*
X113753355Y-85779334D01*
X113681815Y-85854881D01*
X113681815Y-85854881D01*
G37*
X113681815Y-85854881D02*
X113638868Y-86049432D01*
X113625937Y-86314852D01*
X113644445Y-86603004D01*
X113695816Y-86865755D01*
X113719154Y-86935888D01*
X113762719Y-87135227D01*
X113794194Y-87441504D01*
X113807444Y-87792433D01*
X113807521Y-87833120D01*
X113812680Y-88164699D01*
X113827649Y-88438865D01*
X113849402Y-88604251D01*
X113853760Y-88618387D01*
X113954205Y-88715192D01*
X114100972Y-88738731D01*
X114214333Y-88685125D01*
X114233012Y-88636834D01*
X114252836Y-88332478D01*
X114243808Y-88018401D01*
X114202244Y-87641037D01*
X114134672Y-87207183D01*
X114077637Y-86839689D01*
X114037189Y-86523476D01*
X114018674Y-86303594D01*
X114019876Y-86239329D01*
X113997625Y-86027036D01*
X113895405Y-85851503D01*
X113753355Y-85779334D01*
X113681815Y-85854881D01*
G36*
X114851031Y-85614958D02*
X114788233Y-85677098D01*
X114678647Y-85906450D01*
X114637062Y-86253058D01*
X114665899Y-86678059D01*
X114710679Y-86922334D01*
X114768183Y-87241704D01*
X114820006Y-87632471D01*
X114847922Y-87924605D01*
X114904359Y-88351780D01*
X114997609Y-88625318D01*
X115125518Y-88739468D01*
X115154522Y-88742667D01*
X115222015Y-88671421D01*
X115264577Y-88552167D01*
X115287564Y-88410402D01*
X115287527Y-88241194D01*
X115260862Y-88005176D01*
X115203961Y-87662984D01*
X115162333Y-87435950D01*
X115114440Y-87086103D01*
X115080675Y-86661928D01*
X115068667Y-86276780D01*
X115057935Y-85889716D01*
X115021913Y-85658575D01*
X114954859Y-85571082D01*
X114851031Y-85614958D01*
X114851031Y-85614958D01*
G37*
X114851031Y-85614958D02*
X114788233Y-85677098D01*
X114678647Y-85906450D01*
X114637062Y-86253058D01*
X114665899Y-86678059D01*
X114710679Y-86922334D01*
X114768183Y-87241704D01*
X114820006Y-87632471D01*
X114847922Y-87924605D01*
X114904359Y-88351780D01*
X114997609Y-88625318D01*
X115125518Y-88739468D01*
X115154522Y-88742667D01*
X115222015Y-88671421D01*
X115264577Y-88552167D01*
X115287564Y-88410402D01*
X115287527Y-88241194D01*
X115260862Y-88005176D01*
X115203961Y-87662984D01*
X115162333Y-87435950D01*
X115114440Y-87086103D01*
X115080675Y-86661928D01*
X115068667Y-86276780D01*
X115057935Y-85889716D01*
X115021913Y-85658575D01*
X114954859Y-85571082D01*
X114851031Y-85614958D01*
G36*
X128462073Y-87019205D02*
X128210447Y-87096867D01*
X128020091Y-87186286D01*
X127969349Y-87248098D01*
X128037491Y-87309124D01*
X128043667Y-87312647D01*
X128220677Y-87354875D01*
X128470505Y-87353236D01*
X128526942Y-87346222D01*
X128856102Y-87356370D01*
X129077565Y-87491444D01*
X129178341Y-87738950D01*
X129171181Y-87965867D01*
X129164610Y-88217379D01*
X129213414Y-88441329D01*
X129297830Y-88611237D01*
X129398096Y-88700621D01*
X129494452Y-88682999D01*
X129567135Y-88531889D01*
X129573134Y-88504497D01*
X129602589Y-88157309D01*
X129571710Y-87782934D01*
X129491480Y-87432911D01*
X129372879Y-87158780D01*
X129258825Y-87029463D01*
X129066255Y-86974676D01*
X128779055Y-86972646D01*
X128462073Y-87019205D01*
X128462073Y-87019205D01*
G37*
X128462073Y-87019205D02*
X128210447Y-87096867D01*
X128020091Y-87186286D01*
X127969349Y-87248098D01*
X128037491Y-87309124D01*
X128043667Y-87312647D01*
X128220677Y-87354875D01*
X128470505Y-87353236D01*
X128526942Y-87346222D01*
X128856102Y-87356370D01*
X129077565Y-87491444D01*
X129178341Y-87738950D01*
X129171181Y-87965867D01*
X129164610Y-88217379D01*
X129213414Y-88441329D01*
X129297830Y-88611237D01*
X129398096Y-88700621D01*
X129494452Y-88682999D01*
X129567135Y-88531889D01*
X129573134Y-88504497D01*
X129602589Y-88157309D01*
X129571710Y-87782934D01*
X129491480Y-87432911D01*
X129372879Y-87158780D01*
X129258825Y-87029463D01*
X129066255Y-86974676D01*
X128779055Y-86972646D01*
X128462073Y-87019205D01*
G36*
X132686527Y-85352792D02*
X132518272Y-85436447D01*
X132210977Y-85617340D01*
X131987358Y-85795671D01*
X131862449Y-85951595D01*
X131851283Y-86065266D01*
X131968893Y-86116836D01*
X132002000Y-86118000D01*
X132139260Y-86066389D01*
X132171333Y-85993979D01*
X132243259Y-85838690D01*
X132426059Y-85755929D01*
X132670265Y-85763774D01*
X132743507Y-85784876D01*
X133010810Y-85961563D01*
X133172144Y-86248331D01*
X133208500Y-86498393D01*
X133176731Y-86712874D01*
X133058768Y-86839648D01*
X132820625Y-86906085D01*
X132682440Y-86922049D01*
X132449132Y-86953020D01*
X132295971Y-86991146D01*
X132272911Y-87004200D01*
X132275630Y-87095935D01*
X132392084Y-87208786D01*
X132576272Y-87307667D01*
X132727521Y-87350944D01*
X132962336Y-87397601D01*
X133099463Y-87465619D01*
X133165173Y-87595375D01*
X133185735Y-87827246D01*
X133187333Y-88057679D01*
X133202093Y-88431985D01*
X133248182Y-88644052D01*
X133328317Y-88698537D01*
X133445215Y-88600101D01*
X133477874Y-88555911D01*
X133565820Y-88333452D01*
X133608705Y-88013902D01*
X133610667Y-87926556D01*
X133623383Y-87650140D01*
X133677578Y-87478777D01*
X133797317Y-87349085D01*
X133843500Y-87313366D01*
X134076333Y-87139942D01*
X133841989Y-86946471D01*
X133680646Y-86760895D01*
X133552179Y-86481022D01*
X133460989Y-86167910D01*
X133348857Y-85796115D01*
X133225148Y-85554320D01*
X133093285Y-85419343D01*
X132951961Y-85324047D01*
X132838227Y-85301214D01*
X132686527Y-85352792D01*
X132686527Y-85352792D01*
G37*
X132686527Y-85352792D02*
X132518272Y-85436447D01*
X132210977Y-85617340D01*
X131987358Y-85795671D01*
X131862449Y-85951595D01*
X131851283Y-86065266D01*
X131968893Y-86116836D01*
X132002000Y-86118000D01*
X132139260Y-86066389D01*
X132171333Y-85993979D01*
X132243259Y-85838690D01*
X132426059Y-85755929D01*
X132670265Y-85763774D01*
X132743507Y-85784876D01*
X133010810Y-85961563D01*
X133172144Y-86248331D01*
X133208500Y-86498393D01*
X133176731Y-86712874D01*
X133058768Y-86839648D01*
X132820625Y-86906085D01*
X132682440Y-86922049D01*
X132449132Y-86953020D01*
X132295971Y-86991146D01*
X132272911Y-87004200D01*
X132275630Y-87095935D01*
X132392084Y-87208786D01*
X132576272Y-87307667D01*
X132727521Y-87350944D01*
X132962336Y-87397601D01*
X133099463Y-87465619D01*
X133165173Y-87595375D01*
X133185735Y-87827246D01*
X133187333Y-88057679D01*
X133202093Y-88431985D01*
X133248182Y-88644052D01*
X133328317Y-88698537D01*
X133445215Y-88600101D01*
X133477874Y-88555911D01*
X133565820Y-88333452D01*
X133608705Y-88013902D01*
X133610667Y-87926556D01*
X133623383Y-87650140D01*
X133677578Y-87478777D01*
X133797317Y-87349085D01*
X133843500Y-87313366D01*
X134076333Y-87139942D01*
X133841989Y-86946471D01*
X133680646Y-86760895D01*
X133552179Y-86481022D01*
X133460989Y-86167910D01*
X133348857Y-85796115D01*
X133225148Y-85554320D01*
X133093285Y-85419343D01*
X132951961Y-85324047D01*
X132838227Y-85301214D01*
X132686527Y-85352792D01*
G36*
X141394193Y-86712705D02*
X141229247Y-86967450D01*
X141124696Y-87267445D01*
X141076470Y-87615406D01*
X141079919Y-87972822D01*
X141130394Y-88301184D01*
X141223247Y-88561980D01*
X141353830Y-88716701D01*
X141443538Y-88742667D01*
X141580493Y-88693743D01*
X141616974Y-88536726D01*
X141555870Y-88256249D01*
X141542660Y-88215212D01*
X141462243Y-87743693D01*
X141475221Y-87430334D01*
X141516303Y-87175493D01*
X141576625Y-87044274D01*
X141683563Y-86991156D01*
X141745081Y-86981633D01*
X141900147Y-86992425D01*
X142011446Y-87095727D01*
X142103734Y-87277967D01*
X142208791Y-87564901D01*
X142305699Y-87903513D01*
X142333259Y-88023000D01*
X142393920Y-88299169D01*
X142447713Y-88523351D01*
X142467144Y-88594500D01*
X142567757Y-88710105D01*
X142720662Y-88738603D01*
X142844620Y-88671288D01*
X142862148Y-88636834D01*
X142861782Y-88497149D01*
X142818313Y-88265720D01*
X142786457Y-88146344D01*
X142718354Y-87838283D01*
X142685446Y-87537474D01*
X142685139Y-87461147D01*
X142679415Y-87226366D01*
X142619343Y-87062648D01*
X142472679Y-86926917D01*
X142207178Y-86776097D01*
X142150816Y-86747333D01*
X141820536Y-86610041D01*
X141579970Y-86595718D01*
X141394193Y-86712705D01*
X141394193Y-86712705D01*
G37*
X141394193Y-86712705D02*
X141229247Y-86967450D01*
X141124696Y-87267445D01*
X141076470Y-87615406D01*
X141079919Y-87972822D01*
X141130394Y-88301184D01*
X141223247Y-88561980D01*
X141353830Y-88716701D01*
X141443538Y-88742667D01*
X141580493Y-88693743D01*
X141616974Y-88536726D01*
X141555870Y-88256249D01*
X141542660Y-88215212D01*
X141462243Y-87743693D01*
X141475221Y-87430334D01*
X141516303Y-87175493D01*
X141576625Y-87044274D01*
X141683563Y-86991156D01*
X141745081Y-86981633D01*
X141900147Y-86992425D01*
X142011446Y-87095727D01*
X142103734Y-87277967D01*
X142208791Y-87564901D01*
X142305699Y-87903513D01*
X142333259Y-88023000D01*
X142393920Y-88299169D01*
X142447713Y-88523351D01*
X142467144Y-88594500D01*
X142567757Y-88710105D01*
X142720662Y-88738603D01*
X142844620Y-88671288D01*
X142862148Y-88636834D01*
X142861782Y-88497149D01*
X142818313Y-88265720D01*
X142786457Y-88146344D01*
X142718354Y-87838283D01*
X142685446Y-87537474D01*
X142685139Y-87461147D01*
X142679415Y-87226366D01*
X142619343Y-87062648D01*
X142472679Y-86926917D01*
X142207178Y-86776097D01*
X142150816Y-86747333D01*
X141820536Y-86610041D01*
X141579970Y-86595718D01*
X141394193Y-86712705D01*
G36*
X144891007Y-86567188D02*
X144671070Y-86662477D01*
X144553577Y-86796064D01*
X144549501Y-86812115D01*
X144561105Y-86896239D01*
X144659447Y-86945820D01*
X144879053Y-86973682D01*
X145005373Y-86981448D01*
X145322358Y-87015628D01*
X145508707Y-87084116D01*
X145582236Y-87160126D01*
X145625371Y-87301048D01*
X145529374Y-87421562D01*
X145511179Y-87435394D01*
X145296552Y-87527390D01*
X145130179Y-87545643D01*
X144874659Y-87559774D01*
X144686959Y-87595516D01*
X144525692Y-87616631D01*
X144416737Y-87544019D01*
X144317647Y-87374475D01*
X144259407Y-87280414D01*
X143824701Y-87280414D01*
X143815292Y-87299625D01*
X143681600Y-87379020D01*
X143495251Y-87365897D01*
X143370883Y-87293016D01*
X143310471Y-87142690D01*
X143379636Y-87010226D01*
X143515358Y-86964667D01*
X143683065Y-87019162D01*
X143803561Y-87143823D01*
X143824701Y-87280414D01*
X144259407Y-87280414D01*
X144151490Y-87106122D01*
X143943375Y-86852626D01*
X143731617Y-86653585D01*
X143554533Y-86548598D01*
X143511476Y-86541334D01*
X143350794Y-86591210D01*
X143153113Y-86712227D01*
X143140708Y-86721828D01*
X142983150Y-86881955D01*
X142951259Y-87046248D01*
X142965690Y-87123995D01*
X143100513Y-87473428D01*
X143300162Y-87671748D01*
X143539785Y-87727963D01*
X143819152Y-87760501D01*
X143981859Y-87869833D01*
X144044176Y-87988345D01*
X144052632Y-88174758D01*
X143912403Y-88293156D01*
X143619246Y-88346675D01*
X143555401Y-88349503D01*
X143273419Y-88381409D01*
X143135106Y-88449213D01*
X143149188Y-88542601D01*
X143306792Y-88643411D01*
X143599964Y-88728094D01*
X143878311Y-88728006D01*
X144080837Y-88645012D01*
X144106612Y-88618946D01*
X144326315Y-88459062D01*
X144573641Y-88464224D01*
X144756150Y-88567502D01*
X145017137Y-88690249D01*
X145348503Y-88739852D01*
X145677135Y-88713685D01*
X145929254Y-88609631D01*
X146040099Y-88505227D01*
X146014965Y-88432517D01*
X145971588Y-88401954D01*
X145816935Y-88355303D01*
X145564310Y-88325806D01*
X145409559Y-88320630D01*
X145115464Y-88301117D01*
X144959637Y-88239839D01*
X144924342Y-88189623D01*
X144957377Y-88073965D01*
X145105305Y-87967588D01*
X145315253Y-87902760D01*
X145406012Y-87895684D01*
X145601726Y-87839769D01*
X145814095Y-87703985D01*
X145985081Y-87534679D01*
X146056647Y-87378202D01*
X146056667Y-87376070D01*
X145990366Y-87146894D01*
X145822815Y-86894332D01*
X145601037Y-86676777D01*
X145400664Y-86561456D01*
X145154002Y-86527684D01*
X144891007Y-86567188D01*
X144891007Y-86567188D01*
G37*
X144891007Y-86567188D02*
X144671070Y-86662477D01*
X144553577Y-86796064D01*
X144549501Y-86812115D01*
X144561105Y-86896239D01*
X144659447Y-86945820D01*
X144879053Y-86973682D01*
X145005373Y-86981448D01*
X145322358Y-87015628D01*
X145508707Y-87084116D01*
X145582236Y-87160126D01*
X145625371Y-87301048D01*
X145529374Y-87421562D01*
X145511179Y-87435394D01*
X145296552Y-87527390D01*
X145130179Y-87545643D01*
X144874659Y-87559774D01*
X144686959Y-87595516D01*
X144525692Y-87616631D01*
X144416737Y-87544019D01*
X144317647Y-87374475D01*
X144259407Y-87280414D01*
X143824701Y-87280414D01*
X143815292Y-87299625D01*
X143681600Y-87379020D01*
X143495251Y-87365897D01*
X143370883Y-87293016D01*
X143310471Y-87142690D01*
X143379636Y-87010226D01*
X143515358Y-86964667D01*
X143683065Y-87019162D01*
X143803561Y-87143823D01*
X143824701Y-87280414D01*
X144259407Y-87280414D01*
X144151490Y-87106122D01*
X143943375Y-86852626D01*
X143731617Y-86653585D01*
X143554533Y-86548598D01*
X143511476Y-86541334D01*
X143350794Y-86591210D01*
X143153113Y-86712227D01*
X143140708Y-86721828D01*
X142983150Y-86881955D01*
X142951259Y-87046248D01*
X142965690Y-87123995D01*
X143100513Y-87473428D01*
X143300162Y-87671748D01*
X143539785Y-87727963D01*
X143819152Y-87760501D01*
X143981859Y-87869833D01*
X144044176Y-87988345D01*
X144052632Y-88174758D01*
X143912403Y-88293156D01*
X143619246Y-88346675D01*
X143555401Y-88349503D01*
X143273419Y-88381409D01*
X143135106Y-88449213D01*
X143149188Y-88542601D01*
X143306792Y-88643411D01*
X143599964Y-88728094D01*
X143878311Y-88728006D01*
X144080837Y-88645012D01*
X144106612Y-88618946D01*
X144326315Y-88459062D01*
X144573641Y-88464224D01*
X144756150Y-88567502D01*
X145017137Y-88690249D01*
X145348503Y-88739852D01*
X145677135Y-88713685D01*
X145929254Y-88609631D01*
X146040099Y-88505227D01*
X146014965Y-88432517D01*
X145971588Y-88401954D01*
X145816935Y-88355303D01*
X145564310Y-88325806D01*
X145409559Y-88320630D01*
X145115464Y-88301117D01*
X144959637Y-88239839D01*
X144924342Y-88189623D01*
X144957377Y-88073965D01*
X145105305Y-87967588D01*
X145315253Y-87902760D01*
X145406012Y-87895684D01*
X145601726Y-87839769D01*
X145814095Y-87703985D01*
X145985081Y-87534679D01*
X146056647Y-87378202D01*
X146056667Y-87376070D01*
X145990366Y-87146894D01*
X145822815Y-86894332D01*
X145601037Y-86676777D01*
X145400664Y-86561456D01*
X145154002Y-86527684D01*
X144891007Y-86567188D01*
G36*
X149609928Y-85650232D02*
X149571542Y-85854046D01*
X149546837Y-86150027D01*
X149545458Y-86181500D01*
X149520582Y-86795334D01*
X149192120Y-86795334D01*
X148841541Y-86862811D01*
X148603163Y-87014526D01*
X148452871Y-87158852D01*
X148374836Y-87306917D01*
X148345981Y-87521351D01*
X148342667Y-87721559D01*
X148364036Y-88118926D01*
X148422327Y-88434543D01*
X148508814Y-88645467D01*
X148614770Y-88728754D01*
X148709556Y-88686222D01*
X148738376Y-88578417D01*
X148758717Y-88351513D01*
X148766000Y-88070061D01*
X148795066Y-87673649D01*
X148875395Y-87367623D01*
X148996688Y-87180055D01*
X149109468Y-87134000D01*
X149279680Y-87210154D01*
X149424925Y-87404787D01*
X149514102Y-87667157D01*
X149528000Y-87816900D01*
X149562839Y-88154427D01*
X149658864Y-88387311D01*
X149803342Y-88486972D01*
X149827312Y-88488667D01*
X149876342Y-88463637D01*
X149910817Y-88372965D01*
X149933035Y-88193275D01*
X149945295Y-87901190D01*
X149949893Y-87473336D01*
X149950085Y-87239834D01*
X149940970Y-86634127D01*
X149913153Y-86181392D01*
X149863862Y-85866021D01*
X149790328Y-85672402D01*
X149689780Y-85584928D01*
X149655000Y-85577166D01*
X149609928Y-85650232D01*
X149609928Y-85650232D01*
G37*
X149609928Y-85650232D02*
X149571542Y-85854046D01*
X149546837Y-86150027D01*
X149545458Y-86181500D01*
X149520582Y-86795334D01*
X149192120Y-86795334D01*
X148841541Y-86862811D01*
X148603163Y-87014526D01*
X148452871Y-87158852D01*
X148374836Y-87306917D01*
X148345981Y-87521351D01*
X148342667Y-87721559D01*
X148364036Y-88118926D01*
X148422327Y-88434543D01*
X148508814Y-88645467D01*
X148614770Y-88728754D01*
X148709556Y-88686222D01*
X148738376Y-88578417D01*
X148758717Y-88351513D01*
X148766000Y-88070061D01*
X148795066Y-87673649D01*
X148875395Y-87367623D01*
X148996688Y-87180055D01*
X149109468Y-87134000D01*
X149279680Y-87210154D01*
X149424925Y-87404787D01*
X149514102Y-87667157D01*
X149528000Y-87816900D01*
X149562839Y-88154427D01*
X149658864Y-88387311D01*
X149803342Y-88486972D01*
X149827312Y-88488667D01*
X149876342Y-88463637D01*
X149910817Y-88372965D01*
X149933035Y-88193275D01*
X149945295Y-87901190D01*
X149949893Y-87473336D01*
X149950085Y-87239834D01*
X149940970Y-86634127D01*
X149913153Y-86181392D01*
X149863862Y-85866021D01*
X149790328Y-85672402D01*
X149689780Y-85584928D01*
X149655000Y-85577166D01*
X149609928Y-85650232D01*
G36*
X150769121Y-86838213D02*
X150506602Y-86939700D01*
X150392409Y-87022696D01*
X150410132Y-87107885D01*
X150495885Y-87182576D01*
X150639907Y-87258038D01*
X150759704Y-87209282D01*
X150798752Y-87175653D01*
X150975506Y-87065124D01*
X151145554Y-87090350D01*
X151352182Y-87257152D01*
X151525138Y-87525811D01*
X151555631Y-87806236D01*
X151459522Y-88058523D01*
X151252673Y-88242766D01*
X150950944Y-88319060D01*
X150929997Y-88319334D01*
X150685205Y-88345781D01*
X150596729Y-88417718D01*
X150669166Y-88524034D01*
X150810118Y-88609022D01*
X151048461Y-88712981D01*
X151224085Y-88726249D01*
X151418626Y-88645275D01*
X151533430Y-88577548D01*
X151819092Y-88340811D01*
X151959244Y-88050779D01*
X151983333Y-87812695D01*
X151903757Y-87415065D01*
X151679188Y-87083821D01*
X151408677Y-86889188D01*
X151180000Y-86789940D01*
X150996710Y-86776223D01*
X150769121Y-86838213D01*
X150769121Y-86838213D01*
G37*
X150769121Y-86838213D02*
X150506602Y-86939700D01*
X150392409Y-87022696D01*
X150410132Y-87107885D01*
X150495885Y-87182576D01*
X150639907Y-87258038D01*
X150759704Y-87209282D01*
X150798752Y-87175653D01*
X150975506Y-87065124D01*
X151145554Y-87090350D01*
X151352182Y-87257152D01*
X151525138Y-87525811D01*
X151555631Y-87806236D01*
X151459522Y-88058523D01*
X151252673Y-88242766D01*
X150950944Y-88319060D01*
X150929997Y-88319334D01*
X150685205Y-88345781D01*
X150596729Y-88417718D01*
X150669166Y-88524034D01*
X150810118Y-88609022D01*
X151048461Y-88712981D01*
X151224085Y-88726249D01*
X151418626Y-88645275D01*
X151533430Y-88577548D01*
X151819092Y-88340811D01*
X151959244Y-88050779D01*
X151983333Y-87812695D01*
X151903757Y-87415065D01*
X151679188Y-87083821D01*
X151408677Y-86889188D01*
X151180000Y-86789940D01*
X150996710Y-86776223D01*
X150769121Y-86838213D01*
G36*
X121021455Y-86703948D02*
X120808279Y-86913673D01*
X120688824Y-87218998D01*
X120686357Y-87233613D01*
X120705518Y-87553889D01*
X120865468Y-87795392D01*
X121149748Y-87942169D01*
X121457152Y-87980667D01*
X121719563Y-87995828D01*
X121823614Y-88052167D01*
X121778438Y-88165967D01*
X121641323Y-88309009D01*
X121477963Y-88434635D01*
X121300026Y-88490372D01*
X121054061Y-88484591D01*
X120783667Y-88443305D01*
X120445000Y-88383223D01*
X120619395Y-88565654D01*
X120909604Y-88756084D01*
X121262727Y-88794218D01*
X121666438Y-88679460D01*
X121782980Y-88621935D01*
X122093465Y-88471893D01*
X122320487Y-88416967D01*
X122518733Y-88454353D01*
X122731000Y-88573334D01*
X123065688Y-88723017D01*
X123358555Y-88720739D01*
X123589205Y-88582508D01*
X123737242Y-88324336D01*
X123782272Y-87962231D01*
X123762525Y-87763600D01*
X123615276Y-87354086D01*
X123335355Y-87008548D01*
X123134006Y-86862274D01*
X122950006Y-86771410D01*
X122821408Y-86775733D01*
X122702594Y-86845908D01*
X122563009Y-87001894D01*
X122519333Y-87138801D01*
X122551769Y-87278778D01*
X122663155Y-87280548D01*
X122768771Y-87223278D01*
X122953985Y-87192985D01*
X123145200Y-87327335D01*
X123336532Y-87622055D01*
X123347112Y-87643176D01*
X123472862Y-87955382D01*
X123475331Y-88159847D01*
X123344624Y-88274597D01*
X123070848Y-88317656D01*
X122975968Y-88319334D01*
X122521019Y-88319334D01*
X122279919Y-87787598D01*
X122078739Y-87403732D01*
X121672667Y-87403732D01*
X121641551Y-87515649D01*
X121517485Y-87548430D01*
X121397500Y-87541531D01*
X121206810Y-87503350D01*
X121132818Y-87404532D01*
X121122333Y-87261000D01*
X121143134Y-87083087D01*
X121226288Y-87030283D01*
X121291667Y-87036212D01*
X121544396Y-87139653D01*
X121665103Y-87329710D01*
X121672667Y-87403732D01*
X122078739Y-87403732D01*
X122055734Y-87359838D01*
X121812292Y-87008057D01*
X121571279Y-86757766D01*
X121354386Y-86634471D01*
X121292276Y-86626000D01*
X121021455Y-86703948D01*
X121021455Y-86703948D01*
G37*
X121021455Y-86703948D02*
X120808279Y-86913673D01*
X120688824Y-87218998D01*
X120686357Y-87233613D01*
X120705518Y-87553889D01*
X120865468Y-87795392D01*
X121149748Y-87942169D01*
X121457152Y-87980667D01*
X121719563Y-87995828D01*
X121823614Y-88052167D01*
X121778438Y-88165967D01*
X121641323Y-88309009D01*
X121477963Y-88434635D01*
X121300026Y-88490372D01*
X121054061Y-88484591D01*
X120783667Y-88443305D01*
X120445000Y-88383223D01*
X120619395Y-88565654D01*
X120909604Y-88756084D01*
X121262727Y-88794218D01*
X121666438Y-88679460D01*
X121782980Y-88621935D01*
X122093465Y-88471893D01*
X122320487Y-88416967D01*
X122518733Y-88454353D01*
X122731000Y-88573334D01*
X123065688Y-88723017D01*
X123358555Y-88720739D01*
X123589205Y-88582508D01*
X123737242Y-88324336D01*
X123782272Y-87962231D01*
X123762525Y-87763600D01*
X123615276Y-87354086D01*
X123335355Y-87008548D01*
X123134006Y-86862274D01*
X122950006Y-86771410D01*
X122821408Y-86775733D01*
X122702594Y-86845908D01*
X122563009Y-87001894D01*
X122519333Y-87138801D01*
X122551769Y-87278778D01*
X122663155Y-87280548D01*
X122768771Y-87223278D01*
X122953985Y-87192985D01*
X123145200Y-87327335D01*
X123336532Y-87622055D01*
X123347112Y-87643176D01*
X123472862Y-87955382D01*
X123475331Y-88159847D01*
X123344624Y-88274597D01*
X123070848Y-88317656D01*
X122975968Y-88319334D01*
X122521019Y-88319334D01*
X122279919Y-87787598D01*
X122078739Y-87403732D01*
X121672667Y-87403732D01*
X121641551Y-87515649D01*
X121517485Y-87548430D01*
X121397500Y-87541531D01*
X121206810Y-87503350D01*
X121132818Y-87404532D01*
X121122333Y-87261000D01*
X121143134Y-87083087D01*
X121226288Y-87030283D01*
X121291667Y-87036212D01*
X121544396Y-87139653D01*
X121665103Y-87329710D01*
X121672667Y-87403732D01*
X122078739Y-87403732D01*
X122055734Y-87359838D01*
X121812292Y-87008057D01*
X121571279Y-86757766D01*
X121354386Y-86634471D01*
X121292276Y-86626000D01*
X121021455Y-86703948D01*
G36*
X138554802Y-85417954D02*
X138499587Y-85501730D01*
X138469215Y-85687033D01*
X138453499Y-85938827D01*
X138452701Y-86265340D01*
X138476781Y-86557122D01*
X138510086Y-86714796D01*
X138558890Y-86922252D01*
X138505683Y-86999892D01*
X138338903Y-86956402D01*
X138247480Y-86912067D01*
X137943282Y-86820801D01*
X137687571Y-86890219D01*
X137474377Y-87122523D01*
X137421697Y-87216649D01*
X137269279Y-87636320D01*
X137273193Y-88005448D01*
X137434973Y-88342133D01*
X137526551Y-88452801D01*
X137862599Y-88703123D01*
X138255783Y-88804905D01*
X138667756Y-88749078D01*
X138712006Y-88733143D01*
X138874016Y-88637367D01*
X138973056Y-88473574D01*
X139035347Y-88197760D01*
X138511368Y-88197760D01*
X138441736Y-88407466D01*
X138391028Y-88459221D01*
X138134470Y-88565866D01*
X137895408Y-88510225D01*
X137807842Y-88440413D01*
X137644151Y-88162251D01*
X137624510Y-87811148D01*
X137675139Y-87598236D01*
X137799011Y-87339134D01*
X137949633Y-87245612D01*
X138134908Y-87314967D01*
X138238684Y-87405532D01*
X138401935Y-87642105D01*
X138495466Y-87924410D01*
X138511368Y-88197760D01*
X139035347Y-88197760D01*
X139036187Y-88194045D01*
X139042700Y-88150000D01*
X139038997Y-87992668D01*
X139008255Y-87747050D01*
X138990284Y-87642000D01*
X138955941Y-87395633D01*
X138919673Y-87035567D01*
X138886621Y-86617291D01*
X138868702Y-86329667D01*
X138844010Y-85921435D01*
X138818828Y-85653335D01*
X138786277Y-85496287D01*
X138739474Y-85421212D01*
X138671540Y-85399028D01*
X138648333Y-85398334D01*
X138554802Y-85417954D01*
X138554802Y-85417954D01*
G37*
X138554802Y-85417954D02*
X138499587Y-85501730D01*
X138469215Y-85687033D01*
X138453499Y-85938827D01*
X138452701Y-86265340D01*
X138476781Y-86557122D01*
X138510086Y-86714796D01*
X138558890Y-86922252D01*
X138505683Y-86999892D01*
X138338903Y-86956402D01*
X138247480Y-86912067D01*
X137943282Y-86820801D01*
X137687571Y-86890219D01*
X137474377Y-87122523D01*
X137421697Y-87216649D01*
X137269279Y-87636320D01*
X137273193Y-88005448D01*
X137434973Y-88342133D01*
X137526551Y-88452801D01*
X137862599Y-88703123D01*
X138255783Y-88804905D01*
X138667756Y-88749078D01*
X138712006Y-88733143D01*
X138874016Y-88637367D01*
X138973056Y-88473574D01*
X139035347Y-88197760D01*
X138511368Y-88197760D01*
X138441736Y-88407466D01*
X138391028Y-88459221D01*
X138134470Y-88565866D01*
X137895408Y-88510225D01*
X137807842Y-88440413D01*
X137644151Y-88162251D01*
X137624510Y-87811148D01*
X137675139Y-87598236D01*
X137799011Y-87339134D01*
X137949633Y-87245612D01*
X138134908Y-87314967D01*
X138238684Y-87405532D01*
X138401935Y-87642105D01*
X138495466Y-87924410D01*
X138511368Y-88197760D01*
X139035347Y-88197760D01*
X139036187Y-88194045D01*
X139042700Y-88150000D01*
X139038997Y-87992668D01*
X139008255Y-87747050D01*
X138990284Y-87642000D01*
X138955941Y-87395633D01*
X138919673Y-87035567D01*
X138886621Y-86617291D01*
X138868702Y-86329667D01*
X138844010Y-85921435D01*
X138818828Y-85653335D01*
X138786277Y-85496287D01*
X138739474Y-85421212D01*
X138671540Y-85399028D01*
X138648333Y-85398334D01*
X138554802Y-85417954D01*
G36*
X146499116Y-86874075D02*
X146399495Y-86990548D01*
X146340022Y-87142829D01*
X146280363Y-87573099D01*
X146370110Y-87996765D01*
X146592536Y-88374446D01*
X146930917Y-88666763D01*
X147004962Y-88708378D01*
X147272000Y-88807862D01*
X147531954Y-88799201D01*
X147813500Y-88701107D01*
X147999806Y-88592909D01*
X148095530Y-88484594D01*
X148098321Y-88471587D01*
X148114732Y-88310381D01*
X148136842Y-88112430D01*
X148116472Y-87924693D01*
X147748704Y-87924693D01*
X147715599Y-88204256D01*
X147597438Y-88377020D01*
X147408943Y-88479083D01*
X147210948Y-88550071D01*
X147085638Y-88546474D01*
X146948877Y-88457586D01*
X146894128Y-88413571D01*
X146778111Y-88290873D01*
X146717616Y-88127870D01*
X146695806Y-87869287D01*
X146694248Y-87757404D01*
X146696582Y-87479862D01*
X146721419Y-87329175D01*
X146789977Y-87262869D01*
X146923469Y-87238471D01*
X146955010Y-87235351D01*
X147247616Y-87280506D01*
X147509377Y-87444831D01*
X147691933Y-87686322D01*
X147748704Y-87924693D01*
X148116472Y-87924693D01*
X148099902Y-87771990D01*
X147930018Y-87403726D01*
X147713543Y-87122001D01*
X147457332Y-86939380D01*
X147184404Y-86886827D01*
X146908445Y-86872986D01*
X146668848Y-86857055D01*
X146651295Y-86855598D01*
X146499116Y-86874075D01*
X146499116Y-86874075D01*
G37*
X146499116Y-86874075D02*
X146399495Y-86990548D01*
X146340022Y-87142829D01*
X146280363Y-87573099D01*
X146370110Y-87996765D01*
X146592536Y-88374446D01*
X146930917Y-88666763D01*
X147004962Y-88708378D01*
X147272000Y-88807862D01*
X147531954Y-88799201D01*
X147813500Y-88701107D01*
X147999806Y-88592909D01*
X148095530Y-88484594D01*
X148098321Y-88471587D01*
X148114732Y-88310381D01*
X148136842Y-88112430D01*
X148116472Y-87924693D01*
X147748704Y-87924693D01*
X147715599Y-88204256D01*
X147597438Y-88377020D01*
X147408943Y-88479083D01*
X147210948Y-88550071D01*
X147085638Y-88546474D01*
X146948877Y-88457586D01*
X146894128Y-88413571D01*
X146778111Y-88290873D01*
X146717616Y-88127870D01*
X146695806Y-87869287D01*
X146694248Y-87757404D01*
X146696582Y-87479862D01*
X146721419Y-87329175D01*
X146789977Y-87262869D01*
X146923469Y-87238471D01*
X146955010Y-87235351D01*
X147247616Y-87280506D01*
X147509377Y-87444831D01*
X147691933Y-87686322D01*
X147748704Y-87924693D01*
X148116472Y-87924693D01*
X148099902Y-87771990D01*
X147930018Y-87403726D01*
X147713543Y-87122001D01*
X147457332Y-86939380D01*
X147184404Y-86886827D01*
X146908445Y-86872986D01*
X146668848Y-86857055D01*
X146651295Y-86855598D01*
X146499116Y-86874075D01*
G36*
X153042068Y-85544670D02*
X152999333Y-85581149D01*
X153031443Y-85712343D01*
X153116228Y-85954644D01*
X153236371Y-86264967D01*
X153374556Y-86600228D01*
X153513468Y-86917342D01*
X153635789Y-87173224D01*
X153650842Y-87202160D01*
X153971447Y-87804533D01*
X154226186Y-88268667D01*
X154424744Y-88607869D01*
X154576805Y-88835444D01*
X154692056Y-88964699D01*
X154780179Y-89008940D01*
X154850860Y-88981473D01*
X154900193Y-88918699D01*
X154885418Y-88812772D01*
X154803877Y-88599193D01*
X154671581Y-88318030D01*
X154621074Y-88220199D01*
X154421514Y-87841465D01*
X154209847Y-87439138D01*
X154031091Y-87098788D01*
X154027356Y-87091667D01*
X153847757Y-86724808D01*
X153668451Y-86320117D01*
X153570489Y-86075667D01*
X153443483Y-85776285D01*
X153329398Y-85609682D01*
X153204997Y-85543212D01*
X153189684Y-85540612D01*
X153042068Y-85544670D01*
X153042068Y-85544670D01*
G37*
X153042068Y-85544670D02*
X152999333Y-85581149D01*
X153031443Y-85712343D01*
X153116228Y-85954644D01*
X153236371Y-86264967D01*
X153374556Y-86600228D01*
X153513468Y-86917342D01*
X153635789Y-87173224D01*
X153650842Y-87202160D01*
X153971447Y-87804533D01*
X154226186Y-88268667D01*
X154424744Y-88607869D01*
X154576805Y-88835444D01*
X154692056Y-88964699D01*
X154780179Y-89008940D01*
X154850860Y-88981473D01*
X154900193Y-88918699D01*
X154885418Y-88812772D01*
X154803877Y-88599193D01*
X154671581Y-88318030D01*
X154621074Y-88220199D01*
X154421514Y-87841465D01*
X154209847Y-87439138D01*
X154031091Y-87098788D01*
X154027356Y-87091667D01*
X153847757Y-86724808D01*
X153668451Y-86320117D01*
X153570489Y-86075667D01*
X153443483Y-85776285D01*
X153329398Y-85609682D01*
X153204997Y-85543212D01*
X153189684Y-85540612D01*
X153042068Y-85544670D01*
G36*
X154382515Y-85822252D02*
X154352756Y-85969023D01*
X154405905Y-86239914D01*
X154543401Y-86640238D01*
X154766683Y-87175305D01*
X155015603Y-87720043D01*
X155267046Y-88248925D01*
X155460968Y-88639019D01*
X155607795Y-88906640D01*
X155717949Y-89068106D01*
X155801855Y-89139733D01*
X155869937Y-89137836D01*
X155904458Y-89111320D01*
X155954974Y-89006468D01*
X155945538Y-88836452D01*
X155870139Y-88582615D01*
X155722767Y-88226299D01*
X155497413Y-87748847D01*
X155405791Y-87563297D01*
X155197719Y-87138834D01*
X155009116Y-86742276D01*
X154857144Y-86410557D01*
X154758968Y-86180611D01*
X154741201Y-86133071D01*
X154638427Y-85925523D01*
X154519570Y-85803738D01*
X154493743Y-85794292D01*
X154382515Y-85822252D01*
X154382515Y-85822252D01*
G37*
X154382515Y-85822252D02*
X154352756Y-85969023D01*
X154405905Y-86239914D01*
X154543401Y-86640238D01*
X154766683Y-87175305D01*
X155015603Y-87720043D01*
X155267046Y-88248925D01*
X155460968Y-88639019D01*
X155607795Y-88906640D01*
X155717949Y-89068106D01*
X155801855Y-89139733D01*
X155869937Y-89137836D01*
X155904458Y-89111320D01*
X155954974Y-89006468D01*
X155945538Y-88836452D01*
X155870139Y-88582615D01*
X155722767Y-88226299D01*
X155497413Y-87748847D01*
X155405791Y-87563297D01*
X155197719Y-87138834D01*
X155009116Y-86742276D01*
X154857144Y-86410557D01*
X154758968Y-86180611D01*
X154741201Y-86133071D01*
X154638427Y-85925523D01*
X154519570Y-85803738D01*
X154493743Y-85794292D01*
X154382515Y-85822252D01*
G36*
X167541230Y-87204859D02*
X167465191Y-87277846D01*
X167291925Y-87451112D01*
X167659796Y-87653684D01*
X168027667Y-87856255D01*
X168053131Y-88445287D01*
X168093894Y-88827103D01*
X168173457Y-89074488D01*
X168285498Y-89176495D01*
X168423693Y-89122178D01*
X168436889Y-89109556D01*
X168469235Y-88993884D01*
X168487495Y-88759374D01*
X168492413Y-88455871D01*
X168484737Y-88133218D01*
X168465211Y-87841261D01*
X168434581Y-87629843D01*
X168413811Y-87566946D01*
X168290426Y-87441845D01*
X168075795Y-87305375D01*
X167986373Y-87261469D01*
X167768431Y-87169049D01*
X167641104Y-87149518D01*
X167541230Y-87204859D01*
X167541230Y-87204859D01*
G37*
X167541230Y-87204859D02*
X167465191Y-87277846D01*
X167291925Y-87451112D01*
X167659796Y-87653684D01*
X168027667Y-87856255D01*
X168053131Y-88445287D01*
X168093894Y-88827103D01*
X168173457Y-89074488D01*
X168285498Y-89176495D01*
X168423693Y-89122178D01*
X168436889Y-89109556D01*
X168469235Y-88993884D01*
X168487495Y-88759374D01*
X168492413Y-88455871D01*
X168484737Y-88133218D01*
X168465211Y-87841261D01*
X168434581Y-87629843D01*
X168413811Y-87566946D01*
X168290426Y-87441845D01*
X168075795Y-87305375D01*
X167986373Y-87261469D01*
X167768431Y-87169049D01*
X167641104Y-87149518D01*
X167541230Y-87204859D01*
G36*
X174608299Y-87179163D02*
X174383336Y-87192426D01*
X174263217Y-87223285D01*
X174215713Y-87278901D01*
X174208333Y-87345667D01*
X174230098Y-87444788D01*
X174322116Y-87498244D01*
X174524477Y-87521840D01*
X174668503Y-87527095D01*
X174985963Y-87555744D01*
X175175773Y-87628347D01*
X175240003Y-87691444D01*
X175324214Y-87914618D01*
X175347126Y-88220750D01*
X175307670Y-88534538D01*
X175254219Y-88693842D01*
X175200134Y-88887315D01*
X175261386Y-89032599D01*
X175264586Y-89036493D01*
X175435941Y-89155874D01*
X175592724Y-89112503D01*
X175684495Y-88968814D01*
X175716253Y-88798753D01*
X175738137Y-88509568D01*
X175747055Y-88151332D01*
X175745899Y-87973981D01*
X175732333Y-87176334D01*
X174970333Y-87176334D01*
X174608299Y-87179163D01*
X174608299Y-87179163D01*
G37*
X174608299Y-87179163D02*
X174383336Y-87192426D01*
X174263217Y-87223285D01*
X174215713Y-87278901D01*
X174208333Y-87345667D01*
X174230098Y-87444788D01*
X174322116Y-87498244D01*
X174524477Y-87521840D01*
X174668503Y-87527095D01*
X174985963Y-87555744D01*
X175175773Y-87628347D01*
X175240003Y-87691444D01*
X175324214Y-87914618D01*
X175347126Y-88220750D01*
X175307670Y-88534538D01*
X175254219Y-88693842D01*
X175200134Y-88887315D01*
X175261386Y-89032599D01*
X175264586Y-89036493D01*
X175435941Y-89155874D01*
X175592724Y-89112503D01*
X175684495Y-88968814D01*
X175716253Y-88798753D01*
X175738137Y-88509568D01*
X175747055Y-88151332D01*
X175745899Y-87973981D01*
X175732333Y-87176334D01*
X174970333Y-87176334D01*
X174608299Y-87179163D01*
G36*
X171728006Y-86225763D02*
X171699867Y-86256383D01*
X171614920Y-86436683D01*
X171541063Y-86731182D01*
X171485679Y-87084787D01*
X171456151Y-87442403D01*
X171459862Y-87748937D01*
X171481411Y-87886571D01*
X171517973Y-88182087D01*
X171500733Y-88466875D01*
X171448595Y-88661701D01*
X171362441Y-88730715D01*
X171218345Y-88721112D01*
X170987779Y-88667446D01*
X170842833Y-88618583D01*
X170731147Y-88604158D01*
X170695483Y-88718279D01*
X170694667Y-88759759D01*
X170738020Y-88982773D01*
X170800500Y-89106344D01*
X170986120Y-89237701D01*
X171246334Y-89300175D01*
X171494885Y-89277801D01*
X171562502Y-89247370D01*
X171764599Y-89037219D01*
X171901737Y-88719142D01*
X171950718Y-88349313D01*
X171949791Y-88309461D01*
X171959607Y-88062218D01*
X172038311Y-87889156D01*
X172223172Y-87708792D01*
X172225371Y-87706938D01*
X172399066Y-87553702D01*
X172456241Y-87463616D01*
X172411475Y-87392656D01*
X172345667Y-87343703D01*
X172166694Y-87211013D01*
X172070500Y-87133550D01*
X171988903Y-86972383D01*
X171969964Y-86737423D01*
X172017198Y-86513544D01*
X172042797Y-86464345D01*
X172095814Y-86283335D01*
X172029751Y-86164271D01*
X171891513Y-86135599D01*
X171728006Y-86225763D01*
X171728006Y-86225763D01*
G37*
X171728006Y-86225763D02*
X171699867Y-86256383D01*
X171614920Y-86436683D01*
X171541063Y-86731182D01*
X171485679Y-87084787D01*
X171456151Y-87442403D01*
X171459862Y-87748937D01*
X171481411Y-87886571D01*
X171517973Y-88182087D01*
X171500733Y-88466875D01*
X171448595Y-88661701D01*
X171362441Y-88730715D01*
X171218345Y-88721112D01*
X170987779Y-88667446D01*
X170842833Y-88618583D01*
X170731147Y-88604158D01*
X170695483Y-88718279D01*
X170694667Y-88759759D01*
X170738020Y-88982773D01*
X170800500Y-89106344D01*
X170986120Y-89237701D01*
X171246334Y-89300175D01*
X171494885Y-89277801D01*
X171562502Y-89247370D01*
X171764599Y-89037219D01*
X171901737Y-88719142D01*
X171950718Y-88349313D01*
X171949791Y-88309461D01*
X171959607Y-88062218D01*
X172038311Y-87889156D01*
X172223172Y-87708792D01*
X172225371Y-87706938D01*
X172399066Y-87553702D01*
X172456241Y-87463616D01*
X172411475Y-87392656D01*
X172345667Y-87343703D01*
X172166694Y-87211013D01*
X172070500Y-87133550D01*
X171988903Y-86972383D01*
X171969964Y-86737423D01*
X172017198Y-86513544D01*
X172042797Y-86464345D01*
X172095814Y-86283335D01*
X172029751Y-86164271D01*
X171891513Y-86135599D01*
X171728006Y-86225763D01*
G36*
X173093353Y-87267369D02*
X172902145Y-87441752D01*
X172746538Y-87737004D01*
X172743948Y-88003726D01*
X172882991Y-88213106D01*
X173152285Y-88336331D01*
X173262054Y-88352679D01*
X173549663Y-88403421D01*
X173679211Y-88496155D01*
X173658959Y-88641079D01*
X173584095Y-88750280D01*
X173454742Y-88883064D01*
X173326183Y-88907049D01*
X173144974Y-88851171D01*
X172891404Y-88786715D01*
X172756545Y-88833598D01*
X172726667Y-88946208D01*
X172802777Y-89127833D01*
X172997504Y-89272309D01*
X173260442Y-89352758D01*
X173488667Y-89352553D01*
X173770100Y-89240914D01*
X174016321Y-88988923D01*
X174181729Y-88711702D01*
X174288449Y-88434421D01*
X174287668Y-88190195D01*
X174168491Y-87938531D01*
X174129843Y-87891929D01*
X173448584Y-87891929D01*
X173445003Y-87898153D01*
X173338311Y-87938135D01*
X173268598Y-87923394D01*
X173190302Y-87846999D01*
X173221599Y-87790535D01*
X173335518Y-87750552D01*
X173436455Y-87796525D01*
X173448584Y-87891929D01*
X174129843Y-87891929D01*
X173920025Y-87638934D01*
X173882500Y-87599400D01*
X173578582Y-87332856D01*
X173320037Y-87222903D01*
X173093353Y-87267369D01*
X173093353Y-87267369D01*
G37*
X173093353Y-87267369D02*
X172902145Y-87441752D01*
X172746538Y-87737004D01*
X172743948Y-88003726D01*
X172882991Y-88213106D01*
X173152285Y-88336331D01*
X173262054Y-88352679D01*
X173549663Y-88403421D01*
X173679211Y-88496155D01*
X173658959Y-88641079D01*
X173584095Y-88750280D01*
X173454742Y-88883064D01*
X173326183Y-88907049D01*
X173144974Y-88851171D01*
X172891404Y-88786715D01*
X172756545Y-88833598D01*
X172726667Y-88946208D01*
X172802777Y-89127833D01*
X172997504Y-89272309D01*
X173260442Y-89352758D01*
X173488667Y-89352553D01*
X173770100Y-89240914D01*
X174016321Y-88988923D01*
X174181729Y-88711702D01*
X174288449Y-88434421D01*
X174287668Y-88190195D01*
X174168491Y-87938531D01*
X174129843Y-87891929D01*
X173448584Y-87891929D01*
X173445003Y-87898153D01*
X173338311Y-87938135D01*
X173268598Y-87923394D01*
X173190302Y-87846999D01*
X173221599Y-87790535D01*
X173335518Y-87750552D01*
X173436455Y-87796525D01*
X173448584Y-87891929D01*
X174129843Y-87891929D01*
X173920025Y-87638934D01*
X173882500Y-87599400D01*
X173578582Y-87332856D01*
X173320037Y-87222903D01*
X173093353Y-87267369D01*
G36*
X135399073Y-87014822D02*
X135296681Y-87194554D01*
X135189878Y-87475252D01*
X135098847Y-87790343D01*
X135043766Y-88073253D01*
X135036883Y-88209635D01*
X135090905Y-88530274D01*
X135198772Y-88879349D01*
X135335181Y-89186247D01*
X135446352Y-89352297D01*
X135668235Y-89474968D01*
X135991221Y-89478843D01*
X136235333Y-89420000D01*
X136458397Y-89374110D01*
X136743043Y-89346171D01*
X136806833Y-89343773D01*
X137061688Y-89321433D01*
X137164141Y-89279116D01*
X137127795Y-89230261D01*
X136966252Y-89188309D01*
X136693115Y-89166698D01*
X136626917Y-89166000D01*
X136144609Y-89151369D01*
X135810386Y-89104418D01*
X135605285Y-89020564D01*
X135510638Y-88896155D01*
X135466070Y-88686885D01*
X135440502Y-88435094D01*
X135436549Y-88202006D01*
X135456831Y-88048845D01*
X135473309Y-88023015D01*
X135560255Y-88057218D01*
X135716812Y-88184319D01*
X135815193Y-88280295D01*
X136044341Y-88478426D01*
X136261586Y-88562832D01*
X136405093Y-88573334D01*
X136651348Y-88544835D01*
X136840596Y-88475431D01*
X136852023Y-88467500D01*
X136971579Y-88286605D01*
X137030690Y-88006509D01*
X137023617Y-87688262D01*
X136951542Y-87408997D01*
X136834521Y-87201650D01*
X136732997Y-87156628D01*
X136656752Y-87267018D01*
X136615566Y-87525909D01*
X136611253Y-87649483D01*
X136604608Y-87983595D01*
X136586974Y-88182990D01*
X136548066Y-88282281D01*
X136477596Y-88316083D01*
X136412193Y-88319334D01*
X136223372Y-88244427D01*
X136032088Y-88050366D01*
X135873324Y-87783138D01*
X135782502Y-87491520D01*
X135710658Y-87238894D01*
X135601703Y-87057012D01*
X135482733Y-86979558D01*
X135399073Y-87014822D01*
X135399073Y-87014822D01*
G37*
X135399073Y-87014822D02*
X135296681Y-87194554D01*
X135189878Y-87475252D01*
X135098847Y-87790343D01*
X135043766Y-88073253D01*
X135036883Y-88209635D01*
X135090905Y-88530274D01*
X135198772Y-88879349D01*
X135335181Y-89186247D01*
X135446352Y-89352297D01*
X135668235Y-89474968D01*
X135991221Y-89478843D01*
X136235333Y-89420000D01*
X136458397Y-89374110D01*
X136743043Y-89346171D01*
X136806833Y-89343773D01*
X137061688Y-89321433D01*
X137164141Y-89279116D01*
X137127795Y-89230261D01*
X136966252Y-89188309D01*
X136693115Y-89166698D01*
X136626917Y-89166000D01*
X136144609Y-89151369D01*
X135810386Y-89104418D01*
X135605285Y-89020564D01*
X135510638Y-88896155D01*
X135466070Y-88686885D01*
X135440502Y-88435094D01*
X135436549Y-88202006D01*
X135456831Y-88048845D01*
X135473309Y-88023015D01*
X135560255Y-88057218D01*
X135716812Y-88184319D01*
X135815193Y-88280295D01*
X136044341Y-88478426D01*
X136261586Y-88562832D01*
X136405093Y-88573334D01*
X136651348Y-88544835D01*
X136840596Y-88475431D01*
X136852023Y-88467500D01*
X136971579Y-88286605D01*
X137030690Y-88006509D01*
X137023617Y-87688262D01*
X136951542Y-87408997D01*
X136834521Y-87201650D01*
X136732997Y-87156628D01*
X136656752Y-87267018D01*
X136615566Y-87525909D01*
X136611253Y-87649483D01*
X136604608Y-87983595D01*
X136586974Y-88182990D01*
X136548066Y-88282281D01*
X136477596Y-88316083D01*
X136412193Y-88319334D01*
X136223372Y-88244427D01*
X136032088Y-88050366D01*
X135873324Y-87783138D01*
X135782502Y-87491520D01*
X135710658Y-87238894D01*
X135601703Y-87057012D01*
X135482733Y-86979558D01*
X135399073Y-87014822D01*
G36*
X165844347Y-87268029D02*
X165718083Y-87330687D01*
X165631036Y-87412909D01*
X165361484Y-87813058D01*
X165234933Y-88292429D01*
X165237411Y-88769879D01*
X165300036Y-89168547D01*
X165392470Y-89409608D01*
X165518772Y-89502820D01*
X165543024Y-89504667D01*
X165638413Y-89438024D01*
X165657987Y-89398834D01*
X165678802Y-89267917D01*
X165699517Y-89017056D01*
X165716251Y-88695595D01*
X165718830Y-88625654D01*
X165736606Y-88279459D01*
X165768154Y-88061201D01*
X165824331Y-87929506D01*
X165915993Y-87843003D01*
X165925961Y-87836281D01*
X166072684Y-87763071D01*
X166189892Y-87802120D01*
X166285794Y-87889794D01*
X166431080Y-88147385D01*
X166461333Y-88401128D01*
X166500211Y-88712690D01*
X166594699Y-89015929D01*
X166603659Y-89035381D01*
X166701598Y-89221943D01*
X166775849Y-89276193D01*
X166869671Y-89221354D01*
X166899992Y-89194464D01*
X166975394Y-89097967D01*
X167022035Y-88949994D01*
X167046121Y-88713451D01*
X167053863Y-88351241D01*
X167054000Y-88274245D01*
X167041742Y-87820709D01*
X167004763Y-87532208D01*
X166948167Y-87409992D01*
X166811339Y-87357484D01*
X166564628Y-87306517D01*
X166325495Y-87275212D01*
X166028597Y-87253150D01*
X165844347Y-87268029D01*
X165844347Y-87268029D01*
G37*
X165844347Y-87268029D02*
X165718083Y-87330687D01*
X165631036Y-87412909D01*
X165361484Y-87813058D01*
X165234933Y-88292429D01*
X165237411Y-88769879D01*
X165300036Y-89168547D01*
X165392470Y-89409608D01*
X165518772Y-89502820D01*
X165543024Y-89504667D01*
X165638413Y-89438024D01*
X165657987Y-89398834D01*
X165678802Y-89267917D01*
X165699517Y-89017056D01*
X165716251Y-88695595D01*
X165718830Y-88625654D01*
X165736606Y-88279459D01*
X165768154Y-88061201D01*
X165824331Y-87929506D01*
X165915993Y-87843003D01*
X165925961Y-87836281D01*
X166072684Y-87763071D01*
X166189892Y-87802120D01*
X166285794Y-87889794D01*
X166431080Y-88147385D01*
X166461333Y-88401128D01*
X166500211Y-88712690D01*
X166594699Y-89015929D01*
X166603659Y-89035381D01*
X166701598Y-89221943D01*
X166775849Y-89276193D01*
X166869671Y-89221354D01*
X166899992Y-89194464D01*
X166975394Y-89097967D01*
X167022035Y-88949994D01*
X167046121Y-88713451D01*
X167053863Y-88351241D01*
X167054000Y-88274245D01*
X167041742Y-87820709D01*
X167004763Y-87532208D01*
X166948167Y-87409992D01*
X166811339Y-87357484D01*
X166564628Y-87306517D01*
X166325495Y-87275212D01*
X166028597Y-87253150D01*
X165844347Y-87268029D01*
G36*
X162694674Y-86280942D02*
X162663371Y-86490222D01*
X162639958Y-86792192D01*
X162633463Y-86943500D01*
X162609000Y-87684334D01*
X162258990Y-87709888D01*
X161974523Y-87698608D01*
X161761729Y-87596945D01*
X161694255Y-87540555D01*
X161597471Y-87441866D01*
X161529239Y-87329443D01*
X161479881Y-87167564D01*
X161439719Y-86920507D01*
X161399075Y-86552547D01*
X161383389Y-86393167D01*
X161309872Y-86376298D01*
X161200624Y-86372000D01*
X161106632Y-86383117D01*
X161056643Y-86440962D01*
X161041960Y-86582277D01*
X161053888Y-86843804D01*
X161061862Y-86958285D01*
X161076062Y-87303479D01*
X161055158Y-87521605D01*
X160994454Y-87652173D01*
X160977145Y-87671237D01*
X160903878Y-87773911D01*
X160929268Y-87885052D01*
X161031239Y-88027703D01*
X161136277Y-88201293D01*
X161192153Y-88418940D01*
X161211425Y-88736272D01*
X161212000Y-88828385D01*
X161234310Y-89218761D01*
X161303897Y-89454220D01*
X161424745Y-89543552D01*
X161529500Y-89528576D01*
X161592055Y-89426663D01*
X161627295Y-89170959D01*
X161636630Y-88841445D01*
X161646515Y-88433170D01*
X161681525Y-88172285D01*
X161752617Y-88037441D01*
X161870751Y-88007289D01*
X162039178Y-88057261D01*
X162286708Y-88117492D01*
X162588139Y-88137398D01*
X162660831Y-88134272D01*
X163032333Y-88107667D01*
X163026940Y-87288681D01*
X163008420Y-86801751D01*
X162957791Y-86467836D01*
X162871229Y-86272997D01*
X162744909Y-86203294D01*
X162728929Y-86202667D01*
X162694674Y-86280942D01*
X162694674Y-86280942D01*
G37*
X162694674Y-86280942D02*
X162663371Y-86490222D01*
X162639958Y-86792192D01*
X162633463Y-86943500D01*
X162609000Y-87684334D01*
X162258990Y-87709888D01*
X161974523Y-87698608D01*
X161761729Y-87596945D01*
X161694255Y-87540555D01*
X161597471Y-87441866D01*
X161529239Y-87329443D01*
X161479881Y-87167564D01*
X161439719Y-86920507D01*
X161399075Y-86552547D01*
X161383389Y-86393167D01*
X161309872Y-86376298D01*
X161200624Y-86372000D01*
X161106632Y-86383117D01*
X161056643Y-86440962D01*
X161041960Y-86582277D01*
X161053888Y-86843804D01*
X161061862Y-86958285D01*
X161076062Y-87303479D01*
X161055158Y-87521605D01*
X160994454Y-87652173D01*
X160977145Y-87671237D01*
X160903878Y-87773911D01*
X160929268Y-87885052D01*
X161031239Y-88027703D01*
X161136277Y-88201293D01*
X161192153Y-88418940D01*
X161211425Y-88736272D01*
X161212000Y-88828385D01*
X161234310Y-89218761D01*
X161303897Y-89454220D01*
X161424745Y-89543552D01*
X161529500Y-89528576D01*
X161592055Y-89426663D01*
X161627295Y-89170959D01*
X161636630Y-88841445D01*
X161646515Y-88433170D01*
X161681525Y-88172285D01*
X161752617Y-88037441D01*
X161870751Y-88007289D01*
X162039178Y-88057261D01*
X162286708Y-88117492D01*
X162588139Y-88137398D01*
X162660831Y-88134272D01*
X163032333Y-88107667D01*
X163026940Y-87288681D01*
X163008420Y-86801751D01*
X162957791Y-86467836D01*
X162871229Y-86272997D01*
X162744909Y-86203294D01*
X162728929Y-86202667D01*
X162694674Y-86280942D01*
G36*
X170248475Y-87467411D02*
X170146971Y-87697788D01*
X170101377Y-88067345D01*
X170099307Y-88165601D01*
X170061119Y-88538700D01*
X169957531Y-88788406D01*
X169797300Y-88898413D01*
X169706227Y-88897473D01*
X169621885Y-88853299D01*
X169566937Y-88736285D01*
X169530506Y-88511094D01*
X169509333Y-88257802D01*
X169461857Y-87851125D01*
X169383872Y-87592864D01*
X169320849Y-87501641D01*
X169194133Y-87406701D01*
X169129670Y-87400775D01*
X169076456Y-87516886D01*
X169006353Y-87750395D01*
X168930342Y-88052395D01*
X168859406Y-88373976D01*
X168804525Y-88666232D01*
X168776680Y-88880253D01*
X168779779Y-88959096D01*
X168889984Y-89047771D01*
X169070221Y-89081334D01*
X169323186Y-89147488D01*
X169474097Y-89258509D01*
X169699557Y-89465323D01*
X169889216Y-89529091D01*
X170078321Y-89460479D01*
X170097854Y-89447242D01*
X170310579Y-89217003D01*
X170448430Y-88868666D01*
X170516195Y-88386777D01*
X170525333Y-88068053D01*
X170519100Y-87717988D01*
X170496845Y-87507684D01*
X170453238Y-87407907D01*
X170401312Y-87388000D01*
X170248475Y-87467411D01*
X170248475Y-87467411D01*
G37*
X170248475Y-87467411D02*
X170146971Y-87697788D01*
X170101377Y-88067345D01*
X170099307Y-88165601D01*
X170061119Y-88538700D01*
X169957531Y-88788406D01*
X169797300Y-88898413D01*
X169706227Y-88897473D01*
X169621885Y-88853299D01*
X169566937Y-88736285D01*
X169530506Y-88511094D01*
X169509333Y-88257802D01*
X169461857Y-87851125D01*
X169383872Y-87592864D01*
X169320849Y-87501641D01*
X169194133Y-87406701D01*
X169129670Y-87400775D01*
X169076456Y-87516886D01*
X169006353Y-87750395D01*
X168930342Y-88052395D01*
X168859406Y-88373976D01*
X168804525Y-88666232D01*
X168776680Y-88880253D01*
X168779779Y-88959096D01*
X168889984Y-89047771D01*
X169070221Y-89081334D01*
X169323186Y-89147488D01*
X169474097Y-89258509D01*
X169699557Y-89465323D01*
X169889216Y-89529091D01*
X170078321Y-89460479D01*
X170097854Y-89447242D01*
X170310579Y-89217003D01*
X170448430Y-88868666D01*
X170516195Y-88386777D01*
X170525333Y-88068053D01*
X170519100Y-87717988D01*
X170496845Y-87507684D01*
X170453238Y-87407907D01*
X170401312Y-87388000D01*
X170248475Y-87467411D01*
G36*
X159920757Y-88899390D02*
X159843305Y-89079112D01*
X159839160Y-89311825D01*
X159902128Y-89509425D01*
X160046087Y-89683611D01*
X160218897Y-89761593D01*
X160367102Y-89724610D01*
X160401133Y-89684572D01*
X160408797Y-89552236D01*
X160356174Y-89341903D01*
X160266665Y-89112196D01*
X160163670Y-88921739D01*
X160070592Y-88829156D01*
X160058946Y-88827334D01*
X159920757Y-88899390D01*
X159920757Y-88899390D01*
G37*
X159920757Y-88899390D02*
X159843305Y-89079112D01*
X159839160Y-89311825D01*
X159902128Y-89509425D01*
X160046087Y-89683611D01*
X160218897Y-89761593D01*
X160367102Y-89724610D01*
X160401133Y-89684572D01*
X160408797Y-89552236D01*
X160356174Y-89341903D01*
X160266665Y-89112196D01*
X160163670Y-88921739D01*
X160070592Y-88829156D01*
X160058946Y-88827334D01*
X159920757Y-88899390D01*
G36*
X110487628Y-93023920D02*
X110448984Y-93100354D01*
X110508794Y-93154620D01*
X110676379Y-93225037D01*
X110749039Y-93171517D01*
X110750667Y-93150330D01*
X110683974Y-93032172D01*
X110543460Y-93002223D01*
X110487628Y-93023920D01*
X110487628Y-93023920D01*
G37*
X110487628Y-93023920D02*
X110448984Y-93100354D01*
X110508794Y-93154620D01*
X110676379Y-93225037D01*
X110749039Y-93171517D01*
X110750667Y-93150330D01*
X110683974Y-93032172D01*
X110543460Y-93002223D01*
X110487628Y-93023920D01*
G36*
X115488357Y-90441895D02*
X115459488Y-90598299D01*
X115468513Y-90879696D01*
X115508419Y-91247810D01*
X115572198Y-91664363D01*
X115652837Y-92091077D01*
X115743327Y-92489675D01*
X115836657Y-92821880D01*
X115925815Y-93049414D01*
X115979626Y-93124167D01*
X116183283Y-93202226D01*
X116468629Y-93226443D01*
X116757048Y-93197529D01*
X116969925Y-93116199D01*
X116971343Y-93115169D01*
X117070022Y-92997491D01*
X117111718Y-92803281D01*
X117113026Y-92566403D01*
X117111273Y-92551678D01*
X116846667Y-92551678D01*
X116827402Y-92810910D01*
X116750863Y-92937449D01*
X116588935Y-92965407D01*
X116511169Y-92958721D01*
X116384416Y-92927794D01*
X116315931Y-92843356D01*
X116282876Y-92660719D01*
X116270709Y-92488220D01*
X116267434Y-92207837D01*
X116304478Y-92054100D01*
X116379696Y-91991118D01*
X116559978Y-91999926D01*
X116718836Y-92138198D01*
X116823381Y-92366453D01*
X116846667Y-92551678D01*
X117111273Y-92551678D01*
X117057419Y-92099477D01*
X116931427Y-91775924D01*
X116739261Y-91600288D01*
X116485135Y-91577113D01*
X116268981Y-91655920D01*
X116088396Y-91739422D01*
X115994402Y-91735901D01*
X115926804Y-91642765D01*
X115925936Y-91641145D01*
X115878376Y-91467634D01*
X115852894Y-91206707D01*
X115851430Y-91090628D01*
X115826064Y-90834388D01*
X115755497Y-90608439D01*
X115659794Y-90448632D01*
X115559020Y-90390819D01*
X115488357Y-90441895D01*
X115488357Y-90441895D01*
G37*
X115488357Y-90441895D02*
X115459488Y-90598299D01*
X115468513Y-90879696D01*
X115508419Y-91247810D01*
X115572198Y-91664363D01*
X115652837Y-92091077D01*
X115743327Y-92489675D01*
X115836657Y-92821880D01*
X115925815Y-93049414D01*
X115979626Y-93124167D01*
X116183283Y-93202226D01*
X116468629Y-93226443D01*
X116757048Y-93197529D01*
X116969925Y-93116199D01*
X116971343Y-93115169D01*
X117070022Y-92997491D01*
X117111718Y-92803281D01*
X117113026Y-92566403D01*
X117111273Y-92551678D01*
X116846667Y-92551678D01*
X116827402Y-92810910D01*
X116750863Y-92937449D01*
X116588935Y-92965407D01*
X116511169Y-92958721D01*
X116384416Y-92927794D01*
X116315931Y-92843356D01*
X116282876Y-92660719D01*
X116270709Y-92488220D01*
X116267434Y-92207837D01*
X116304478Y-92054100D01*
X116379696Y-91991118D01*
X116559978Y-91999926D01*
X116718836Y-92138198D01*
X116823381Y-92366453D01*
X116846667Y-92551678D01*
X117111273Y-92551678D01*
X117057419Y-92099477D01*
X116931427Y-91775924D01*
X116739261Y-91600288D01*
X116485135Y-91577113D01*
X116268981Y-91655920D01*
X116088396Y-91739422D01*
X115994402Y-91735901D01*
X115926804Y-91642765D01*
X115925936Y-91641145D01*
X115878376Y-91467634D01*
X115852894Y-91206707D01*
X115851430Y-91090628D01*
X115826064Y-90834388D01*
X115755497Y-90608439D01*
X115659794Y-90448632D01*
X115559020Y-90390819D01*
X115488357Y-90441895D01*
G36*
X112602793Y-91869060D02*
X112495957Y-91950959D01*
X112303289Y-92131961D01*
X112148856Y-91961314D01*
X111937314Y-91816421D01*
X111730847Y-91822251D01*
X111558399Y-91961887D01*
X111448910Y-92218410D01*
X111426921Y-92383334D01*
X111414235Y-92833490D01*
X111435488Y-93136607D01*
X111493357Y-93312068D01*
X111563545Y-93371995D01*
X111714774Y-93363032D01*
X111804761Y-93205362D01*
X111828177Y-92910113D01*
X111823902Y-92828311D01*
X111824356Y-92506925D01*
X111881996Y-92342667D01*
X111996226Y-92336692D01*
X112056547Y-92377978D01*
X112168522Y-92538914D01*
X112190000Y-92637334D01*
X112251071Y-92813657D01*
X112320588Y-92894312D01*
X112470929Y-92949052D01*
X112584004Y-92847908D01*
X112646472Y-92604195D01*
X112701002Y-92394855D01*
X112772554Y-92274913D01*
X112886119Y-92232948D01*
X112973909Y-92340348D01*
X113025754Y-92577864D01*
X113035370Y-92772378D01*
X113085820Y-93095547D01*
X113191500Y-93259211D01*
X113388881Y-93384128D01*
X113538507Y-93372697D01*
X113576735Y-93331276D01*
X113589265Y-93190275D01*
X113546720Y-92947185D01*
X113463277Y-92654437D01*
X113353111Y-92364468D01*
X113269253Y-92193999D01*
X113060494Y-91922878D01*
X112835159Y-91813565D01*
X112602793Y-91869060D01*
X112602793Y-91869060D01*
G37*
X112602793Y-91869060D02*
X112495957Y-91950959D01*
X112303289Y-92131961D01*
X112148856Y-91961314D01*
X111937314Y-91816421D01*
X111730847Y-91822251D01*
X111558399Y-91961887D01*
X111448910Y-92218410D01*
X111426921Y-92383334D01*
X111414235Y-92833490D01*
X111435488Y-93136607D01*
X111493357Y-93312068D01*
X111563545Y-93371995D01*
X111714774Y-93363032D01*
X111804761Y-93205362D01*
X111828177Y-92910113D01*
X111823902Y-92828311D01*
X111824356Y-92506925D01*
X111881996Y-92342667D01*
X111996226Y-92336692D01*
X112056547Y-92377978D01*
X112168522Y-92538914D01*
X112190000Y-92637334D01*
X112251071Y-92813657D01*
X112320588Y-92894312D01*
X112470929Y-92949052D01*
X112584004Y-92847908D01*
X112646472Y-92604195D01*
X112701002Y-92394855D01*
X112772554Y-92274913D01*
X112886119Y-92232948D01*
X112973909Y-92340348D01*
X113025754Y-92577864D01*
X113035370Y-92772378D01*
X113085820Y-93095547D01*
X113191500Y-93259211D01*
X113388881Y-93384128D01*
X113538507Y-93372697D01*
X113576735Y-93331276D01*
X113589265Y-93190275D01*
X113546720Y-92947185D01*
X113463277Y-92654437D01*
X113353111Y-92364468D01*
X113269253Y-92193999D01*
X113060494Y-91922878D01*
X112835159Y-91813565D01*
X112602793Y-91869060D01*
G36*
X114253779Y-91845736D02*
X113920102Y-92086765D01*
X113704066Y-92373756D01*
X113634015Y-92661660D01*
X113688050Y-92929294D01*
X113844271Y-93155475D01*
X114080777Y-93319021D01*
X114375668Y-93398748D01*
X114707044Y-93373475D01*
X115053005Y-93222019D01*
X115077313Y-93206070D01*
X115274724Y-93041426D01*
X115365474Y-92850250D01*
X115390877Y-92658971D01*
X115381160Y-92486829D01*
X115067777Y-92486829D01*
X115005050Y-92744875D01*
X114893188Y-92922249D01*
X114659707Y-93105451D01*
X114391865Y-93131454D01*
X114121986Y-92998708D01*
X114079290Y-92961242D01*
X113941667Y-92803697D01*
X113883347Y-92680839D01*
X113883333Y-92679667D01*
X113954605Y-92526411D01*
X114133021Y-92360029D01*
X114365484Y-92222129D01*
X114543360Y-92162428D01*
X114822958Y-92165255D01*
X115002422Y-92283506D01*
X115067777Y-92486829D01*
X115381160Y-92486829D01*
X115369657Y-92283060D01*
X115233253Y-92017802D01*
X114968929Y-91839024D01*
X114955997Y-91833531D01*
X114598130Y-91758801D01*
X114253779Y-91845736D01*
X114253779Y-91845736D01*
G37*
X114253779Y-91845736D02*
X113920102Y-92086765D01*
X113704066Y-92373756D01*
X113634015Y-92661660D01*
X113688050Y-92929294D01*
X113844271Y-93155475D01*
X114080777Y-93319021D01*
X114375668Y-93398748D01*
X114707044Y-93373475D01*
X115053005Y-93222019D01*
X115077313Y-93206070D01*
X115274724Y-93041426D01*
X115365474Y-92850250D01*
X115390877Y-92658971D01*
X115381160Y-92486829D01*
X115067777Y-92486829D01*
X115005050Y-92744875D01*
X114893188Y-92922249D01*
X114659707Y-93105451D01*
X114391865Y-93131454D01*
X114121986Y-92998708D01*
X114079290Y-92961242D01*
X113941667Y-92803697D01*
X113883347Y-92680839D01*
X113883333Y-92679667D01*
X113954605Y-92526411D01*
X114133021Y-92360029D01*
X114365484Y-92222129D01*
X114543360Y-92162428D01*
X114822958Y-92165255D01*
X115002422Y-92283506D01*
X115067777Y-92486829D01*
X115381160Y-92486829D01*
X115369657Y-92283060D01*
X115233253Y-92017802D01*
X114968929Y-91839024D01*
X114955997Y-91833531D01*
X114598130Y-91758801D01*
X114253779Y-91845736D01*
G36*
X134268002Y-90514388D02*
X134235649Y-90724938D01*
X134213329Y-91030727D01*
X134201461Y-91394834D01*
X134200465Y-91780335D01*
X134210761Y-92150310D01*
X134232770Y-92467836D01*
X134266911Y-92695991D01*
X134283610Y-92752786D01*
X134446492Y-93001310D01*
X134702084Y-93199473D01*
X135008280Y-93334886D01*
X135322972Y-93395158D01*
X135604056Y-93367898D01*
X135809425Y-93240717D01*
X135833403Y-93208834D01*
X135960126Y-93018334D01*
X136299758Y-93208834D01*
X136594459Y-93351513D01*
X136811856Y-93382790D01*
X137005635Y-93298572D01*
X137183578Y-93141448D01*
X137336450Y-92970463D01*
X137405087Y-92814133D01*
X137412128Y-92599782D01*
X137399610Y-92447976D01*
X137359123Y-92207296D01*
X136968915Y-92207296D01*
X136928118Y-92318717D01*
X136764337Y-92370594D01*
X136671838Y-92367019D01*
X136493702Y-92302148D01*
X136447000Y-92172826D01*
X136506849Y-92020492D01*
X136658251Y-91982224D01*
X136858988Y-92068267D01*
X136863739Y-92071709D01*
X136968915Y-92207296D01*
X137359123Y-92207296D01*
X137348780Y-92145818D01*
X137244732Y-91935452D01*
X137091542Y-91774529D01*
X136883685Y-91623799D01*
X136694305Y-91541711D01*
X136653483Y-91536667D01*
X136434661Y-91610687D01*
X136232867Y-91796050D01*
X136096560Y-92037706D01*
X136066000Y-92204007D01*
X136141913Y-92456328D01*
X136335053Y-92668652D01*
X136593523Y-92792594D01*
X136712418Y-92806667D01*
X136865985Y-92837148D01*
X136912667Y-92891334D01*
X136837156Y-92942571D01*
X136646806Y-92972668D01*
X136544789Y-92976000D01*
X136257770Y-92943274D01*
X136140013Y-92876420D01*
X135592779Y-92876420D01*
X135557356Y-92977204D01*
X135399735Y-93116365D01*
X135170304Y-93127991D01*
X134908177Y-93012486D01*
X134849752Y-92969855D01*
X134672852Y-92766935D01*
X134640061Y-92530075D01*
X134747323Y-92226450D01*
X134755841Y-92209796D01*
X134905734Y-92005106D01*
X135063738Y-91962642D01*
X135234857Y-92084087D01*
X135424093Y-92371123D01*
X135464295Y-92448037D01*
X135574297Y-92702797D01*
X135592779Y-92876420D01*
X136140013Y-92876420D01*
X136050478Y-92825589D01*
X135890145Y-92593686D01*
X135764306Y-92279041D01*
X135604247Y-91913292D01*
X135409085Y-91698797D01*
X135149035Y-91617562D01*
X134794313Y-91651591D01*
X134743956Y-91662569D01*
X134557955Y-91688304D01*
X134472913Y-91629123D01*
X134439563Y-91509775D01*
X134443752Y-91280768D01*
X134510621Y-91031219D01*
X134577183Y-90811417D01*
X134546554Y-90648961D01*
X134519480Y-90600736D01*
X134395979Y-90470062D01*
X134309967Y-90436000D01*
X134268002Y-90514388D01*
X134268002Y-90514388D01*
G37*
X134268002Y-90514388D02*
X134235649Y-90724938D01*
X134213329Y-91030727D01*
X134201461Y-91394834D01*
X134200465Y-91780335D01*
X134210761Y-92150310D01*
X134232770Y-92467836D01*
X134266911Y-92695991D01*
X134283610Y-92752786D01*
X134446492Y-93001310D01*
X134702084Y-93199473D01*
X135008280Y-93334886D01*
X135322972Y-93395158D01*
X135604056Y-93367898D01*
X135809425Y-93240717D01*
X135833403Y-93208834D01*
X135960126Y-93018334D01*
X136299758Y-93208834D01*
X136594459Y-93351513D01*
X136811856Y-93382790D01*
X137005635Y-93298572D01*
X137183578Y-93141448D01*
X137336450Y-92970463D01*
X137405087Y-92814133D01*
X137412128Y-92599782D01*
X137399610Y-92447976D01*
X137359123Y-92207296D01*
X136968915Y-92207296D01*
X136928118Y-92318717D01*
X136764337Y-92370594D01*
X136671838Y-92367019D01*
X136493702Y-92302148D01*
X136447000Y-92172826D01*
X136506849Y-92020492D01*
X136658251Y-91982224D01*
X136858988Y-92068267D01*
X136863739Y-92071709D01*
X136968915Y-92207296D01*
X137359123Y-92207296D01*
X137348780Y-92145818D01*
X137244732Y-91935452D01*
X137091542Y-91774529D01*
X136883685Y-91623799D01*
X136694305Y-91541711D01*
X136653483Y-91536667D01*
X136434661Y-91610687D01*
X136232867Y-91796050D01*
X136096560Y-92037706D01*
X136066000Y-92204007D01*
X136141913Y-92456328D01*
X136335053Y-92668652D01*
X136593523Y-92792594D01*
X136712418Y-92806667D01*
X136865985Y-92837148D01*
X136912667Y-92891334D01*
X136837156Y-92942571D01*
X136646806Y-92972668D01*
X136544789Y-92976000D01*
X136257770Y-92943274D01*
X136140013Y-92876420D01*
X135592779Y-92876420D01*
X135557356Y-92977204D01*
X135399735Y-93116365D01*
X135170304Y-93127991D01*
X134908177Y-93012486D01*
X134849752Y-92969855D01*
X134672852Y-92766935D01*
X134640061Y-92530075D01*
X134747323Y-92226450D01*
X134755841Y-92209796D01*
X134905734Y-92005106D01*
X135063738Y-91962642D01*
X135234857Y-92084087D01*
X135424093Y-92371123D01*
X135464295Y-92448037D01*
X135574297Y-92702797D01*
X135592779Y-92876420D01*
X136140013Y-92876420D01*
X136050478Y-92825589D01*
X135890145Y-92593686D01*
X135764306Y-92279041D01*
X135604247Y-91913292D01*
X135409085Y-91698797D01*
X135149035Y-91617562D01*
X134794313Y-91651591D01*
X134743956Y-91662569D01*
X134557955Y-91688304D01*
X134472913Y-91629123D01*
X134439563Y-91509775D01*
X134443752Y-91280768D01*
X134510621Y-91031219D01*
X134577183Y-90811417D01*
X134546554Y-90648961D01*
X134519480Y-90600736D01*
X134395979Y-90470062D01*
X134309967Y-90436000D01*
X134268002Y-90514388D01*
G36*
X137960405Y-91697687D02*
X137745173Y-91893726D01*
X137612130Y-92159916D01*
X137590000Y-92320218D01*
X137635651Y-92603018D01*
X137785000Y-92758731D01*
X138056642Y-92806666D01*
X138058489Y-92806667D01*
X138298686Y-92828487D01*
X138395639Y-92903818D01*
X138379441Y-93026611D01*
X138261278Y-93126039D01*
X138054871Y-93133316D01*
X137838434Y-93057688D01*
X137718219Y-93016262D01*
X137677573Y-93097918D01*
X137674667Y-93184688D01*
X137686437Y-93307782D01*
X137749449Y-93371757D01*
X137905260Y-93395847D01*
X138138382Y-93399334D01*
X138423631Y-93387528D01*
X138593852Y-93340543D01*
X138702408Y-93241029D01*
X138724299Y-93208834D01*
X138841726Y-92885709D01*
X138872343Y-92418483D01*
X138868972Y-92326330D01*
X138851721Y-92273143D01*
X138576235Y-92273143D01*
X138548233Y-92390668D01*
X138522652Y-92424079D01*
X138330644Y-92544601D01*
X138115096Y-92529724D01*
X137940312Y-92388811D01*
X137910499Y-92334937D01*
X137854533Y-92161736D01*
X137901134Y-92063037D01*
X137933481Y-92039900D01*
X138178015Y-91965908D01*
X138406640Y-92059926D01*
X138477563Y-92127745D01*
X138576235Y-92273143D01*
X138851721Y-92273143D01*
X138795676Y-92100355D01*
X138629228Y-91871735D01*
X138419544Y-91694168D01*
X138216542Y-91621354D01*
X138213625Y-91621334D01*
X137960405Y-91697687D01*
X137960405Y-91697687D01*
G37*
X137960405Y-91697687D02*
X137745173Y-91893726D01*
X137612130Y-92159916D01*
X137590000Y-92320218D01*
X137635651Y-92603018D01*
X137785000Y-92758731D01*
X138056642Y-92806666D01*
X138058489Y-92806667D01*
X138298686Y-92828487D01*
X138395639Y-92903818D01*
X138379441Y-93026611D01*
X138261278Y-93126039D01*
X138054871Y-93133316D01*
X137838434Y-93057688D01*
X137718219Y-93016262D01*
X137677573Y-93097918D01*
X137674667Y-93184688D01*
X137686437Y-93307782D01*
X137749449Y-93371757D01*
X137905260Y-93395847D01*
X138138382Y-93399334D01*
X138423631Y-93387528D01*
X138593852Y-93340543D01*
X138702408Y-93241029D01*
X138724299Y-93208834D01*
X138841726Y-92885709D01*
X138872343Y-92418483D01*
X138868972Y-92326330D01*
X138851721Y-92273143D01*
X138576235Y-92273143D01*
X138548233Y-92390668D01*
X138522652Y-92424079D01*
X138330644Y-92544601D01*
X138115096Y-92529724D01*
X137940312Y-92388811D01*
X137910499Y-92334937D01*
X137854533Y-92161736D01*
X137901134Y-92063037D01*
X137933481Y-92039900D01*
X138178015Y-91965908D01*
X138406640Y-92059926D01*
X138477563Y-92127745D01*
X138576235Y-92273143D01*
X138851721Y-92273143D01*
X138795676Y-92100355D01*
X138629228Y-91871735D01*
X138419544Y-91694168D01*
X138216542Y-91621354D01*
X138213625Y-91621334D01*
X137960405Y-91697687D01*
G36*
X121147007Y-91565663D02*
X120982122Y-91642992D01*
X120904824Y-91696933D01*
X120750051Y-91802325D01*
X120624044Y-91838513D01*
X120461072Y-91809294D01*
X120242499Y-91735198D01*
X119991827Y-91652929D01*
X119834914Y-91632320D01*
X119707968Y-91672968D01*
X119612565Y-91731223D01*
X119433106Y-91930365D01*
X119294425Y-92235340D01*
X119222489Y-92583297D01*
X119217806Y-92686722D01*
X119182055Y-92882998D01*
X119083293Y-92931093D01*
X118992290Y-92880232D01*
X118921159Y-92741217D01*
X118881624Y-92507905D01*
X118878667Y-92422826D01*
X118854225Y-92157624D01*
X118755231Y-91971805D01*
X118618171Y-91840526D01*
X118359572Y-91682607D01*
X118106276Y-91621334D01*
X117952961Y-91640446D01*
X117838899Y-91722643D01*
X117725636Y-91905218D01*
X117647932Y-92065834D01*
X117514011Y-92434204D01*
X117449596Y-92790066D01*
X117457655Y-93090057D01*
X117541158Y-93290816D01*
X117562625Y-93311589D01*
X117714645Y-93376191D01*
X117816398Y-93284737D01*
X117861143Y-93044814D01*
X117862667Y-92973876D01*
X117902216Y-92662683D01*
X117998098Y-92359462D01*
X118004992Y-92344619D01*
X118102932Y-92158057D01*
X118177182Y-92103808D01*
X118271005Y-92158646D01*
X118301325Y-92185536D01*
X118423958Y-92376388D01*
X118455333Y-92526175D01*
X118490052Y-92751205D01*
X118575918Y-93010325D01*
X118685495Y-93234521D01*
X118782875Y-93350124D01*
X118913594Y-93353023D01*
X119108980Y-93284355D01*
X119125976Y-93275794D01*
X119511948Y-93161289D01*
X119930095Y-93172753D01*
X120238303Y-93274903D01*
X120507271Y-93349432D01*
X120715370Y-93283865D01*
X120847493Y-93101137D01*
X120874054Y-92921877D01*
X120629210Y-92921877D01*
X120542206Y-92970880D01*
X120429539Y-92975580D01*
X120197777Y-92920954D01*
X119968451Y-92789657D01*
X119962889Y-92785080D01*
X119802914Y-92621725D01*
X119718785Y-92478405D01*
X119716702Y-92468000D01*
X119742185Y-92246449D01*
X119859465Y-92087104D01*
X119984083Y-92044667D01*
X120135454Y-92113703D01*
X120316250Y-92288700D01*
X120485766Y-92521495D01*
X120603291Y-92763921D01*
X120610212Y-92785500D01*
X120629210Y-92921877D01*
X120874054Y-92921877D01*
X120888529Y-92824186D01*
X120823372Y-92475947D01*
X120803002Y-92417622D01*
X120730580Y-92181703D01*
X120746960Y-92047647D01*
X120875686Y-91993919D01*
X121140302Y-91998982D01*
X121249969Y-92008771D01*
X121553578Y-92060153D01*
X121732796Y-92168446D01*
X121829938Y-92374652D01*
X121873688Y-92613114D01*
X121961987Y-93075665D01*
X122078182Y-93390793D01*
X122218578Y-93550057D01*
X122292217Y-93568667D01*
X122407625Y-93533557D01*
X122408923Y-93399947D01*
X122403364Y-93378167D01*
X122378143Y-93201576D01*
X122359534Y-92914949D01*
X122351264Y-92577558D01*
X122351156Y-92547682D01*
X122336035Y-92183917D01*
X122296075Y-91906244D01*
X122244167Y-91766495D01*
X122081397Y-91663988D01*
X121783129Y-91587858D01*
X121646522Y-91568738D01*
X121346600Y-91544692D01*
X121147007Y-91565663D01*
X121147007Y-91565663D01*
G37*
X121147007Y-91565663D02*
X120982122Y-91642992D01*
X120904824Y-91696933D01*
X120750051Y-91802325D01*
X120624044Y-91838513D01*
X120461072Y-91809294D01*
X120242499Y-91735198D01*
X119991827Y-91652929D01*
X119834914Y-91632320D01*
X119707968Y-91672968D01*
X119612565Y-91731223D01*
X119433106Y-91930365D01*
X119294425Y-92235340D01*
X119222489Y-92583297D01*
X119217806Y-92686722D01*
X119182055Y-92882998D01*
X119083293Y-92931093D01*
X118992290Y-92880232D01*
X118921159Y-92741217D01*
X118881624Y-92507905D01*
X118878667Y-92422826D01*
X118854225Y-92157624D01*
X118755231Y-91971805D01*
X118618171Y-91840526D01*
X118359572Y-91682607D01*
X118106276Y-91621334D01*
X117952961Y-91640446D01*
X117838899Y-91722643D01*
X117725636Y-91905218D01*
X117647932Y-92065834D01*
X117514011Y-92434204D01*
X117449596Y-92790066D01*
X117457655Y-93090057D01*
X117541158Y-93290816D01*
X117562625Y-93311589D01*
X117714645Y-93376191D01*
X117816398Y-93284737D01*
X117861143Y-93044814D01*
X117862667Y-92973876D01*
X117902216Y-92662683D01*
X117998098Y-92359462D01*
X118004992Y-92344619D01*
X118102932Y-92158057D01*
X118177182Y-92103808D01*
X118271005Y-92158646D01*
X118301325Y-92185536D01*
X118423958Y-92376388D01*
X118455333Y-92526175D01*
X118490052Y-92751205D01*
X118575918Y-93010325D01*
X118685495Y-93234521D01*
X118782875Y-93350124D01*
X118913594Y-93353023D01*
X119108980Y-93284355D01*
X119125976Y-93275794D01*
X119511948Y-93161289D01*
X119930095Y-93172753D01*
X120238303Y-93274903D01*
X120507271Y-93349432D01*
X120715370Y-93283865D01*
X120847493Y-93101137D01*
X120874054Y-92921877D01*
X120629210Y-92921877D01*
X120542206Y-92970880D01*
X120429539Y-92975580D01*
X120197777Y-92920954D01*
X119968451Y-92789657D01*
X119962889Y-92785080D01*
X119802914Y-92621725D01*
X119718785Y-92478405D01*
X119716702Y-92468000D01*
X119742185Y-92246449D01*
X119859465Y-92087104D01*
X119984083Y-92044667D01*
X120135454Y-92113703D01*
X120316250Y-92288700D01*
X120485766Y-92521495D01*
X120603291Y-92763921D01*
X120610212Y-92785500D01*
X120629210Y-92921877D01*
X120874054Y-92921877D01*
X120888529Y-92824186D01*
X120823372Y-92475947D01*
X120803002Y-92417622D01*
X120730580Y-92181703D01*
X120746960Y-92047647D01*
X120875686Y-91993919D01*
X121140302Y-91998982D01*
X121249969Y-92008771D01*
X121553578Y-92060153D01*
X121732796Y-92168446D01*
X121829938Y-92374652D01*
X121873688Y-92613114D01*
X121961987Y-93075665D01*
X122078182Y-93390793D01*
X122218578Y-93550057D01*
X122292217Y-93568667D01*
X122407625Y-93533557D01*
X122408923Y-93399947D01*
X122403364Y-93378167D01*
X122378143Y-93201576D01*
X122359534Y-92914949D01*
X122351264Y-92577558D01*
X122351156Y-92547682D01*
X122336035Y-92183917D01*
X122296075Y-91906244D01*
X122244167Y-91766495D01*
X122081397Y-91663988D01*
X121783129Y-91587858D01*
X121646522Y-91568738D01*
X121346600Y-91544692D01*
X121147007Y-91565663D01*
G36*
X129657381Y-91866522D02*
X129377278Y-92060940D01*
X129139783Y-92329747D01*
X128987574Y-92628215D01*
X128954558Y-92821337D01*
X129008087Y-93033625D01*
X129140798Y-93267180D01*
X129173193Y-93308171D01*
X129436960Y-93515314D01*
X129748633Y-93563022D01*
X130113223Y-93451672D01*
X130232449Y-93388015D01*
X130477871Y-93200376D01*
X130684091Y-92964919D01*
X130801796Y-92740328D01*
X130810666Y-92699946D01*
X130808983Y-92692162D01*
X130391408Y-92692162D01*
X130341445Y-92920401D01*
X130328537Y-92940903D01*
X130117576Y-93124339D01*
X129837241Y-93211347D01*
X129552791Y-93191857D01*
X129362834Y-93089878D01*
X129243023Y-92948784D01*
X129208000Y-92861075D01*
X129271456Y-92724297D01*
X129427748Y-92545023D01*
X129625767Y-92369939D01*
X129814401Y-92245727D01*
X129916442Y-92214000D01*
X130148364Y-92285088D01*
X130316867Y-92462433D01*
X130391408Y-92692162D01*
X130808983Y-92692162D01*
X130767536Y-92500524D01*
X130617640Y-92265659D01*
X130403578Y-92039680D01*
X130167948Y-91866917D01*
X129953350Y-91791699D01*
X129937415Y-91791225D01*
X129657381Y-91866522D01*
X129657381Y-91866522D01*
G37*
X129657381Y-91866522D02*
X129377278Y-92060940D01*
X129139783Y-92329747D01*
X128987574Y-92628215D01*
X128954558Y-92821337D01*
X129008087Y-93033625D01*
X129140798Y-93267180D01*
X129173193Y-93308171D01*
X129436960Y-93515314D01*
X129748633Y-93563022D01*
X130113223Y-93451672D01*
X130232449Y-93388015D01*
X130477871Y-93200376D01*
X130684091Y-92964919D01*
X130801796Y-92740328D01*
X130810666Y-92699946D01*
X130808983Y-92692162D01*
X130391408Y-92692162D01*
X130341445Y-92920401D01*
X130328537Y-92940903D01*
X130117576Y-93124339D01*
X129837241Y-93211347D01*
X129552791Y-93191857D01*
X129362834Y-93089878D01*
X129243023Y-92948784D01*
X129208000Y-92861075D01*
X129271456Y-92724297D01*
X129427748Y-92545023D01*
X129625767Y-92369939D01*
X129814401Y-92245727D01*
X129916442Y-92214000D01*
X130148364Y-92285088D01*
X130316867Y-92462433D01*
X130391408Y-92692162D01*
X130808983Y-92692162D01*
X130767536Y-92500524D01*
X130617640Y-92265659D01*
X130403578Y-92039680D01*
X130167948Y-91866917D01*
X129953350Y-91791699D01*
X129937415Y-91791225D01*
X129657381Y-91866522D01*
G36*
X141458966Y-91829408D02*
X141272690Y-92000426D01*
X141229739Y-92065834D01*
X141130108Y-92306713D01*
X141071089Y-92604263D01*
X141054043Y-92908758D01*
X141080332Y-93170470D01*
X141151315Y-93339671D01*
X141194025Y-93370900D01*
X141334014Y-93376825D01*
X141434640Y-93314270D01*
X141444057Y-93226654D01*
X141407377Y-93192226D01*
X141332799Y-93057782D01*
X141333013Y-92837538D01*
X141391817Y-92588501D01*
X141493010Y-92367679D01*
X141620392Y-92232080D01*
X141685385Y-92214000D01*
X141866511Y-92291284D01*
X142003770Y-92495969D01*
X142073266Y-92787305D01*
X142077333Y-92882400D01*
X142106031Y-93202703D01*
X142182230Y-93435272D01*
X142291085Y-93554625D01*
X142417753Y-93535281D01*
X142444222Y-93512222D01*
X142474076Y-93403551D01*
X142494535Y-93178338D01*
X142500667Y-92938395D01*
X142468400Y-92523077D01*
X142358641Y-92227824D01*
X142151951Y-92013630D01*
X141991732Y-91917183D01*
X141688448Y-91803650D01*
X141458966Y-91829408D01*
X141458966Y-91829408D01*
G37*
X141458966Y-91829408D02*
X141272690Y-92000426D01*
X141229739Y-92065834D01*
X141130108Y-92306713D01*
X141071089Y-92604263D01*
X141054043Y-92908758D01*
X141080332Y-93170470D01*
X141151315Y-93339671D01*
X141194025Y-93370900D01*
X141334014Y-93376825D01*
X141434640Y-93314270D01*
X141444057Y-93226654D01*
X141407377Y-93192226D01*
X141332799Y-93057782D01*
X141333013Y-92837538D01*
X141391817Y-92588501D01*
X141493010Y-92367679D01*
X141620392Y-92232080D01*
X141685385Y-92214000D01*
X141866511Y-92291284D01*
X142003770Y-92495969D01*
X142073266Y-92787305D01*
X142077333Y-92882400D01*
X142106031Y-93202703D01*
X142182230Y-93435272D01*
X142291085Y-93554625D01*
X142417753Y-93535281D01*
X142444222Y-93512222D01*
X142474076Y-93403551D01*
X142494535Y-93178338D01*
X142500667Y-92938395D01*
X142468400Y-92523077D01*
X142358641Y-92227824D01*
X142151951Y-92013630D01*
X141991732Y-91917183D01*
X141688448Y-91803650D01*
X141458966Y-91829408D01*
G36*
X145436494Y-91754019D02*
X145061381Y-91778108D01*
X144834790Y-91832228D01*
X144737172Y-91925754D01*
X144748981Y-92068062D01*
X144753894Y-92081385D01*
X144806905Y-92161713D01*
X144913359Y-92197591D01*
X145114944Y-92195531D01*
X145345810Y-92173848D01*
X145880280Y-92116611D01*
X145904973Y-92820536D01*
X145924370Y-93182552D01*
X145955826Y-93405178D01*
X146005723Y-93518265D01*
X146060795Y-93549491D01*
X146211340Y-93538844D01*
X146251295Y-93515149D01*
X146277256Y-93409445D01*
X146297456Y-93175426D01*
X146309020Y-92854087D01*
X146310667Y-92668535D01*
X146305347Y-92260387D01*
X146271146Y-91992942D01*
X146180702Y-91837572D01*
X146006652Y-91765653D01*
X145721634Y-91748560D01*
X145436494Y-91754019D01*
X145436494Y-91754019D01*
G37*
X145436494Y-91754019D02*
X145061381Y-91778108D01*
X144834790Y-91832228D01*
X144737172Y-91925754D01*
X144748981Y-92068062D01*
X144753894Y-92081385D01*
X144806905Y-92161713D01*
X144913359Y-92197591D01*
X145114944Y-92195531D01*
X145345810Y-92173848D01*
X145880280Y-92116611D01*
X145904973Y-92820536D01*
X145924370Y-93182552D01*
X145955826Y-93405178D01*
X146005723Y-93518265D01*
X146060795Y-93549491D01*
X146211340Y-93538844D01*
X146251295Y-93515149D01*
X146277256Y-93409445D01*
X146297456Y-93175426D01*
X146309020Y-92854087D01*
X146310667Y-92668535D01*
X146305347Y-92260387D01*
X146271146Y-91992942D01*
X146180702Y-91837572D01*
X146006652Y-91765653D01*
X145721634Y-91748560D01*
X145436494Y-91754019D01*
G36*
X127358531Y-90712991D02*
X127277724Y-90919843D01*
X127173563Y-91264024D01*
X127126341Y-91430834D01*
X127029987Y-91506180D01*
X126845503Y-91536667D01*
X126476222Y-91589054D01*
X126172655Y-91762067D01*
X125893261Y-92079482D01*
X125890641Y-92083193D01*
X125622012Y-92464299D01*
X125496333Y-92244242D01*
X125044375Y-92244242D01*
X125002497Y-92346032D01*
X124869025Y-92386011D01*
X124710371Y-92363266D01*
X124592945Y-92276881D01*
X124579767Y-92250642D01*
X124586552Y-92082461D01*
X124627088Y-92019712D01*
X124768746Y-91976019D01*
X124925256Y-92048773D01*
X125033593Y-92204061D01*
X125044375Y-92244242D01*
X125496333Y-92244242D01*
X125388215Y-92054935D01*
X125194471Y-91787665D01*
X124963980Y-91573441D01*
X124732895Y-91435756D01*
X124537371Y-91398104D01*
X124443663Y-91441137D01*
X124336121Y-91612610D01*
X124240624Y-91865025D01*
X124179748Y-92123492D01*
X124176070Y-92313123D01*
X124178339Y-92321253D01*
X124286815Y-92456698D01*
X124498244Y-92604001D01*
X124752384Y-92729843D01*
X124988993Y-92800903D01*
X125055961Y-92806667D01*
X125198081Y-92860684D01*
X125228667Y-92937987D01*
X125155833Y-93053089D01*
X124979711Y-93167546D01*
X124763872Y-93251864D01*
X124571884Y-93276548D01*
X124522297Y-93265720D01*
X124383831Y-93275731D01*
X124319914Y-93381487D01*
X124368507Y-93504374D01*
X124550010Y-93579710D01*
X124816541Y-93570596D01*
X125110254Y-93483472D01*
X125261935Y-93404936D01*
X125522289Y-93271023D01*
X125744066Y-93243157D01*
X125997817Y-93320061D01*
X126142206Y-93389001D01*
X126576666Y-93563269D01*
X126942136Y-93603852D01*
X127234503Y-93530223D01*
X127399737Y-93427347D01*
X127509049Y-93271240D01*
X127569919Y-93033159D01*
X127588581Y-92706243D01*
X127158090Y-92706243D01*
X127127948Y-93022772D01*
X127057957Y-93185880D01*
X126943591Y-93335578D01*
X126828271Y-93386994D01*
X126658781Y-93346279D01*
X126456568Y-93255394D01*
X126196199Y-93063582D01*
X126087133Y-92801764D01*
X126115085Y-92489167D01*
X126245527Y-92192743D01*
X126440393Y-92013084D01*
X126667102Y-91964343D01*
X126893077Y-92060676D01*
X126958386Y-92122762D01*
X127099163Y-92380541D01*
X127158090Y-92706243D01*
X127588581Y-92706243D01*
X127589831Y-92684364D01*
X127577132Y-92214000D01*
X127571208Y-91839570D01*
X127585245Y-91474983D01*
X127615146Y-91206455D01*
X127641891Y-90888599D01*
X127588784Y-90719622D01*
X127501265Y-90632559D01*
X127428779Y-90623789D01*
X127358531Y-90712991D01*
X127358531Y-90712991D01*
G37*
X127358531Y-90712991D02*
X127277724Y-90919843D01*
X127173563Y-91264024D01*
X127126341Y-91430834D01*
X127029987Y-91506180D01*
X126845503Y-91536667D01*
X126476222Y-91589054D01*
X126172655Y-91762067D01*
X125893261Y-92079482D01*
X125890641Y-92083193D01*
X125622012Y-92464299D01*
X125496333Y-92244242D01*
X125044375Y-92244242D01*
X125002497Y-92346032D01*
X124869025Y-92386011D01*
X124710371Y-92363266D01*
X124592945Y-92276881D01*
X124579767Y-92250642D01*
X124586552Y-92082461D01*
X124627088Y-92019712D01*
X124768746Y-91976019D01*
X124925256Y-92048773D01*
X125033593Y-92204061D01*
X125044375Y-92244242D01*
X125496333Y-92244242D01*
X125388215Y-92054935D01*
X125194471Y-91787665D01*
X124963980Y-91573441D01*
X124732895Y-91435756D01*
X124537371Y-91398104D01*
X124443663Y-91441137D01*
X124336121Y-91612610D01*
X124240624Y-91865025D01*
X124179748Y-92123492D01*
X124176070Y-92313123D01*
X124178339Y-92321253D01*
X124286815Y-92456698D01*
X124498244Y-92604001D01*
X124752384Y-92729843D01*
X124988993Y-92800903D01*
X125055961Y-92806667D01*
X125198081Y-92860684D01*
X125228667Y-92937987D01*
X125155833Y-93053089D01*
X124979711Y-93167546D01*
X124763872Y-93251864D01*
X124571884Y-93276548D01*
X124522297Y-93265720D01*
X124383831Y-93275731D01*
X124319914Y-93381487D01*
X124368507Y-93504374D01*
X124550010Y-93579710D01*
X124816541Y-93570596D01*
X125110254Y-93483472D01*
X125261935Y-93404936D01*
X125522289Y-93271023D01*
X125744066Y-93243157D01*
X125997817Y-93320061D01*
X126142206Y-93389001D01*
X126576666Y-93563269D01*
X126942136Y-93603852D01*
X127234503Y-93530223D01*
X127399737Y-93427347D01*
X127509049Y-93271240D01*
X127569919Y-93033159D01*
X127588581Y-92706243D01*
X127158090Y-92706243D01*
X127127948Y-93022772D01*
X127057957Y-93185880D01*
X126943591Y-93335578D01*
X126828271Y-93386994D01*
X126658781Y-93346279D01*
X126456568Y-93255394D01*
X126196199Y-93063582D01*
X126087133Y-92801764D01*
X126115085Y-92489167D01*
X126245527Y-92192743D01*
X126440393Y-92013084D01*
X126667102Y-91964343D01*
X126893077Y-92060676D01*
X126958386Y-92122762D01*
X127099163Y-92380541D01*
X127158090Y-92706243D01*
X127588581Y-92706243D01*
X127589831Y-92684364D01*
X127577132Y-92214000D01*
X127571208Y-91839570D01*
X127585245Y-91474983D01*
X127615146Y-91206455D01*
X127641891Y-90888599D01*
X127588784Y-90719622D01*
X127501265Y-90632559D01*
X127428779Y-90623789D01*
X127358531Y-90712991D01*
G36*
X139885192Y-90852136D02*
X139821831Y-91008781D01*
X139817540Y-91305781D01*
X139822117Y-91349322D01*
X139811713Y-91605521D01*
X139691242Y-91744923D01*
X139439364Y-91790399D01*
X139410333Y-91790667D01*
X139291161Y-91820657D01*
X139304962Y-91888429D01*
X139431015Y-91960685D01*
X139533688Y-91988904D01*
X139779579Y-92119306D01*
X139953909Y-92380254D01*
X140039493Y-92741932D01*
X140045333Y-92876762D01*
X140001997Y-93181736D01*
X139876314Y-93345965D01*
X139674768Y-93363262D01*
X139573176Y-93327115D01*
X139342205Y-93247551D01*
X139174961Y-93236882D01*
X139116184Y-93293500D01*
X139188546Y-93367106D01*
X139362654Y-93466252D01*
X139579384Y-93563619D01*
X139779611Y-93631888D01*
X139882571Y-93647603D01*
X140050211Y-93607812D01*
X140195341Y-93549177D01*
X140382971Y-93371584D01*
X140458483Y-93094720D01*
X140429864Y-92826269D01*
X140371390Y-92563340D01*
X140327787Y-92332033D01*
X140310991Y-92165161D01*
X140362520Y-92080850D01*
X140523526Y-92037814D01*
X140637154Y-92021652D01*
X140931793Y-91963549D01*
X141067507Y-91896212D01*
X141041911Y-91829881D01*
X140852623Y-91774797D01*
X140699211Y-91754997D01*
X140424111Y-91710212D01*
X140270500Y-91615885D01*
X140190692Y-91429802D01*
X140161992Y-91279407D01*
X140082044Y-90981942D01*
X139980854Y-90841354D01*
X139885192Y-90852136D01*
X139885192Y-90852136D01*
G37*
X139885192Y-90852136D02*
X139821831Y-91008781D01*
X139817540Y-91305781D01*
X139822117Y-91349322D01*
X139811713Y-91605521D01*
X139691242Y-91744923D01*
X139439364Y-91790399D01*
X139410333Y-91790667D01*
X139291161Y-91820657D01*
X139304962Y-91888429D01*
X139431015Y-91960685D01*
X139533688Y-91988904D01*
X139779579Y-92119306D01*
X139953909Y-92380254D01*
X140039493Y-92741932D01*
X140045333Y-92876762D01*
X140001997Y-93181736D01*
X139876314Y-93345965D01*
X139674768Y-93363262D01*
X139573176Y-93327115D01*
X139342205Y-93247551D01*
X139174961Y-93236882D01*
X139116184Y-93293500D01*
X139188546Y-93367106D01*
X139362654Y-93466252D01*
X139579384Y-93563619D01*
X139779611Y-93631888D01*
X139882571Y-93647603D01*
X140050211Y-93607812D01*
X140195341Y-93549177D01*
X140382971Y-93371584D01*
X140458483Y-93094720D01*
X140429864Y-92826269D01*
X140371390Y-92563340D01*
X140327787Y-92332033D01*
X140310991Y-92165161D01*
X140362520Y-92080850D01*
X140523526Y-92037814D01*
X140637154Y-92021652D01*
X140931793Y-91963549D01*
X141067507Y-91896212D01*
X141041911Y-91829881D01*
X140852623Y-91774797D01*
X140699211Y-91754997D01*
X140424111Y-91710212D01*
X140270500Y-91615885D01*
X140190692Y-91429802D01*
X140161992Y-91279407D01*
X140082044Y-90981942D01*
X139980854Y-90841354D01*
X139885192Y-90852136D01*
G36*
X147273462Y-91794255D02*
X146970794Y-91955672D01*
X146764255Y-92188706D01*
X146683642Y-92453949D01*
X146693540Y-92561193D01*
X146703716Y-92791558D01*
X146665826Y-93076264D01*
X146648341Y-93149019D01*
X146599884Y-93433472D01*
X146642411Y-93581681D01*
X146774016Y-93589702D01*
X146845195Y-93556186D01*
X147027114Y-93513441D01*
X147300158Y-93514063D01*
X147404661Y-93525416D01*
X147673568Y-93548107D01*
X147854273Y-93511602D01*
X148022637Y-93398615D01*
X148045173Y-93379475D01*
X148242939Y-93107877D01*
X148334032Y-92763108D01*
X148323290Y-92587046D01*
X147928754Y-92587046D01*
X147919046Y-92852319D01*
X147873335Y-93068817D01*
X147812174Y-93162808D01*
X147595814Y-93212904D01*
X147366766Y-93114038D01*
X147216136Y-92959307D01*
X147111929Y-92796193D01*
X147093028Y-92653965D01*
X147152383Y-92451470D01*
X147168323Y-92408973D01*
X147316384Y-92170337D01*
X147510928Y-92054077D01*
X147713180Y-92074031D01*
X147834328Y-92171259D01*
X147901001Y-92338269D01*
X147928754Y-92587046D01*
X148323290Y-92587046D01*
X148312334Y-92407493D01*
X148171731Y-92103355D01*
X148170542Y-92101844D01*
X147887290Y-91842431D01*
X147572553Y-91747706D01*
X147273462Y-91794255D01*
X147273462Y-91794255D01*
G37*
X147273462Y-91794255D02*
X146970794Y-91955672D01*
X146764255Y-92188706D01*
X146683642Y-92453949D01*
X146693540Y-92561193D01*
X146703716Y-92791558D01*
X146665826Y-93076264D01*
X146648341Y-93149019D01*
X146599884Y-93433472D01*
X146642411Y-93581681D01*
X146774016Y-93589702D01*
X146845195Y-93556186D01*
X147027114Y-93513441D01*
X147300158Y-93514063D01*
X147404661Y-93525416D01*
X147673568Y-93548107D01*
X147854273Y-93511602D01*
X148022637Y-93398615D01*
X148045173Y-93379475D01*
X148242939Y-93107877D01*
X148334032Y-92763108D01*
X148323290Y-92587046D01*
X147928754Y-92587046D01*
X147919046Y-92852319D01*
X147873335Y-93068817D01*
X147812174Y-93162808D01*
X147595814Y-93212904D01*
X147366766Y-93114038D01*
X147216136Y-92959307D01*
X147111929Y-92796193D01*
X147093028Y-92653965D01*
X147152383Y-92451470D01*
X147168323Y-92408973D01*
X147316384Y-92170337D01*
X147510928Y-92054077D01*
X147713180Y-92074031D01*
X147834328Y-92171259D01*
X147901001Y-92338269D01*
X147928754Y-92587046D01*
X148323290Y-92587046D01*
X148312334Y-92407493D01*
X148171731Y-92103355D01*
X148170542Y-92101844D01*
X147887290Y-91842431D01*
X147572553Y-91747706D01*
X147273462Y-91794255D01*
G36*
X131426114Y-90679242D02*
X131373016Y-90857937D01*
X131348358Y-91076877D01*
X131358836Y-91240334D01*
X131339787Y-91440423D01*
X131271497Y-91599442D01*
X131203540Y-91741728D01*
X131239669Y-91852376D01*
X131365523Y-91974544D01*
X131497612Y-92121095D01*
X131561327Y-92302044D01*
X131578626Y-92582147D01*
X131578667Y-92603207D01*
X131566018Y-92881249D01*
X131513047Y-93052240D01*
X131397220Y-93177522D01*
X131356306Y-93208522D01*
X131209734Y-93337888D01*
X131188794Y-93453456D01*
X131232285Y-93554250D01*
X131377709Y-93711829D01*
X131542061Y-93715361D01*
X131642385Y-93632167D01*
X131877106Y-93215373D01*
X131993564Y-92728811D01*
X132002000Y-92560855D01*
X132022055Y-92262615D01*
X132072716Y-92000302D01*
X132101527Y-91918864D01*
X132155881Y-91746527D01*
X132097753Y-91633675D01*
X132023649Y-91576168D01*
X131894666Y-91425328D01*
X131763921Y-91179628D01*
X131705652Y-91028621D01*
X131614516Y-90791310D01*
X131531894Y-90637717D01*
X131493923Y-90605334D01*
X131426114Y-90679242D01*
X131426114Y-90679242D01*
G37*
X131426114Y-90679242D02*
X131373016Y-90857937D01*
X131348358Y-91076877D01*
X131358836Y-91240334D01*
X131339787Y-91440423D01*
X131271497Y-91599442D01*
X131203540Y-91741728D01*
X131239669Y-91852376D01*
X131365523Y-91974544D01*
X131497612Y-92121095D01*
X131561327Y-92302044D01*
X131578626Y-92582147D01*
X131578667Y-92603207D01*
X131566018Y-92881249D01*
X131513047Y-93052240D01*
X131397220Y-93177522D01*
X131356306Y-93208522D01*
X131209734Y-93337888D01*
X131188794Y-93453456D01*
X131232285Y-93554250D01*
X131377709Y-93711829D01*
X131542061Y-93715361D01*
X131642385Y-93632167D01*
X131877106Y-93215373D01*
X131993564Y-92728811D01*
X132002000Y-92560855D01*
X132022055Y-92262615D01*
X132072716Y-92000302D01*
X132101527Y-91918864D01*
X132155881Y-91746527D01*
X132097753Y-91633675D01*
X132023649Y-91576168D01*
X131894666Y-91425328D01*
X131763921Y-91179628D01*
X131705652Y-91028621D01*
X131614516Y-90791310D01*
X131531894Y-90637717D01*
X131493923Y-90605334D01*
X131426114Y-90679242D01*
G36*
X143717654Y-91818332D02*
X143316537Y-91955527D01*
X143032478Y-92212609D01*
X142872935Y-92580387D01*
X142839333Y-92900883D01*
X142816500Y-93166760D01*
X142760223Y-93385365D01*
X142746823Y-93413989D01*
X142688520Y-93597472D01*
X142737197Y-93679083D01*
X142857382Y-93648504D01*
X143013605Y-93495415D01*
X143015934Y-93492278D01*
X143183500Y-93297157D01*
X143320414Y-93243931D01*
X143474265Y-93324320D01*
X143557614Y-93398031D01*
X143856451Y-93591179D01*
X144148758Y-93630717D01*
X144405410Y-93530855D01*
X144597280Y-93305802D01*
X144657012Y-93100905D01*
X144417686Y-93100905D01*
X144413223Y-93113838D01*
X144297993Y-93208032D01*
X144092514Y-93212514D01*
X143842964Y-93137880D01*
X143595521Y-92994725D01*
X143487733Y-92901477D01*
X143317719Y-92680564D01*
X143306813Y-92496191D01*
X143457748Y-92319929D01*
X143549939Y-92254485D01*
X143730984Y-92165015D01*
X143895941Y-92186366D01*
X143988909Y-92228385D01*
X144169373Y-92383890D01*
X144321794Y-92624558D01*
X144414967Y-92885270D01*
X144417686Y-93100905D01*
X144657012Y-93100905D01*
X144695242Y-92969767D01*
X144702000Y-92839739D01*
X144687963Y-92594325D01*
X144624354Y-92414694D01*
X144478928Y-92233683D01*
X144350340Y-92107255D01*
X144129968Y-91913496D01*
X143964602Y-91822232D01*
X143798387Y-91807957D01*
X143717654Y-91818332D01*
X143717654Y-91818332D01*
G37*
X143717654Y-91818332D02*
X143316537Y-91955527D01*
X143032478Y-92212609D01*
X142872935Y-92580387D01*
X142839333Y-92900883D01*
X142816500Y-93166760D01*
X142760223Y-93385365D01*
X142746823Y-93413989D01*
X142688520Y-93597472D01*
X142737197Y-93679083D01*
X142857382Y-93648504D01*
X143013605Y-93495415D01*
X143015934Y-93492278D01*
X143183500Y-93297157D01*
X143320414Y-93243931D01*
X143474265Y-93324320D01*
X143557614Y-93398031D01*
X143856451Y-93591179D01*
X144148758Y-93630717D01*
X144405410Y-93530855D01*
X144597280Y-93305802D01*
X144657012Y-93100905D01*
X144417686Y-93100905D01*
X144413223Y-93113838D01*
X144297993Y-93208032D01*
X144092514Y-93212514D01*
X143842964Y-93137880D01*
X143595521Y-92994725D01*
X143487733Y-92901477D01*
X143317719Y-92680564D01*
X143306813Y-92496191D01*
X143457748Y-92319929D01*
X143549939Y-92254485D01*
X143730984Y-92165015D01*
X143895941Y-92186366D01*
X143988909Y-92228385D01*
X144169373Y-92383890D01*
X144321794Y-92624558D01*
X144414967Y-92885270D01*
X144417686Y-93100905D01*
X144657012Y-93100905D01*
X144695242Y-92969767D01*
X144702000Y-92839739D01*
X144687963Y-92594325D01*
X144624354Y-92414694D01*
X144478928Y-92233683D01*
X144350340Y-92107255D01*
X144129968Y-91913496D01*
X143964602Y-91822232D01*
X143798387Y-91807957D01*
X143717654Y-91818332D01*
G36*
X148585515Y-91735971D02*
X148529228Y-91945282D01*
X148555130Y-92280199D01*
X148663547Y-92729320D01*
X148690720Y-92817833D01*
X148850242Y-93219381D01*
X149049295Y-93566874D01*
X149264429Y-93828748D01*
X149472196Y-93973439D01*
X149563013Y-93992000D01*
X149716675Y-93935461D01*
X149898751Y-93797968D01*
X149912849Y-93784182D01*
X150082445Y-93499044D01*
X150149631Y-93096942D01*
X150113094Y-92596754D01*
X150023578Y-92192834D01*
X149925561Y-91906345D01*
X149837707Y-91783606D01*
X149763509Y-91819163D01*
X149706455Y-92007562D01*
X149670035Y-92343351D01*
X149657795Y-92764334D01*
X149653191Y-93127571D01*
X149638136Y-93353402D01*
X149605898Y-93473710D01*
X149549744Y-93520381D01*
X149496887Y-93526334D01*
X149363698Y-93447732D01*
X149227703Y-93234549D01*
X149102720Y-92920721D01*
X149002563Y-92540183D01*
X148945371Y-92171667D01*
X148908001Y-91885587D01*
X148860076Y-91731099D01*
X148785169Y-91670563D01*
X148723667Y-91663667D01*
X148585515Y-91735971D01*
X148585515Y-91735971D01*
G37*
X148585515Y-91735971D02*
X148529228Y-91945282D01*
X148555130Y-92280199D01*
X148663547Y-92729320D01*
X148690720Y-92817833D01*
X148850242Y-93219381D01*
X149049295Y-93566874D01*
X149264429Y-93828748D01*
X149472196Y-93973439D01*
X149563013Y-93992000D01*
X149716675Y-93935461D01*
X149898751Y-93797968D01*
X149912849Y-93784182D01*
X150082445Y-93499044D01*
X150149631Y-93096942D01*
X150113094Y-92596754D01*
X150023578Y-92192834D01*
X149925561Y-91906345D01*
X149837707Y-91783606D01*
X149763509Y-91819163D01*
X149706455Y-92007562D01*
X149670035Y-92343351D01*
X149657795Y-92764334D01*
X149653191Y-93127571D01*
X149638136Y-93353402D01*
X149605898Y-93473710D01*
X149549744Y-93520381D01*
X149496887Y-93526334D01*
X149363698Y-93447732D01*
X149227703Y-93234549D01*
X149102720Y-92920721D01*
X149002563Y-92540183D01*
X148945371Y-92171667D01*
X148908001Y-91885587D01*
X148860076Y-91731099D01*
X148785169Y-91670563D01*
X148723667Y-91663667D01*
X148585515Y-91735971D01*
G36*
X153480484Y-90614425D02*
X153456787Y-90652134D01*
X153465527Y-90740375D01*
X153511955Y-90896901D01*
X153601327Y-91139467D01*
X153738894Y-91485829D01*
X153929910Y-91953742D01*
X154175829Y-92551725D01*
X154428433Y-93153102D01*
X154630151Y-93603871D01*
X154785633Y-93913389D01*
X154899532Y-94091015D01*
X154968090Y-94145483D01*
X155119321Y-94103784D01*
X155169874Y-94034791D01*
X155158980Y-93894794D01*
X155079400Y-93640554D01*
X154942840Y-93306857D01*
X154875724Y-93160700D01*
X154687752Y-92751002D01*
X154471698Y-92261525D01*
X154261595Y-91770024D01*
X154164852Y-91536667D01*
X153996839Y-91138530D01*
X153869211Y-90873739D01*
X153765893Y-90715998D01*
X153670805Y-90639008D01*
X153604175Y-90619576D01*
X153531365Y-90609490D01*
X153480484Y-90614425D01*
X153480484Y-90614425D01*
G37*
X153480484Y-90614425D02*
X153456787Y-90652134D01*
X153465527Y-90740375D01*
X153511955Y-90896901D01*
X153601327Y-91139467D01*
X153738894Y-91485829D01*
X153929910Y-91953742D01*
X154175829Y-92551725D01*
X154428433Y-93153102D01*
X154630151Y-93603871D01*
X154785633Y-93913389D01*
X154899532Y-94091015D01*
X154968090Y-94145483D01*
X155119321Y-94103784D01*
X155169874Y-94034791D01*
X155158980Y-93894794D01*
X155079400Y-93640554D01*
X154942840Y-93306857D01*
X154875724Y-93160700D01*
X154687752Y-92751002D01*
X154471698Y-92261525D01*
X154261595Y-91770024D01*
X154164852Y-91536667D01*
X153996839Y-91138530D01*
X153869211Y-90873739D01*
X153765893Y-90715998D01*
X153670805Y-90639008D01*
X153604175Y-90619576D01*
X153531365Y-90609490D01*
X153480484Y-90614425D01*
G36*
X154618253Y-90651834D02*
X154607012Y-90746445D01*
X154637805Y-90927854D01*
X154723090Y-91229479D01*
X154850141Y-91616117D01*
X155006230Y-92052564D01*
X155178627Y-92503617D01*
X155354604Y-92934074D01*
X155521435Y-93308732D01*
X155569487Y-93408411D01*
X155744651Y-93750247D01*
X155876190Y-93966015D01*
X155987429Y-94085180D01*
X156101695Y-94137210D01*
X156153167Y-94145791D01*
X156321453Y-94147740D01*
X156386000Y-94116527D01*
X156341459Y-94015251D01*
X156233505Y-93846322D01*
X156226013Y-93835737D01*
X156126523Y-93664472D01*
X155984965Y-93380585D01*
X155822775Y-93028427D01*
X155708146Y-92764334D01*
X155523781Y-92328465D01*
X155328725Y-91867808D01*
X155153629Y-91454730D01*
X155083374Y-91289192D01*
X154922023Y-90944123D01*
X154783851Y-90715048D01*
X154679160Y-90613706D01*
X154618253Y-90651834D01*
X154618253Y-90651834D01*
G37*
X154618253Y-90651834D02*
X154607012Y-90746445D01*
X154637805Y-90927854D01*
X154723090Y-91229479D01*
X154850141Y-91616117D01*
X155006230Y-92052564D01*
X155178627Y-92503617D01*
X155354604Y-92934074D01*
X155521435Y-93308732D01*
X155569487Y-93408411D01*
X155744651Y-93750247D01*
X155876190Y-93966015D01*
X155987429Y-94085180D01*
X156101695Y-94137210D01*
X156153167Y-94145791D01*
X156321453Y-94147740D01*
X156386000Y-94116527D01*
X156341459Y-94015251D01*
X156233505Y-93846322D01*
X156226013Y-93835737D01*
X156126523Y-93664472D01*
X155984965Y-93380585D01*
X155822775Y-93028427D01*
X155708146Y-92764334D01*
X155523781Y-92328465D01*
X155328725Y-91867808D01*
X155153629Y-91454730D01*
X155083374Y-91289192D01*
X154922023Y-90944123D01*
X154783851Y-90715048D01*
X154679160Y-90613706D01*
X154618253Y-90651834D01*
G36*
X150855839Y-91627611D02*
X150596369Y-91786654D01*
X150428013Y-92075946D01*
X150368330Y-92284917D01*
X150342634Y-92591949D01*
X150366007Y-93005161D01*
X150429887Y-93471509D01*
X150525714Y-93937949D01*
X150644926Y-94351436D01*
X150739500Y-94584667D01*
X150897523Y-94840625D01*
X151082314Y-94967594D01*
X151335260Y-94980444D01*
X151644667Y-94909869D01*
X151958468Y-94788158D01*
X152120406Y-94645040D01*
X152152667Y-94522357D01*
X152113293Y-94441137D01*
X151969637Y-94435792D01*
X151877500Y-94452075D01*
X151504647Y-94526111D01*
X151265376Y-94563802D01*
X151127487Y-94563309D01*
X151058781Y-94522790D01*
X151027059Y-94440402D01*
X151019070Y-94402983D01*
X150948056Y-93992340D01*
X150938871Y-93712425D01*
X151000417Y-93533118D01*
X151141596Y-93424298D01*
X151325553Y-93365947D01*
X151523777Y-93274043D01*
X151757353Y-93103866D01*
X151854719Y-93014303D01*
X152091052Y-92695972D01*
X152146742Y-92434382D01*
X151883335Y-92434382D01*
X151829226Y-92588111D01*
X151666699Y-92760907D01*
X151387945Y-92939507D01*
X151121276Y-92952933D01*
X150882667Y-92806667D01*
X150733796Y-92572755D01*
X150749929Y-92322810D01*
X150845134Y-92148172D01*
X151044815Y-91990231D01*
X151302074Y-91981769D01*
X151562328Y-92103259D01*
X151796405Y-92285592D01*
X151883335Y-92434382D01*
X152146742Y-92434382D01*
X152158388Y-92379679D01*
X152056931Y-92060773D01*
X151905612Y-91855503D01*
X151730760Y-91685241D01*
X151557643Y-91603634D01*
X151310476Y-91579637D01*
X151230630Y-91579000D01*
X150855839Y-91627611D01*
X150855839Y-91627611D01*
G37*
X150855839Y-91627611D02*
X150596369Y-91786654D01*
X150428013Y-92075946D01*
X150368330Y-92284917D01*
X150342634Y-92591949D01*
X150366007Y-93005161D01*
X150429887Y-93471509D01*
X150525714Y-93937949D01*
X150644926Y-94351436D01*
X150739500Y-94584667D01*
X150897523Y-94840625D01*
X151082314Y-94967594D01*
X151335260Y-94980444D01*
X151644667Y-94909869D01*
X151958468Y-94788158D01*
X152120406Y-94645040D01*
X152152667Y-94522357D01*
X152113293Y-94441137D01*
X151969637Y-94435792D01*
X151877500Y-94452075D01*
X151504647Y-94526111D01*
X151265376Y-94563802D01*
X151127487Y-94563309D01*
X151058781Y-94522790D01*
X151027059Y-94440402D01*
X151019070Y-94402983D01*
X150948056Y-93992340D01*
X150938871Y-93712425D01*
X151000417Y-93533118D01*
X151141596Y-93424298D01*
X151325553Y-93365947D01*
X151523777Y-93274043D01*
X151757353Y-93103866D01*
X151854719Y-93014303D01*
X152091052Y-92695972D01*
X152146742Y-92434382D01*
X151883335Y-92434382D01*
X151829226Y-92588111D01*
X151666699Y-92760907D01*
X151387945Y-92939507D01*
X151121276Y-92952933D01*
X150882667Y-92806667D01*
X150733796Y-92572755D01*
X150749929Y-92322810D01*
X150845134Y-92148172D01*
X151044815Y-91990231D01*
X151302074Y-91981769D01*
X151562328Y-92103259D01*
X151796405Y-92285592D01*
X151883335Y-92434382D01*
X152146742Y-92434382D01*
X152158388Y-92379679D01*
X152056931Y-92060773D01*
X151905612Y-91855503D01*
X151730760Y-91685241D01*
X151557643Y-91603634D01*
X151310476Y-91579637D01*
X151230630Y-91579000D01*
X150855839Y-91627611D01*
G36*
X182334011Y-95458785D02*
X182108650Y-95542687D01*
X182009085Y-95606812D01*
X181867906Y-95748498D01*
X181802062Y-95923747D01*
X181786000Y-96195495D01*
X181807348Y-96493707D01*
X181861089Y-96758164D01*
X181888789Y-96834296D01*
X181945779Y-97011417D01*
X181890851Y-97134194D01*
X181804122Y-97211684D01*
X181653582Y-97362120D01*
X181640803Y-97491523D01*
X181768586Y-97647798D01*
X181832997Y-97705560D01*
X181963123Y-97838551D01*
X182013315Y-97976781D01*
X182001223Y-98188169D01*
X181985492Y-98292329D01*
X181937241Y-98686767D01*
X181946289Y-98958146D01*
X182018189Y-99144643D01*
X182126229Y-99259623D01*
X182350627Y-99379027D01*
X182573420Y-99402428D01*
X182738365Y-99329139D01*
X182777556Y-99267578D01*
X182783558Y-99134469D01*
X182744572Y-99095191D01*
X182603230Y-99033729D01*
X182510128Y-98941266D01*
X182458480Y-98787962D01*
X182441501Y-98543978D01*
X182452406Y-98179473D01*
X182469757Y-97886667D01*
X182494469Y-97456470D01*
X182501298Y-97157414D01*
X182487244Y-96951961D01*
X182449307Y-96802572D01*
X182384484Y-96671710D01*
X182370820Y-96649007D01*
X182240116Y-96386859D01*
X182237993Y-96191994D01*
X182374067Y-96011188D01*
X182505667Y-95902740D01*
X182687388Y-95738187D01*
X182792001Y-95593207D01*
X182802000Y-95554025D01*
X182732673Y-95460993D01*
X182559347Y-95430401D01*
X182334011Y-95458785D01*
X182334011Y-95458785D01*
G37*
X182334011Y-95458785D02*
X182108650Y-95542687D01*
X182009085Y-95606812D01*
X181867906Y-95748498D01*
X181802062Y-95923747D01*
X181786000Y-96195495D01*
X181807348Y-96493707D01*
X181861089Y-96758164D01*
X181888789Y-96834296D01*
X181945779Y-97011417D01*
X181890851Y-97134194D01*
X181804122Y-97211684D01*
X181653582Y-97362120D01*
X181640803Y-97491523D01*
X181768586Y-97647798D01*
X181832997Y-97705560D01*
X181963123Y-97838551D01*
X182013315Y-97976781D01*
X182001223Y-98188169D01*
X181985492Y-98292329D01*
X181937241Y-98686767D01*
X181946289Y-98958146D01*
X182018189Y-99144643D01*
X182126229Y-99259623D01*
X182350627Y-99379027D01*
X182573420Y-99402428D01*
X182738365Y-99329139D01*
X182777556Y-99267578D01*
X182783558Y-99134469D01*
X182744572Y-99095191D01*
X182603230Y-99033729D01*
X182510128Y-98941266D01*
X182458480Y-98787962D01*
X182441501Y-98543978D01*
X182452406Y-98179473D01*
X182469757Y-97886667D01*
X182494469Y-97456470D01*
X182501298Y-97157414D01*
X182487244Y-96951961D01*
X182449307Y-96802572D01*
X182384484Y-96671710D01*
X182370820Y-96649007D01*
X182240116Y-96386859D01*
X182237993Y-96191994D01*
X182374067Y-96011188D01*
X182505667Y-95902740D01*
X182687388Y-95738187D01*
X182792001Y-95593207D01*
X182802000Y-95554025D01*
X182732673Y-95460993D01*
X182559347Y-95430401D01*
X182334011Y-95458785D01*
M02*
