M48
;DRILL file {KiCad (2017-07-16 revision e797af331)-makepkg} date 05/04/18 01:25:45
;FORMAT={-:-/ absolute / inch / decimal}
FMAT,2
INCH,TZ
T1C0.016
T2C0.020
T3C0.024
T4C0.031
T5C0.033
T6C0.039
T7C0.047
T8C0.063
T9C0.098
T10C0.126
%
G90
G05
M72
T1
X3.6811Y-4.1929
X3.6929Y-3.9587
X3.7205Y-4.2224
X3.7362Y-4.0118
X3.7598Y-3.8386
X3.7992Y-3.8386
X3.8189Y-2.6142
X3.8484Y-2.8543
X3.8583Y-2.7756
X3.9173Y-2.5984
X3.9764Y-3.8386
X4.0079Y-2.4685
X4.0256Y-2.8051
X4.0472Y-2.8937
X4.0819Y-2.8796
X4.1831Y-3.1791
X4.1929Y-4.0354
X4.2008Y-2.5669
X4.252Y-2.874
X4.311Y-3.878
X4.3307Y-2.6772
X4.4193Y-2.7756
X4.4882Y-2.7756
X4.5Y-4.0138
X4.5079Y-2.5591
X4.5453Y-2.6772
X4.5984Y-2.4646
X4.626Y-2.8248
X4.626Y-2.8839
X4.685Y-2.9528
X4.7165Y-2.4094
X4.7165Y-2.5512
X4.9508Y-3.1693
X5.0295Y-2.7264
X5.0394Y-2.9035
X5.0886Y-2.5197
X5.1575Y-2.3622
X5.187Y-2.6772
X5.2756Y-3.1102
X5.3346Y-2.8346
X5.5413Y-2.6673
X5.689Y-2.7165
X5.7677Y-3.1004
X5.935Y-3.0512
X5.9646Y-2.9823
X6.0335Y-2.8937
X6.0433Y-2.4409
X6.0728Y-3.0906
X6.0925Y-2.815
X6.2402Y-2.7579
X6.5453Y-2.8543
X7.185Y-4.3406
X7.3622Y-4.2047
X7.4331Y-4.2126
X7.5Y-4.5472
X7.6181Y-2.4606
X7.6181Y-4.5374
X7.7067Y-2.5886
X7.7362Y-4.2126
T2
X7.7008Y-4.3898
X7.7285Y-4.323
X7.7285Y-4.4566
X7.7953Y-4.2953
X7.7953Y-4.4843
X7.8621Y-4.323
X7.8621Y-4.4566
X7.8898Y-4.3898
X3.7638Y-2.4213
X3.7915Y-2.3544
X3.7915Y-2.4881
X3.8583Y-2.3268
X3.8583Y-2.5157
X3.9251Y-2.3544
X3.9251Y-2.4881
X3.9528Y-2.4213
X7.7008Y-2.4213
X7.7285Y-2.3544
X7.7285Y-2.4881
X7.7953Y-2.3268
X7.7953Y-2.5157
X7.8621Y-2.3544
X7.8621Y-2.4881
X7.8898Y-2.4213
X3.7638Y-4.3898
X3.7915Y-4.323
X3.7915Y-4.4566
X3.8583Y-4.2953
X3.8583Y-4.4843
X3.9251Y-4.323
X3.9251Y-4.4566
X3.9528Y-4.3898
T4
X7.715Y-3.8976
X7.815Y-3.8976
X7.915Y-3.8976
X5.7563Y-2.3228
X5.7563Y-2.6228
X5.8563Y-2.3228
X5.8563Y-2.6228
T5
X3.628Y-3.8878
X3.628Y-4.0846
T6
X4.8134Y-2.5535
X4.8134Y-2.6535
X4.8134Y-2.7535
X4.9134Y-2.5535
X4.9134Y-2.6535
X4.9134Y-2.7535
X6.437Y-2.4173
X6.437Y-2.7165
X3.5787Y-2.6138
X3.5787Y-2.7138
X3.5787Y-2.8138
X3.5787Y-2.9138
X3.5787Y-3.0138
X3.5787Y-3.1138
T7
X6.8701Y-4.1732
X6.8701Y-4.2913
T8
X3.8976Y-3.4055
X7.7559Y-3.4055
T9
X3.6614Y-3.4055
X7.9921Y-3.4055
T10
X7.7953Y-4.3898
X3.8583Y-2.4213
X7.7953Y-2.4213
X3.8583Y-4.3898
T3
X3.5079Y-3.8484G85X3.5354Y-3.8484
G05
X3.5354Y-4.124G85X3.5079Y-4.124
G05
T0
M30
