G04 Layer: TopSolderMaskLayer*
G04 EasyEDA v6.2.44, 2019-09-24T20:15:28+02:00*
G04 525ee883efe64d3eb70f5621e6c7a3e3,c85b667672964722a5a42a972ddb0a92,10*
G04 Gerber Generator version 0.2*
G04 Scale: 100 percent, Rotated: No, Reflected: No *
G04 Dimensions in millimeters *
G04 leading zeros omitted , absolute positions ,3 integer and 3 decimal *
%FSLAX33Y33*%
%MOMM*%
G90*
G71D02*

%ADD20C,1.981200*%

%LPD*%
G54D20*
G01X8636Y21720D03*
G01X8636Y1119D03*
G36*
G01X14404Y16591D02*
G01X14404Y17952D01*
G01X16075Y17952D01*
G01X16075Y16591D01*
G01X14404Y16591D01*
G37*
G36*
G01X14404Y14559D02*
G01X14404Y15920D01*
G01X16075Y15920D01*
G01X16075Y14559D01*
G01X14404Y14559D01*
G37*
G36*
G01X2212Y16591D02*
G01X2212Y17952D01*
G01X3883Y17952D01*
G01X3883Y16591D01*
G01X2212Y16591D01*
G37*
G36*
G01X2212Y14559D02*
G01X2212Y15920D01*
G01X3883Y15920D01*
G01X3883Y14559D01*
G01X2212Y14559D01*
G37*
G36*
G01X7292Y14559D02*
G01X7292Y15920D01*
G01X8963Y15920D01*
G01X8963Y14559D01*
G01X7292Y14559D01*
G37*
G36*
G01X7292Y16591D02*
G01X7292Y17952D01*
G01X8963Y17952D01*
G01X8963Y16591D01*
G01X7292Y16591D01*
G37*
G36*
G01X11102Y14559D02*
G01X11102Y15920D01*
G01X12773Y15920D01*
G01X12773Y14559D01*
G01X11102Y14559D01*
G37*
G36*
G01X11102Y16591D02*
G01X11102Y17952D01*
G01X12773Y17952D01*
G01X12773Y16591D01*
G01X11102Y16591D01*
G37*
G36*
G01X2245Y11203D02*
G01X2245Y12707D01*
G01X3848Y12707D01*
G01X3848Y11203D01*
G01X2245Y11203D01*
G37*
G36*
G01X2245Y9103D02*
G01X2245Y10607D01*
G01X3848Y10607D01*
G01X3848Y9103D01*
G01X2245Y9103D01*
G37*
G36*
G01X14437Y11457D02*
G01X14437Y12961D01*
G01X16040Y12961D01*
G01X16040Y11457D01*
G01X14437Y11457D01*
G37*
G36*
G01X14437Y9357D02*
G01X14437Y10861D01*
G01X16040Y10861D01*
G01X16040Y9357D01*
G01X14437Y9357D01*
G37*
G36*
G01X14787Y6111D02*
G01X14787Y7564D01*
G01X15692Y7564D01*
G01X15692Y6111D01*
G01X14787Y6111D01*
G37*
G36*
G01X15737Y3611D02*
G01X15737Y5064D01*
G01X16642Y5064D01*
G01X16642Y3611D01*
G01X15737Y3611D01*
G37*
G36*
G01X13837Y3611D02*
G01X13837Y5064D01*
G01X14742Y5064D01*
G01X14742Y3611D01*
G01X13837Y3611D01*
G37*
G36*
G01X2595Y4841D02*
G01X2595Y6294D01*
G01X3500Y6294D01*
G01X3500Y4841D01*
G01X2595Y4841D01*
G37*
G36*
G01X3545Y2341D02*
G01X3545Y3794D01*
G01X4450Y3794D01*
G01X4450Y2341D01*
G01X3545Y2341D01*
G37*
G36*
G01X1645Y2341D02*
G01X1645Y3794D01*
G01X2550Y3794D01*
G01X2550Y2341D01*
G01X1645Y2341D01*
G37*
G36*
G01X11163Y8140D02*
G01X11163Y10144D01*
G01X12966Y10144D01*
G01X12966Y8140D01*
G01X11163Y8140D01*
G37*
G36*
G01X8369Y8140D02*
G01X8369Y10144D01*
G01X10172Y10144D01*
G01X10172Y8140D01*
G01X8369Y8140D01*
G37*
G36*
G01X7861Y11442D02*
G01X7861Y13446D01*
G01X9664Y13446D01*
G01X9664Y11442D01*
G01X7861Y11442D01*
G37*
G36*
G01X5067Y11442D02*
G01X5067Y13446D01*
G01X6870Y13446D01*
G01X6870Y11442D01*
G01X5067Y11442D01*
G37*
M00*
M02*
