G04 Layer: TopLayer*
G04 EasyEDA v6.2.44, 2019-09-24T20:15:28+02:00*
G04 525ee883efe64d3eb70f5621e6c7a3e3,c85b667672964722a5a42a972ddb0a92,10*
G04 Gerber Generator version 0.2*
G04 Scale: 100 percent, Rotated: No, Reflected: No *
G04 Dimensions in millimeters *
G04 leading zeros omitted , absolute positions ,3 integer and 3 decimal *
%FSLAX33Y33*%
%MOMM*%
G90*
G71D02*

%ADD10C,0.254000*%
%ADD11R,1.469898X1.160018*%
%ADD12R,1.399540X1.300480*%
%ADD13R,0.699999X1.250010*%
%ADD14R,1.600200X1.800860*%
%ADD15C,1.778000*%

%LPD*%
G54D10*
G01X8636Y21720D02*
G01X10791Y21720D01*
G01X15239Y17271D01*
G01X15239Y17271D02*
G01X3047Y17271D01*
G01X15239Y15239D02*
G01X15239Y12210D01*
G01X15238Y12209D01*
G01X3047Y15239D02*
G01X3047Y11956D01*
G01X3046Y11955D01*
G01X15238Y10109D02*
G01X15238Y6838D01*
G01X15240Y6837D01*
G01X3046Y9855D02*
G01X3046Y5568D01*
G01X3048Y5567D01*
G01X8128Y15240D02*
G01X8128Y13080D01*
G01X8763Y12446D01*
G01X5969Y12446D02*
G01X5969Y11049D01*
G01X4826Y9906D01*
G01X3097Y9906D01*
G01X3046Y9855D01*
G01X9271Y9144D02*
G01X9271Y9525D01*
G01X11176Y11430D01*
G01X11176Y14478D01*
G01X11938Y15240D01*
G01X12065Y9144D02*
G01X14273Y9144D01*
G01X15238Y10109D01*
G01X8636Y1119D02*
G01X5946Y1119D01*
G01X3998Y3068D01*
G01X2098Y3068D02*
G01X2098Y3114D01*
G01X3302Y4318D01*
G01X4445Y4318D01*
G01X9271Y9144D01*
G01X8636Y1119D02*
G01X16123Y1119D01*
G01X16190Y1185D01*
G01X16190Y4338D01*
G01X14290Y4338D02*
G01X14290Y4892D01*
G01X14986Y5588D01*
G01X16256Y5588D01*
G01X17018Y6350D01*
G01X17018Y16256D01*
G01X9652Y16256D01*
G01X9652Y13970D01*
G01X8763Y13081D01*
G01X8763Y12446D01*
G54D11*
G01X15240Y17271D03*
G01X15240Y15239D03*
G01X3048Y17271D03*
G01X3048Y15239D03*
G01X8128Y15240D03*
G01X8128Y17272D03*
G01X11938Y15240D03*
G01X11938Y17272D03*
G54D12*
G01X3046Y11955D03*
G01X3046Y9855D03*
G01X15238Y12209D03*
G01X15238Y10109D03*
G54D13*
G01X15240Y6837D03*
G01X16189Y4338D03*
G01X14290Y4338D03*
G01X3048Y5567D03*
G01X3997Y3068D03*
G01X2098Y3068D03*
G54D14*
G01X12065Y9144D03*
G01X9271Y9144D03*
G01X8763Y12446D03*
G01X5969Y12446D03*

%LPD*%
G36*
G01X4318Y2286D02*
G01X254Y2286D01*
G01X254Y254D01*
G01X4318Y254D01*
G01X4318Y2286D01*
G37*

%LPD*%
G36*
G01X10922Y6350D02*
G01X7112Y6350D01*
G01X7112Y4318D01*
G01X10922Y4318D01*
G01X10922Y6350D01*
G37*

%LPD*%
G36*
G01X17780Y3048D02*
G01X17018Y3048D01*
G01X17018Y254D01*
G01X17780Y254D01*
G01X17780Y3048D01*
G37*

%LPD*%
G36*
G01X17526Y23876D02*
G01X11938Y23876D01*
G01X17526Y18034D01*
G01X17526Y23876D01*
G37*
G54D15*
G01X8636Y21720D03*
G01X8636Y1119D03*
M00*
M02*
