G04 Layer: TopSilkLayer*
G04 EasyEDA v6.2.44, 2019-09-24T20:15:28+02:00*
G04 525ee883efe64d3eb70f5621e6c7a3e3,c85b667672964722a5a42a972ddb0a92,10*
G04 Gerber Generator version 0.2*
G04 Scale: 100 percent, Rotated: No, Reflected: No *
G04 Dimensions in millimeters *
G04 leading zeros omitted , absolute positions ,3 integer and 3 decimal *
%FSLAX33Y33*%
%MOMM*%
G90*
G71D02*

%ADD10C,0.254000*%
%ADD16C,0.199898*%
%ADD17C,0.200000*%
%ADD18C,0.177800*%
%ADD19C,0.203200*%

%LPD*%

%LPD*%
G36*
G01X9747Y3764D02*
G01X9720Y3768D01*
G01X9670Y3762D01*
G01X9598Y3745D01*
G01X9502Y3720D01*
G01X9417Y3695D01*
G01X9346Y3671D01*
G01X9294Y3653D01*
G01X9271Y3641D01*
G01X9261Y3629D01*
G01X9250Y3608D01*
G01X9237Y3582D01*
G01X9224Y3553D01*
G01X9195Y3483D01*
G01X9281Y3433D01*
G01X9368Y3382D01*
G01X9471Y3434D01*
G01X9522Y3456D01*
G01X9575Y3472D01*
G01X9628Y3480D01*
G01X9680Y3481D01*
G01X9732Y3476D01*
G01X9783Y3463D01*
G01X9831Y3443D01*
G01X9878Y3416D01*
G01X9927Y3387D01*
G01X9971Y3372D01*
G01X10029Y3369D01*
G01X10122Y3375D01*
G01X10218Y3382D01*
G01X10306Y3391D01*
G01X10384Y3401D01*
G01X10450Y3411D01*
G01X10504Y3422D01*
G01X10544Y3433D01*
G01X10568Y3444D01*
G01X10577Y3455D01*
G01X10568Y3470D01*
G01X10541Y3483D01*
G01X10489Y3495D01*
G01X10410Y3505D01*
G01X10392Y3511D01*
G01X10395Y3524D01*
G01X10424Y3550D01*
G01X10481Y3593D01*
G01X10574Y3664D01*
G01X10617Y3704D01*
G01X10607Y3711D01*
G01X10545Y3684D01*
G01X10480Y3652D01*
G01X10412Y3622D01*
G01X10346Y3594D01*
G01X10282Y3569D01*
G01X10222Y3549D01*
G01X10170Y3533D01*
G01X10127Y3523D01*
G01X10097Y3519D01*
G01X10030Y3526D01*
G01X9972Y3543D01*
G01X9927Y3567D01*
G01X9904Y3597D01*
G01X9882Y3636D01*
G01X9839Y3686D01*
G01X9791Y3732D01*
G01X9747Y3764D01*
G37*

%LPD*%
G36*
G01X9865Y4647D02*
G01X9825Y4652D01*
G01X9796Y4648D01*
G01X9771Y4634D01*
G01X9744Y4608D01*
G01X9682Y4556D01*
G01X9607Y4517D01*
G01X9525Y4493D01*
G01X9444Y4488D01*
G01X9402Y4488D01*
G01X9361Y4483D01*
G01X9322Y4473D01*
G01X9287Y4459D01*
G01X9247Y4440D01*
G01X9219Y4435D01*
G01X9189Y4446D01*
G01X9146Y4473D01*
G01X9071Y4516D01*
G01X8987Y4551D01*
G01X8894Y4580D01*
G01X8792Y4601D01*
G01X8728Y4609D01*
G01X8671Y4606D01*
G01X8600Y4588D01*
G01X8494Y4553D01*
G01X8451Y4538D01*
G01X8401Y4523D01*
G01X8346Y4507D01*
G01X8289Y4491D01*
G01X8171Y4461D01*
G01X8115Y4448D01*
G01X8062Y4436D01*
G01X8003Y4424D01*
G01X7945Y4410D01*
G01X7831Y4382D01*
G01X7776Y4367D01*
G01X7721Y4351D01*
G01X7667Y4334D01*
G01X7614Y4318D01*
G01X7509Y4281D01*
G01X7407Y4241D01*
G01X7306Y4199D01*
G01X7256Y4176D01*
G01X7206Y4152D01*
G01X7150Y4124D01*
G01X7088Y4091D01*
G01X7022Y4054D01*
G01X6953Y4015D01*
G01X6884Y3973D01*
G01X6816Y3931D01*
G01X6752Y3891D01*
G01X6692Y3852D01*
G01X6640Y3816D01*
G01X6597Y3784D01*
G01X6564Y3758D01*
G01X6544Y3739D01*
G01X6533Y3723D01*
G01X6536Y3714D01*
G01X6556Y3710D01*
G01X6596Y3709D01*
G01X6644Y3713D01*
G01X6715Y3726D01*
G01X6802Y3744D01*
G01X6894Y3766D01*
G01X6983Y3788D01*
G01X7066Y3806D01*
G01X7132Y3818D01*
G01X7172Y3823D01*
G01X7195Y3818D01*
G01X7182Y3800D01*
G01X7126Y3761D01*
G01X7018Y3695D01*
G01X6961Y3661D01*
G01X6906Y3626D01*
G01X6851Y3590D01*
G01X6797Y3552D01*
G01X6744Y3515D01*
G01X6692Y3476D01*
G01X6641Y3437D01*
G01X6541Y3355D01*
G01X6492Y3313D01*
G01X6444Y3270D01*
G01X6352Y3182D01*
G01X6306Y3136D01*
G01X6262Y3090D01*
G01X6218Y3043D01*
G01X6176Y2995D01*
G01X6134Y2946D01*
G01X6093Y2897D01*
G01X6053Y2847D01*
G01X6014Y2796D01*
G01X5938Y2690D01*
G01X5901Y2637D01*
G01X5866Y2583D01*
G01X5831Y2527D01*
G01X5797Y2471D01*
G01X5764Y2414D01*
G01X5701Y2300D01*
G01X5664Y2220D01*
G01X5645Y2155D01*
G01X5637Y2087D01*
G01X5636Y2039D01*
G01X5640Y1982D01*
G01X5646Y1919D01*
G01X5656Y1852D01*
G01X5667Y1784D01*
G01X5681Y1718D01*
G01X5697Y1656D01*
G01X5715Y1600D01*
G01X5738Y1532D01*
G01X5861Y1688D01*
G01X5897Y1731D01*
G01X5938Y1779D01*
G01X5982Y1829D01*
G01X6030Y1881D01*
G01X6080Y1933D01*
G01X6132Y1987D01*
G01X6185Y2040D01*
G01X6238Y2092D01*
G01X6291Y2143D01*
G01X6343Y2191D01*
G01X6393Y2236D01*
G01X6440Y2277D01*
G01X6484Y2314D01*
G01X6523Y2345D01*
G01X6558Y2371D01*
G01X6587Y2390D01*
G01X6640Y2421D01*
G01X6695Y2455D01*
G01X6747Y2488D01*
G01X6789Y2517D01*
G01X6840Y2551D01*
G01X6894Y2585D01*
G01X6948Y2618D01*
G01X7005Y2650D01*
G01X7123Y2712D01*
G01X7184Y2741D01*
G01X7246Y2769D01*
G01X7308Y2796D01*
G01X7372Y2821D01*
G01X7435Y2846D01*
G01X7500Y2869D01*
G01X7555Y2887D01*
G01X7614Y2906D01*
G01X7672Y2924D01*
G01X7730Y2940D01*
G01X7783Y2955D01*
G01X7830Y2966D01*
G01X7868Y2975D01*
G01X7897Y2980D01*
G01X7925Y2985D01*
G01X7971Y2993D01*
G01X8030Y3004D01*
G01X8096Y3017D01*
G01X8155Y3028D01*
G01X8215Y3036D01*
G01X8277Y3043D01*
G01X8340Y3049D01*
G01X8403Y3053D01*
G01X8466Y3055D01*
G01X8529Y3056D01*
G01X8591Y3055D01*
G01X8652Y3053D01*
G01X8712Y3049D01*
G01X8770Y3043D01*
G01X8825Y3036D01*
G01X8877Y3027D01*
G01X8927Y3017D01*
G01X8973Y3006D01*
G01X9014Y2993D01*
G01X9053Y2981D01*
G01X9117Y2967D01*
G01X9195Y2951D01*
G01X9281Y2934D01*
G01X9327Y2925D01*
G01X9379Y2914D01*
G01X9434Y2902D01*
G01X9545Y2873D01*
G01X9600Y2858D01*
G01X9650Y2843D01*
G01X9696Y2829D01*
G01X9900Y2762D01*
G01X10072Y2852D01*
G01X10139Y2888D01*
G01X10195Y2922D01*
G01X10233Y2947D01*
G01X10249Y2963D01*
G01X10244Y2972D01*
G01X10222Y2984D01*
G01X10189Y2996D01*
G01X10147Y3007D01*
G01X10098Y3020D01*
G01X10045Y3034D01*
G01X9988Y3052D01*
G01X9929Y3071D01*
G01X9867Y3093D01*
G01X9805Y3116D01*
G01X9741Y3141D01*
G01X9677Y3167D01*
G01X9613Y3195D01*
G01X9489Y3251D01*
G01X9431Y3280D01*
G01X9374Y3309D01*
G01X9321Y3337D01*
G01X9273Y3365D01*
G01X9228Y3392D01*
G01X9167Y3433D01*
G01X9137Y3460D01*
G01X9130Y3486D01*
G01X9139Y3523D01*
G01X9155Y3573D01*
G01X9177Y3623D01*
G01X9202Y3672D01*
G01X9231Y3722D01*
G01X9264Y3769D01*
G01X9299Y3816D01*
G01X9337Y3860D01*
G01X9377Y3901D01*
G01X9419Y3940D01*
G01X9462Y3974D01*
G01X9506Y4004D01*
G01X9550Y4029D01*
G01X9592Y4048D01*
G01X9639Y4067D01*
G01X9689Y4083D01*
G01X9741Y4098D01*
G01X9793Y4109D01*
G01X9843Y4118D01*
G01X9891Y4124D01*
G01X9933Y4125D01*
G01X9980Y4128D01*
G01X10015Y4137D01*
G01X10044Y4154D01*
G01X10075Y4182D01*
G01X10103Y4207D01*
G01X10137Y4231D01*
G01X10175Y4253D01*
G01X10211Y4270D01*
G01X10264Y4287D01*
G01X10318Y4292D01*
G01X10396Y4285D01*
G01X10520Y4267D01*
G01X10587Y4256D01*
G01X10512Y4322D01*
G01X10469Y4357D01*
G01X10422Y4392D01*
G01X10369Y4427D01*
G01X10313Y4461D01*
G01X10254Y4494D01*
G01X10194Y4526D01*
G01X10134Y4555D01*
G01X10074Y4582D01*
G01X10016Y4605D01*
G01X9961Y4623D01*
G01X9911Y4638D01*
G01X9865Y4647D01*
G37*

%LPC*%
G36*
G01X9003Y4274D02*
G01X8967Y4274D01*
G01X8878Y4268D01*
G01X8763Y4256D01*
G01X8661Y4243D01*
G01X8614Y4233D01*
G01X8619Y4228D01*
G01X8639Y4218D01*
G01X8669Y4206D01*
G01X8707Y4193D01*
G01X8807Y4158D01*
G01X8920Y4217D01*
G01X8983Y4250D01*
G01X9010Y4267D01*
G01X9003Y4274D01*
G37*

%LPD*%
G36*
G01X8475Y3020D02*
G01X8428Y3021D01*
G01X8385Y3020D01*
G01X8343Y3018D01*
G01X8302Y3014D01*
G01X8260Y3009D01*
G01X8214Y3002D01*
G01X8163Y2993D01*
G01X8103Y2981D01*
G01X8035Y2967D01*
G01X7954Y2950D01*
G01X7881Y2935D01*
G01X7812Y2919D01*
G01X7747Y2905D01*
G01X7689Y2892D01*
G01X7639Y2880D01*
G01X7599Y2871D01*
G01X7571Y2864D01*
G01X7557Y2859D01*
G01X7533Y2849D01*
G01X7496Y2835D01*
G01X7452Y2817D01*
G01X7405Y2799D01*
G01X7350Y2777D01*
G01X7290Y2751D01*
G01X7228Y2723D01*
G01X7165Y2694D01*
G01X7104Y2664D01*
G01X7049Y2637D01*
G01X6999Y2610D01*
G01X6960Y2587D01*
G01X6889Y2544D01*
G01X6820Y2500D01*
G01X6754Y2457D01*
G01X6691Y2414D01*
G01X6630Y2371D01*
G01X6571Y2329D01*
G01X6516Y2286D01*
G01X6462Y2243D01*
G01X6410Y2201D01*
G01X6361Y2159D01*
G01X6313Y2116D01*
G01X6269Y2074D01*
G01X6214Y2019D01*
G01X6157Y1960D01*
G01X6100Y1899D01*
G01X6043Y1836D01*
G01X5988Y1774D01*
G01X5937Y1713D01*
G01X5890Y1657D01*
G01X5849Y1604D01*
G01X5815Y1559D01*
G01X5789Y1520D01*
G01X5772Y1491D01*
G01X5766Y1473D01*
G01X5775Y1441D01*
G01X5799Y1391D01*
G01X5835Y1327D01*
G01X5881Y1255D01*
G01X5932Y1179D01*
G01X5986Y1103D01*
G01X6040Y1034D01*
G01X6090Y975D01*
G01X6142Y923D01*
G01X6199Y869D01*
G01X6261Y817D01*
G01X6325Y766D01*
G01X6392Y718D01*
G01X6459Y674D01*
G01X6525Y633D01*
G01X6590Y598D01*
G01X6647Y572D01*
G01X6713Y546D01*
G01X6784Y521D01*
G01X6858Y497D01*
G01X6932Y476D01*
G01X7003Y459D01*
G01X7068Y446D01*
G01X7124Y438D01*
G01X7242Y427D01*
G01X7217Y511D01*
G01X7200Y573D01*
G01X7186Y636D01*
G01X7174Y702D01*
G01X7166Y769D01*
G01X7160Y837D01*
G01X7157Y906D01*
G01X7157Y976D01*
G01X7159Y1046D01*
G01X7164Y1117D01*
G01X7172Y1187D01*
G01X7183Y1257D01*
G01X7196Y1326D01*
G01X7211Y1395D01*
G01X7229Y1462D01*
G01X7251Y1528D01*
G01X7274Y1592D01*
G01X7295Y1644D01*
G01X7320Y1696D01*
G01X7347Y1748D01*
G01X7376Y1800D01*
G01X7408Y1852D01*
G01X7442Y1902D01*
G01X7477Y1953D01*
G01X7515Y2002D01*
G01X7554Y2050D01*
G01X7595Y2097D01*
G01X7637Y2142D01*
G01X7680Y2186D01*
G01X7725Y2228D01*
G01X7770Y2267D01*
G01X7816Y2304D01*
G01X7862Y2339D01*
G01X7916Y2375D01*
G01X7975Y2410D01*
G01X8038Y2445D01*
G01X8104Y2479D01*
G01X8171Y2510D01*
G01X8238Y2538D01*
G01X8304Y2564D01*
G01X8368Y2586D01*
G01X8428Y2605D01*
G01X8484Y2618D01*
G01X8533Y2626D01*
G01X8575Y2629D01*
G01X8600Y2634D01*
G01X8625Y2650D01*
G01X8652Y2679D01*
G01X8684Y2725D01*
G01X8715Y2768D01*
G01X8754Y2816D01*
G01X8797Y2863D01*
G01X8839Y2902D01*
G01X8884Y2943D01*
G01X8907Y2970D01*
G01X8912Y2987D01*
G01X8901Y2996D01*
G01X8867Y3002D01*
G01X8797Y3007D01*
G01X8702Y3013D01*
G01X8591Y3017D01*
G01X8529Y3019D01*
G01X8475Y3020D01*
G37*

%LPD*%
G54D16*
G01X14204Y15701D02*
G01X14204Y14380D01*
G01X16275Y14380D01*
G01X16275Y15701D01*
G01X14204Y16833D02*
G01X14204Y18153D01*
G01X16275Y18153D01*
G01X16275Y16833D01*
G01X2012Y15701D02*
G01X2012Y14380D01*
G01X4083Y14380D01*
G01X4083Y15701D01*
G01X2012Y16833D02*
G01X2012Y18153D01*
G01X4083Y18153D01*
G01X4083Y16833D01*
G01X9163Y16810D02*
G01X9163Y18131D01*
G01X7092Y18131D01*
G01X7092Y16810D01*
G01X9163Y15678D02*
G01X9163Y14358D01*
G01X7092Y14358D01*
G01X7092Y15678D01*
G01X12973Y16810D02*
G01X12973Y18131D01*
G01X10902Y18131D01*
G01X10902Y16810D01*
G01X12973Y15678D02*
G01X12973Y14358D01*
G01X10902Y14358D01*
G01X10902Y15678D01*
G54D10*
G01X4064Y11348D02*
G01X4064Y12898D01*
G01X2032Y12898D01*
G01X2032Y11348D01*
G01X4089Y10561D02*
G01X4089Y9088D01*
G01X3683Y8681D01*
G01X2413Y8681D01*
G01X2032Y9062D01*
G01X2032Y10586D01*
G01X3548Y11122D02*
G01X2547Y11122D01*
G01X2547Y11122D01*
G01X3048Y10622D01*
G01X3048Y10622D01*
G01X3548Y11122D01*
G01X3848Y8923D02*
G01X2247Y8923D01*
G01X16256Y11602D02*
G01X16256Y13152D01*
G01X14224Y13152D01*
G01X14224Y11602D01*
G01X16281Y10815D02*
G01X16281Y9342D01*
G01X15875Y8935D01*
G01X14605Y8935D01*
G01X14224Y9316D01*
G01X14224Y10840D01*
G01X15740Y11376D02*
G01X14739Y11376D01*
G01X14739Y11376D01*
G01X15240Y10876D01*
G01X15240Y10876D01*
G01X15740Y11376D01*
G01X16040Y9177D02*
G01X14439Y9177D01*
G01X16040Y6237D02*
G01X16699Y6237D01*
G01X16040Y6237D01*
G01X16699Y6237D01*
G01X16699Y5422D01*
G01X13780Y5422D02*
G01X13780Y6237D01*
G01X14439Y6237D01*
G54D17*
G01X14940Y4688D02*
G01X15539Y4688D01*
G54D10*
G01X3848Y4967D02*
G01X4507Y4967D01*
G01X3848Y4967D01*
G01X4507Y4967D01*
G01X4507Y4152D01*
G01X1588Y4152D02*
G01X1588Y4967D01*
G01X2247Y4967D01*
G54D17*
G01X2748Y3418D02*
G01X3347Y3418D01*
G54D10*
G01X11430Y7874D02*
G01X13208Y7874D01*
G01X13208Y10414D01*
G01X11430Y10414D01*
G01X9906Y10414D02*
G01X8128Y10414D01*
G01X8128Y7874D01*
G01X9906Y7874D01*
G01X8128Y11176D02*
G01X9906Y11176D01*
G01X9906Y13716D01*
G01X8128Y13716D01*
G01X6604Y13716D02*
G01X4826Y13716D01*
G01X4826Y11176D01*
G01X6604Y11176D01*
G54D18*
G01X14477Y19558D02*
G01X14477Y18468D01*
G01X14477Y19558D02*
G01X14945Y19558D01*
G01X15100Y19507D01*
G01X15153Y19456D01*
G01X15204Y19352D01*
G01X15204Y19248D01*
G01X15153Y19144D01*
G01X15100Y19090D01*
G01X14945Y19040D01*
G01X14477Y19040D01*
G01X14841Y19040D02*
G01X15204Y18468D01*
G01X15547Y19352D02*
G01X15651Y19403D01*
G01X15808Y19558D01*
G01X15808Y18468D01*
G01X4317Y16002D02*
G01X4317Y14912D01*
G01X4317Y16002D02*
G01X4785Y16002D01*
G01X4940Y15951D01*
G01X4993Y15900D01*
G01X5044Y15796D01*
G01X5044Y15692D01*
G01X4993Y15588D01*
G01X4940Y15534D01*
G01X4785Y15483D01*
G01X4317Y15483D01*
G01X4681Y15483D02*
G01X5044Y14912D01*
G01X5440Y15743D02*
G01X5440Y15796D01*
G01X5491Y15900D01*
G01X5544Y15951D01*
G01X5648Y16002D01*
G01X5854Y16002D01*
G01X5958Y15951D01*
G01X6012Y15900D01*
G01X6062Y15796D01*
G01X6062Y15692D01*
G01X6012Y15588D01*
G01X5908Y15430D01*
G01X5387Y14912D01*
G01X6116Y14912D01*
G01X7366Y19558D02*
G01X7366Y18468D01*
G01X7366Y19558D02*
G01X7833Y19558D01*
G01X7988Y19507D01*
G01X8041Y19456D01*
G01X8092Y19352D01*
G01X8092Y19248D01*
G01X8041Y19144D01*
G01X7988Y19090D01*
G01X7833Y19040D01*
G01X7366Y19040D01*
G01X7729Y19040D02*
G01X8092Y18468D01*
G01X8539Y19558D02*
G01X9110Y19558D01*
G01X8801Y19144D01*
G01X8956Y19144D01*
G01X9060Y19090D01*
G01X9110Y19040D01*
G01X9164Y18885D01*
G01X9164Y18780D01*
G01X9110Y18623D01*
G01X9006Y18519D01*
G01X8851Y18468D01*
G01X8696Y18468D01*
G01X8539Y18519D01*
G01X8488Y18572D01*
G01X8435Y18676D01*
G01X11176Y19558D02*
G01X11176Y18468D01*
G01X11176Y19558D02*
G01X11643Y19558D01*
G01X11798Y19507D01*
G01X11851Y19456D01*
G01X11902Y19352D01*
G01X11902Y19248D01*
G01X11851Y19144D01*
G01X11798Y19090D01*
G01X11643Y19040D01*
G01X11176Y19040D01*
G01X11539Y19040D02*
G01X11902Y18468D01*
G01X12766Y19558D02*
G01X12245Y18831D01*
G01X13025Y18831D01*
G01X12766Y19558D02*
G01X12766Y18468D01*
G01X647Y9144D02*
G01X1737Y9144D01*
G01X1737Y9144D02*
G01X1737Y9766D01*
G01X647Y10109D02*
G01X1737Y10109D01*
G01X647Y10109D02*
G01X647Y10784D01*
G01X1165Y10109D02*
G01X1165Y10525D01*
G01X1737Y10109D02*
G01X1737Y10784D01*
G01X647Y11127D02*
G01X1737Y11127D01*
G01X647Y11127D02*
G01X647Y11493D01*
G01X698Y11648D01*
G01X802Y11752D01*
G01X906Y11803D01*
G01X1061Y11856D01*
G01X1320Y11856D01*
G01X1478Y11803D01*
G01X1582Y11752D01*
G01X1686Y11648D01*
G01X1737Y11493D01*
G01X1737Y11127D01*
G01X647Y12717D02*
G01X1374Y12199D01*
G01X1374Y12979D01*
G01X647Y12717D02*
G01X1737Y12717D01*
G01X12699Y10655D02*
G01X13789Y10655D01*
G01X13789Y10655D02*
G01X13789Y11277D01*
G01X12699Y11620D02*
G01X13789Y11620D01*
G01X12699Y11620D02*
G01X12699Y12295D01*
G01X13217Y11620D02*
G01X13217Y12036D01*
G01X13789Y11620D02*
G01X13789Y12295D01*
G01X12699Y12638D02*
G01X13789Y12638D01*
G01X12699Y12638D02*
G01X12699Y13004D01*
G01X12750Y13159D01*
G01X12854Y13263D01*
G01X12958Y13314D01*
G01X13113Y13367D01*
G01X13372Y13367D01*
G01X13530Y13314D01*
G01X13634Y13263D01*
G01X13738Y13159D01*
G01X13789Y13004D01*
G01X13789Y12638D01*
G01X12905Y13710D02*
G01X12854Y13814D01*
G01X12699Y13969D01*
G01X13789Y13969D01*
G01X11742Y6350D02*
G01X11638Y6299D01*
G01X11534Y6195D01*
G01X11480Y6091D01*
G01X11430Y5936D01*
G01X11430Y5677D01*
G01X11480Y5519D01*
G01X11534Y5415D01*
G01X11638Y5311D01*
G01X11742Y5260D01*
G01X11950Y5260D01*
G01X12052Y5311D01*
G01X12156Y5415D01*
G01X12209Y5519D01*
G01X12260Y5677D01*
G01X12260Y5936D01*
G01X12209Y6091D01*
G01X12156Y6195D01*
G01X12052Y6299D01*
G01X11950Y6350D01*
G01X11742Y6350D01*
G01X11897Y5468D02*
G01X12209Y5156D01*
G01X12656Y6091D02*
G01X12656Y6144D01*
G01X12707Y6248D01*
G01X12760Y6299D01*
G01X12865Y6350D01*
G01X13070Y6350D01*
G01X13174Y6299D01*
G01X13228Y6248D01*
G01X13279Y6144D01*
G01X13279Y6040D01*
G01X13228Y5936D01*
G01X13124Y5778D01*
G01X12603Y5260D01*
G01X13332Y5260D01*
G01X1074Y6858D02*
G01X970Y6807D01*
G01X866Y6703D01*
G01X812Y6599D01*
G01X762Y6444D01*
G01X762Y6185D01*
G01X812Y6027D01*
G01X866Y5923D01*
G01X970Y5819D01*
G01X1074Y5768D01*
G01X1282Y5768D01*
G01X1384Y5819D01*
G01X1488Y5923D01*
G01X1541Y6027D01*
G01X1592Y6185D01*
G01X1592Y6444D01*
G01X1541Y6599D01*
G01X1488Y6703D01*
G01X1384Y6807D01*
G01X1282Y6858D01*
G01X1074Y6858D01*
G01X1229Y5976D02*
G01X1541Y5664D01*
G01X1935Y6652D02*
G01X2039Y6703D01*
G01X2197Y6858D01*
G01X2197Y5768D01*
G01X8653Y7221D02*
G01X8600Y7325D01*
G01X8496Y7429D01*
G01X8394Y7480D01*
G01X8186Y7480D01*
G01X8082Y7429D01*
G01X7978Y7325D01*
G01X7924Y7221D01*
G01X7874Y7066D01*
G01X7874Y6807D01*
G01X7924Y6649D01*
G01X7978Y6545D01*
G01X8082Y6441D01*
G01X8186Y6390D01*
G01X8394Y6390D01*
G01X8496Y6441D01*
G01X8600Y6545D01*
G01X8653Y6649D01*
G01X9514Y7480D02*
G01X8996Y6753D01*
G01X9776Y6753D01*
G01X9514Y7480D02*
G01X9514Y6390D01*
G01X6875Y10409D02*
G01X6822Y10513D01*
G01X6718Y10617D01*
G01X6616Y10668D01*
G01X6408Y10668D01*
G01X6304Y10617D01*
G01X6200Y10513D01*
G01X6146Y10409D01*
G01X6096Y10254D01*
G01X6096Y9995D01*
G01X6146Y9837D01*
G01X6200Y9733D01*
G01X6304Y9629D01*
G01X6408Y9578D01*
G01X6616Y9578D01*
G01X6718Y9629D01*
G01X6822Y9733D01*
G01X6875Y9837D01*
G01X7218Y10462D02*
G01X7322Y10513D01*
G01X7477Y10668D01*
G01X7477Y9578D01*
G54D19*
G01X10160Y2247D02*
G01X10523Y1292D01*
G01X10886Y2247D02*
G01X10523Y1292D01*
G01X11231Y1518D02*
G01X11186Y1475D01*
G01X11231Y1430D01*
G01X11277Y1475D01*
G01X11231Y1518D01*
G01X12214Y2110D02*
G01X12123Y2202D01*
G01X11986Y2247D01*
G01X11805Y2247D01*
G01X11668Y2202D01*
G01X11577Y2110D01*
G01X11577Y2019D01*
G01X11623Y1927D01*
G01X11668Y1884D01*
G01X11760Y1838D01*
G01X12031Y1747D01*
G01X12123Y1701D01*
G01X12169Y1656D01*
G01X12214Y1564D01*
G01X12214Y1430D01*
G01X12123Y1338D01*
G01X11986Y1292D01*
G01X11805Y1292D01*
G01X11668Y1338D01*
G01X11577Y1430D01*
G01X12560Y1518D02*
G01X12514Y1475D01*
G01X12560Y1430D01*
G01X12606Y1475D01*
G01X12560Y1518D01*
G01X13649Y2019D02*
G01X13649Y2065D01*
G01X13695Y2156D01*
G01X13741Y2202D01*
G01X13832Y2247D01*
G01X14015Y2247D01*
G01X14104Y2202D01*
G01X14150Y2156D01*
G01X14196Y2065D01*
G01X14196Y1973D01*
G01X14150Y1884D01*
G01X14058Y1747D01*
G01X13604Y1292D01*
G01X14241Y1292D01*
G01X14813Y2247D02*
G01X14678Y2202D01*
G01X14587Y2065D01*
G01X14541Y1838D01*
G01X14541Y1701D01*
G01X14587Y1475D01*
G01X14678Y1338D01*
G01X14813Y1292D01*
G01X14904Y1292D01*
G01X15041Y1338D01*
G01X15133Y1475D01*
G01X15179Y1701D01*
G01X15179Y1838D01*
G01X15133Y2065D01*
G01X15041Y2202D01*
G01X14904Y2247D01*
G01X14813Y2247D01*
G01X15478Y2065D02*
G01X15570Y2110D01*
G01X15704Y2247D01*
G01X15704Y1292D01*
G01X16596Y1927D02*
G01X16550Y1793D01*
G01X16459Y1701D01*
G01X16324Y1656D01*
G01X16278Y1656D01*
G01X16141Y1701D01*
G01X16050Y1793D01*
G01X16004Y1927D01*
G01X16004Y1973D01*
G01X16050Y2110D01*
G01X16141Y2202D01*
G01X16278Y2247D01*
G01X16324Y2247D01*
G01X16459Y2202D01*
G01X16550Y2110D01*
G01X16596Y1927D01*
G01X16596Y1701D01*
G01X16550Y1475D01*
G01X16459Y1338D01*
G01X16324Y1292D01*
G01X16233Y1292D01*
G01X16095Y1338D01*
G01X16050Y1430D01*
M00*
M02*
